<mxfile host="app.diagrams.net" modified="2023-08-01T00:34:43.591Z" agent="Mozilla/5.0 (Windows NT 10.0; Win64; x64) AppleWebKit/537.36 (KHTML, like Gecko) Chrome/115.0.0.0 Safari/537.36" etag="muTuwb-JFwzkyz-Ti54L" version="21.6.6" type="device">
  <diagram name="Página-1" id="9-ZvC1Q2IiIS7uSdiDV9">
    <mxGraphModel dx="4327" dy="1780" grid="1" gridSize="10" guides="1" tooltips="1" connect="1" arrows="1" fold="1" page="1" pageScale="1" pageWidth="827" pageHeight="1169" math="0" shadow="0">
      <root>
        <mxCell id="0" />
        <mxCell id="1" parent="0" />
        <mxCell id="AjuV_Ijz82pBbPcZ4gYu-1" value="A Optus é uma empresa no ramo musical que deseja realizar o gerenciamento dos lançamentos de novos cds de seus artistas. Cada álbum lançado poderá conter mais de um estilo vinculado (ex.: Indie e Folk).&#xa;É importante que você crie também uma estratégia para que os usuários possuíssem acesso à plataforma.&#xa;Os usuários devem conter nome, e-mail, senha e tipo de permissão (eles podem ser do tipo administrador ou comum).&#xa;&#xa;Observações:&#xa;Os Artistas devem possuir somente nome.&#xa;Estilos: nome.&#xa;Álbuns: título, data de lançamento, localização, quantidade de minutos, se o álbum está ativo para visualização, a quem pertence (somente um artista por álbum) e quais os estilos vinculados.&#xa;&#xa;DQL&#xa;&#xa;- listar todos os usuários administradores, sem exibir suas senhas&#xa;- listar todos os álbuns lançados após o um determinado ano de lançamento&#xa;- listar os dados de um usuário através do e-mail e senha&#xa;- listar todos os álbuns ativos, mostrando o nome do artista e os estilos do álbum " style="text;whiteSpace=wrap;align=left;fontSize=13;labelBackgroundColor=none;fillColor=#e1d5e7;strokeColor=#9673a6;dashed=1;gradientDirection=east;" vertex="1" parent="1">
          <mxGeometry x="94" y="150" width="640" height="310" as="geometry" />
        </mxCell>
        <mxCell id="AjuV_Ijz82pBbPcZ4gYu-2" value="" style="shape=image;verticalLabelPosition=bottom;labelBackgroundColor=default;verticalAlign=top;aspect=fixed;imageAspect=0;image=data:image/png,iVBORw0KGgoAAAANSUhEUgAAAfQAAAH0CAYAAADL1t+KAAAACXBIWXMAARlAAAEZQAGA43XUAADjv0lEQVR4Xuy9B4AkZ3kmXLmqq9PEzVE5B1ACSQgQyWBjbMActnH4DwfMYWzjdHe+8xmfw/l82DgHME44gG0MBgGSiBKSAGWtpJV2tdo8uxM7Vg7/837dPdsz0xM3TXe/JfXOTHeF73uqZp7vTc8rSbwxAowAI8AIMAKMACPACDACjAAjwAgwAowAI8AIMAKMACPACDACjAAjwAgwAowAI8AIMAKMACPACDACjAAjwAgwAowAI8AIMAKMACPACDACjAAjwAgwAowAI8AIMAKMACPACDACjAAjwAgwAowAI8AIMAKMACPACDACjAAjwAgwAowAI8AIMAKMACPACDACjAAjwAgwAowAI8AIMAKMACPACDACjAAjwAgwAowAI8AIMAKMACPACDACjAAjwAgwAowAI8AIMAKMACPACDACjAAjwAgwAowAI8AIMAKMACPACDACjAAjwAgwAowAI8AIMAKMACPACDACjAAjwAgwAowAI8AIMAKMACPACDACjMBSCMgMDyPACPQHAmG1lo9OTm6LZ8qjietm0zjWJF0L1Gy2oo8MntRGR46olhn2Bxo8S0ag9xBgQu+9e8ozYgTmIFB79MlbnSeeeZm378Wro3EQeqkykjgNQpeJ0HPZijpYnNA3bzyUuezixzLXXv6gfelFTzKMjAAj0F0IMKF31/3i0TICK0ag/thTLy99/svvdB7bc5u3/+BVWUnWojSVEimV8EVs9AdAxj8KvpPxTWDqNevSCx+3b7vprtwbXvWPue1bD674grwjI8AInFcEmNDPK/x8cUbgzCOQhpE6+YnP/FT5M1/8kei5F15Cv+RE5MTheDWpfOF1sZ+s4B8d9D6tKzXnmsu+dsm73v7HW1952+fP/Cj5jIwAI3CmEdDO9An5fIwAI3D+EAh93xj787/776WP/+vPyq6XB5HPEjgRNr2WGh3xvidLcTUOpcmvPfAm5/CRiw7/xxcLO77r9f98/mbFV2YEGIGVIKCsZCfehxFgBLoDgec+/Oe//tzf/MP7ya2egMxbJL4ckZ+anSxHmhzVpTSmczgHj1765If//IPHvnLfG7sDAR4lI9C/CDCh9++955n3GAIH/+XTP3rkn//9J6uVSnEijmLJtmqr+QUXpjusc19Vfcf1LAX2fIRou3PoyCV7P/rxn595bv+VPQYZT4cR6CkE2OXeU7eTJ9MrCJwYG9v8la985Q379u27PPADc3TD6IlXvvKVX7z2uuse7TTH6ouHLv7WT/3iL8R1p0DJbSD1vJzP1UYzVk11vVy8ImBkKZXlpJZEaRyGhk4OelA8+ezLSLA7+KnP/kgSR7+oqNqicfgVXYZ3YgQYgbOCABP6WYGVT8oIrA2BMAy1f/nkJ9/14+/+sXcfPHjwwlK5NJjEiWplMs6n/u1TP/B7/+9D//juH/+x38/n8/X2Kxz+xL//OOLdF+M9IltZkVK1Uq3mpHyhNmoYjhIEdrLMkCj3PdTUqBb6itokcjoEx6VJGJpj93/ztdtef+dNeOuba5sdH8UIMAJnEwEm9LOJLp+bEVgFAo7jWH/2p3/2/o/8xV/87OTk5Ma2fDbJqdfz+55//so/+9M//QVd18NqtfrHLVJ3x05uefBH3vtmOU5nTWdidbjbQeqVnFIoVocNQ5aDILOYaU22OGXAe9jLDXyT3O2tfSn+Tlny1QMHL5v45iOvZEJfxU3lXRmBc4jAakJs53BYfClGoP8QuOuuu976x3/0R79EZN4wjFuVZrNfk1qtVvyTP/7jX3zyiSdvaCE0/o1vvc6fmtmYIA2uHbUWqZdqldyMKrmyoSOBffEtlZWkliZJEoRmh71SLUrMmWeeu94vlwv9d3d4xozA+keACX393yMeYR8g8Pzzz1/2yX/6xA8j9j1IZA7rnH43he5L69V8LymXy8N33/3FN5dmZgYImsmHHr4zgpQrpGEWICVIPUm16UqpUEJtuaJrfkdSR+wc2e1BLfA0XFjEzecvDmh9UT82trN2dOyCPrglPEVGoOsQYELvulvGA+5FBB5/7LEbH3rowVeQm71RbbaEJY19HvnWt19erlaLYblSqDz73EtUkHaT+Bcl9alyqThjalUVlnr7Ts2Lpa6qBq7rZcjd3mmLQej+TGnEPTmxpRfvAc+JEeh2BJjQu/0O8vi7HoF6vW498/TT10ZR1HJ1L0roLbLf9/y+C+Ecl519L14MUh+CSb8kDiJTLk70KVj1ZZC6put++wExQuaVGEVqSbJkXk3ketnIcfJdDzpPgBHoQQQ4Ka4HbypPqbsQoLj41PT0KI0aJWctd/tikxBkX3fq1u/+4R/+0hsl01bqTm4ldWSC1EHY49PTg9LQUKmQpArK0HS8ncaqFjiRS9nti2rDCunYKNKTIOgUY+8u0Hm0jEAPIsCE3oM3lafUXQiQ1Y3StNV4y1KwfvZfPvGJH9qU2yjfIBkm5aSnS6u6ClBapD4xM1OUBwaqeTcpxLi2oym+V/Vyalt2e0cURam6slwFXHfdAB4tI9AjCKzmj0iPTJmnwQisLwSy2WytWCyUBOE2kuGW3BDjTiPsAbNc3WZlA9E9bQVk3jqpsObjWJ8ol3N1Q6srqhqXfU9FO1Wy1jvzOK5JqwHVND3FMt3lxsifMwKMwLlHYNk/Hud+SHxFRqC/EEA9ee2aq695RFXUoDnzxTzojfcRL//Jn37fb37413/jAxts28E7K/49bqXM04lIDW6sXjOrowNHIkP19YxVl3UkzDXbsonC9NYrQVEbrHc9ny+ZAwNT/XWHeLaMQHcgsOI/BN0xHR4lI9CdCLz0xhsevPXWl3+VZFsVpbNLmyxp+vw73vTGT/2XH/uxP7hx6/YDWpIiwX3xCLogcPoYJerw01Mb1RQniXTbrhYHhmY25wpuFASGEidazjRDS1XSjKmHucHidH7jyPHc8MCEaRqeAaU6GVnw+a2bD+Z2bHuhO1HmUTMCvY0Ax9B7+/7y7LoEgYsvueS5e7549x/sP3DgkuPHju0Cqc+RX6c4O2WgX3311Q9/4AMf+LUNGzZMPPv7f/YyyjonI7q9m1orRb7B4yByLAJQqiaZphlYmlHPqmqie2FW88NsoqnBTOgpSbVWoOaqVIMunADV2mBrmQCNOVw+TbCgSIYuvfDp3NZNR7oEVh4mI9BXCLCF3le3mye7nhF47etf97n/93sf+tHLLrvsCVjTKsrSZl/kVr/99tvv/v0/+PAPX3bllU/RPOqHj16c+F6mXX2G3o9B4mSJy4bh5gaK0xuHhktbssV0c6KqQ15YtGrukBJFFsXePUNz6o5jw51Ohrww5ptEPntaLApkJU00c3Tk+ODVV3xrPWPIY2ME+hkBttD7+e7z3NcdAq94xSu+OjU19eov3XvvG77+ta+/bnpqeiN1Wnvd61/3mVfcccfdLf32sFbPPviu91yioQ9LCJVYEn2FmZ6YcI1buhHZmp6YSarrQZSXPU+HdU+WukpW+KyDXlGjchzKcLfr9P5iG1n/Kmz3geuvenD0FS/7wroDjQfECDACAgEmdH4QGIF1hsDw8PA0hvQPzZcY3Yf/8A/mjLJ28PBlXqU6EICpTTtbB4HHtqYlBvTW1TDKyb4nGrXMWtzKAmdcGhqa6zg1i+LyS2ThpbQKMC/atWfH29/yl3omwxnu6+x54eEwAi0EmND5WWAE1hkCcRxD/yURDdDQWQ1aLpEwnzXtVB9y/+iJXdkwyQwXB+tWCgM6DG3Zj9Q5JL7UvFBLXlXSMPb9orYIobdi8+pgcXz3u77vwxtedsNX1hlUPBxGgBFoQ4AJnR8HRmCdIaCqs7zccKO1EfnsUPfuu3HQ9QekIMy0VF5WohbXPD6NLaNec+vWYkIyLTLXioWpi3/8Xb+96/ve8pF1BhMPhxFgBOYhwElx/EgwAusEAdJ0n5yYGD565MhWtFAdRn90o9PQYMEr3r4XryYyR8OUVfB462zomqamITqx2J0i50TmlO1ujg4fv/zn3vNfL/zRH/i9dQIRD4MRYASWQIAtdH48GIHzjACI2/zmQw/d+nM/8zM/8si3H3lFpVoZKBSLM7ffftsXH3v00b+48qqrHjcMY1ZuNRo7uSM4fnKnKitIhhOu+VVtqWm4VT/QlFRSOvR1EyVw+vDgiUvf/5O/svNt3/WxVZ2cd2YEGIHzhgAT+nmDni/MCEjS+Pj46O/8n9/5mb/4sz/7ReAx+/tIDVs+8U///BN3333PWz74wV//mSAIPtEide+Fg5endScfp4LjhTz7SrHEjqlrqK43VS52crcTmVO52/a3vvkjTOYrRZX3YwTWBwLscl8f94FH0YcIlEqlwh98+MO/9JG/+ItfJjInMRnqtkYkTV8VTQtnZmY2/tZv/MZvP/jAg69qQTSz/8Ur/Vqt0LSuV0zm4ngIyZTDSKGua50gJ534/GUXPXHBj/yn3+/DW8JTZgS6GgEm9K6+fTz4bkUgDEPl7i984c1/89d//dPIaAeXoxocQjLN5iwkzabEaFUKtk7GToxt//Sn/u2dZM3TfI/t3XdlxXUN6smyOjaXUt8wHLdWtzuUqokE+TSTqW553av+1RoaZL32bn24eNx9iwATet/eep74+UTg+NGjO//1X//1XWibqrfIfInxKPff/407jhw7tjOtu1Z5/4ErpkJfiXV9VTXh0GKPy2mYplGIdqsLNmq+IpuDxcmhG6//2vnEhq/NCDACa0OACX1tuPFRjMBpIfDiwYMXPfroo7fAEpfIQl/sZELDHfscP3Z8c7VaLQST00Oy52drnmdWVNlHJ5dGkfoyG+0TGrrjuO6iQjI0CC1nV3O7dz633Pn4c0aAEVh/CHBS3Pq7JzyiPkDg0KHDuyGiXmhOdSlOFp+R9suTT++5Zut0ZUNcr+chBiNPood5TrMCPQlU2mUp2BCYTx1FCiLfz0H5raMyHPncFcPw1YxFLVl5YwQYgS5DgC30LrthPNzuR4Di56g5z63Esm7OFr1aksyfffSj7/v8x//5J6NavUC9yetOza5qkgcrPV5uRZBaplPxHFOUqi0BIbTjsD4IOta/dz/yPANGoLcRYELv7fvLs1uHCEDONbHtzKqsYHRQU0tjJ7a5h45cknh+htqiKkmqTTh1I9Q0H9NclKdFqZoKR70DIZklmrAQVLHnZdzxya3rEDYeEiPACCyDABM6PyKMwHlAYPv27QczdqbassCXGgIlqw1t2HjstTfd8sAGSVXiMDJE8TnIGaI0dllJfbzdMZZOlnuiaUEl9FUFi4JO16F9UCIXxJrm1au1fPnZfdeeB0j4kowAI3CaCDChnyaAfDgjsBYELrzoouduvOnm+8l13mhFvnATNen4PJu1qz/9sz/zv3/1Pe/9PxvzhSpq1UTjFvoHDK1MOnUzNHWXJFvnn4X2oZ7niNdn57ROpQUBnYRK3yAkQxnzviKHzvTM6IlvPfLKtcyJj2EEGIHziwAT+vnFn6/epwjs2rXrxe/7T+/466GhoXEykAVBg8BbL8G1qEVXkcX+vW9/+99+/9ve9nHpxOQOIlxw8GxbVFoQoAeqPZMmodzBSk9VNazFoSSjPK49zt5o36YGkmU4gaoGDlztUd3Ny3FsTD7+1C3O+OTGPr01PG1GoGsRYELv2lvHA+92BO688867/stP//Rvbt227SCIXHi+QeP0O0ledjmTydTf+ta3/v17fuqnfqdQKFRP7nnmlrhWLyaww9vJWWS812qZAP3NaSHQwkXBXnjPqbtuRqFAetMqh6WepGSV4+UnieShHE6OIoOS32mp4I6d3H7i/ode1+348vgZgX5DgMvW+u2O83zXDQL5fL6GjPc/2Lx185HP/Pun33ngwIsXV8rlAd3Qg+3bth+67RW33/OOd7zjYxs2bpxwp2eGH3jfL++i3uVBo8Ga4PRWLN0HaU9l7ZnNihrJSayLPRQ5rkpJHAWBaJMqVu+65qeIl+McaeR6GQnx+DbVONS8S1JUrg6N3ffgG5Io+nvE1tfQzW3dQMwDYQT6CgEm9L663TzZ9YYAMt6JMP8NHdbufmbPM9dMTU2NWpbhXXTxJc/t3Lnz4Pt++qfFkGsHD1/sT89sSEDh7cZ2az4QgpenazV7MF90LDcuUPvTyNSdOkrVRBMWkHuq634kyzEWEWrs+2idSq1YFiCSks576dnnr6u8cPAKfPr0esOMx8MIMAKdEWBC5yeDEVgHCBTyhRqG8cBiQ6nsf/EKf7o0Ijq3tMzz5s6tnyM/sKazsbMFcXPEwvU6iby67oBqmm6iKWEQxUqEkjci7EZeXecNPdYl9+TEVrLSmdDXwcPBQ2AEVogAx9BXCBTvxgicTwTKBw5eHpQrQ1CC7WhXC5U3WOLT9Zrtairc6mpQQ56cZJluqCqhH4R66Ho56Mwu50MXMnJJvV6c+OYjrwxQxnY+583XZgQYgZUjwIS+cqx4T0bgvCAQOW6mdvDIRWqS6IvpxzQy6hD/hpU+EQdxfag4Vo8i2Y9i2XOcbOIHmZUq01H5Gy0bSvsOXDn1xJ6bz8uk+aKMACOwagTY5b5qyPgARuD0EYAgTOb+++6786knn3rJ5NTkBl03ggt3X/D8Ha9+5ReppK39CvWjx3eTC5wC3shCp/rzWW5uJ+kAArGGaXm6psWOlEaogcM7aO6SiMz5VW1QppP8ianN441s93tXdTDvzAgwAucFASb08wI7X7SfEXj66aev/m+//Ms/+9BD33zFkcOHd8MiRrmaJOVzufJdd33ue790770fuvM1r/lCC6MS3O2NhDiKoDe2WSIH8aIhampYpjdsZsIB9GLNJbI9Wa1JehhkdMv0E9MIwijWkO1uSHGiLd3GRZyblG5SOQytiSeevrl+YmJzdtPoWD/fM547I9ANCDChd8Nd4jH2DAKwyK/75V/65T969NvfvlUotzVK0MRWrVWL9993/2vHx8c33X///d5tt932VfH+Cwcv9SanN7Tqz1v1aiFZ5BnLHTbMaEDRlJyk6EoUmXIaykrWrKMkzURuu6qpaoQk+ESHfnwcx0pI0rGiXG1xAXghGYuhVZFdP95QjvvHnrkJPBFGoEcRWLUrrkdx4GkxAmcdgYmJidEPfehD//ORhx++tSnTesrkblyd/OnJc88/f/XH/+7vfvz48eNbBKEfOHSZGoaNGDiq1qIEVAup15GBwcqOTC7equhGMU4zWhhlSF0OerGpjA5s2IuarWspLG0JMXQ1jCyIwGsZwwzMfK6smKZD+W+LtHWB7mwqRdPlDScf/NadtBA46wDxBRgBRuC0EOBf0tOCjw9mBFaGgOd5xpfv/dIbv3zvvW9qmeVEvvOObvRCg9V+39e+/tqnn3nmmnhqpuCMndhB4i8hiFyBVOvwwEBlh52Nt8iaWYgSWw9jK00SlcrNaBMa7wp4vbk1fQCyRGpwIHcUsFkavpqqItn5XFWDVnwKiVmhKtO2Cbd7mqjUrKWy/wDVpPPGCDAC6xgBdrmv45vDQ+sdBGZmZobv+txd3xuBVEmvvQOZi8m23i+VSvbBI4d3VYrDU/XxyU0oPfM3DIzUCqlk2LFkqYiJy0mkCiO8E0wid27uNkvXVIeOlxTLiaLG0KRRYh2ueyTRJahvM2Moy1EJHG2UHFc9fPSi8W8+dgd+3NM7d4Rnwgj0HgJM6L13T3lG6xABIvQnnnj8hmbMfLkKMlJrjw8dPbbjpJZVirDCR4yMlEeyG2LkBnzhixO5mDuouZMG3Fzrm1YPihTFBtE2kTo6wcQaEujijOlFVLfuodQNCwO55gxMPvr4bZHr/qWWyQTrEF4eEiPACAABJnR+DBiBc4BADQ1QEEPftJJLEdtHaWJ87e57vuuGTS/UrvDCwQBNTpUgFH1WO1rk863xiGrWl99m3fFNqz2NYw3uevyjh3pOryGOngY1J1/Zf/CymedeuBZn/PbyZ+U9GAFG4HwgwIR+PlDna/YdAmSZL+Zmnw8GWddBEpsTBw5e4pdTqLZaho/3VkLkdC7qsqaAmFcLsiD3JFXR3EVNUd4GDfhE0/VANvUgnJnZgGz7y5nQV4sq788InDsEOCnu3GHNV+pjBIqFYgld044TBIihL9vBLMZ+W81MvEEzUljJq/w9xRWC0FzO7b7Y7RCDI3c8rPbE9zMqeqSrpcqG+nP7ruvjW8hTZwTWPQKr/EOx7ufDA2QE1iUCA0OD0zfeeOMDlK2+FKFTwhzVp7/0ppvue/87v//vtg2PTIeN7PVlFwFzJo7mLM3SuDXj0Wz6QvJ0yJ1LtMoLL15eGzsBxTreGAFGYD0iwIS+Hu8Kj6nnENi0adOJt771bX8Lz3uCDWFqhYzwORvVjpNq3PDIyNgvvP/9v3n7Fdc8EsyUh+nN1W6qBlc5xGRWexztTzF8elGYIKJSNl3zFE0NzZnqpvTE+M61nJOPYQQYgbOPABP62ceYr8AICARefuvLv/rTP/PTv05WOpE6WeMiu7z5olpyQ9P8977vfb/9hjtffbfz/P6bzDixmiS7XGZ8G8ogYU2NZNjVK4W+ReLkCCASx8BCK5etjgwOzWzLFvzNhi1lJ2a2hwePXrrSc/J+jAAjcG4RWHXizLkdHl+NEegdBArFQhX15b83PDx88vc+9KFfL5fKw1BvbUxQkaXNW7Yc+sAHPvDr3/PW7/14MDax1T9+cifVmQuBl2XK0OajRBY1zola88Xxa60QaARUby6rSmSatpc1zTAjyYoRxabiBbYw2OF2j6q1wfA4W+i980TyTHoNASb0XrujPJ91jcDAwEDZ9/2/vPPOO7/4wAMPvGLPU3teQhb7Vddc9dhtt93+5Z07dx6SfhByrw8+fFF4cmLbLOGvclayCuu8Q/LdfBLHPolhZdysaYRZWZWNONFlLyggbU9plbS1PP42YgL+kWMXpZ6vypa5Yut/lUPn3RkBRmCNCDChrxE4PowRWCsCpmlGOPYAvVzX/Xt8TTOZzByCDMdO7o6mpjc1+p6t/kok/Qq1NyHm2pHETdPLmGaQUzTJilMdWfE5CcpzdCVStWldsu0rZdvLcaU6FJQqG7GbyNjnjRFgBNYPAkzo6+de8Ej6BAE0OhEcq6oqETmR+4LNP3T0UrXuoedKo53paqFpJ3FKbkN2HHqlm14OJJ7XzVhHVzY1CPNy2mi60rjM0hv0aqW4VB6JJ6eoaQwT+nKA8eeMwDlGgJPizjHgfDlGgIicXoREi9zbUQkmp0eDI8cv1FZSsL4YnAlF5cHSqhrmi4XSluGRmW12PtoYy3am7g5qfpgFi9MgyBpflszpMhTuj0qV4XASngPeGAFGYN0hwBb6urslPKBeQ4BImwg8DEPt5MmTG2u1Wr5YhNDMhg3jeH9BaVmE0rDo5OS2GE5uinELkZdVbMLNnsbq4MjIRDFMclK1PpD6nlhBrKmOrXltkZ5Xd/NxpTa4iuHwrowAI3COEGBCP0dA82X6FwHHcbL/8PG/f+t3vvGN733+ueevCILAsG27duutt371gW888CGUs93fjo5/7MSu4MT4dpHejrj1isznthMIQo8SbXxycrii6umQZVUyUZxRgsik860hJC/OLhYEjpuLq7WB/r2bPHNGYP0iwIS+fu8Nj6wHEBgbG9v8X37qvX987z33vAWx7Flurtfrg3fffff3PProoy/7h49//L99/w/8wMda0w2PndgdTU5vJrN8LfFzcZ44Qrc0X6/FjjqlVOKcnXWGbbueTSTT8MNMij7nqyF2GodYKARBJp4pjfbAreEpMAI9h8CqXHk9N3ueECNwFhFAd7WRX/6FX/hzkPn3kHiMkHVt2+i9yampTX/8h3/0y1+699430EdRrZ4LXjx8ma2oa7ak6TwJtNzhX8dZZAqUq3W4+V+cGB/aVytpR9W05tpWCQpwPhq5LGycvgQmpqJKcbk6dBZh41MzAozAGhFgQl8jcHwYI7AUAp7nmf/6L//yg/fe+6XvApEjjB5r87utkVoc4uPSwYMHL/nMv//7O4VhPTk1ivrz7ZRRvraCtcaowOOppmuh6PImfpYlnQYShNZkuVR8fmoi92Ic+DO2PhOZRp0+ghW+rNFOfzCSupOPXdfkJ4ARYATWFwLscl9f94NH0yMITE9PD//NX//1fyFCJT5dYlqCb5995tmrHn/yyWuj6ZLmjJ3cri3PrUsipShqoqFMTQp8o7Vji63JasdCQqMe7ZVqVbIyljNgZ8sDKKSzoigjRbHopd4p+13E0T0vGztuHt+iqytvjAAjsF4QYEJfL3eCx9FTCDzx+OM3Hj50+EJBjMtlqYP0JyYnh46dOLF1NJC1F8eObdqkyL4Nj3mCLmerBaZhkUtUGkc17kI2tt30bn0P4Rn0TpckxNrtE65nT2haUMhm3QHLcHJJaqghkugaYxeJeXSceHlBJnX9LL6dXO3YeH9GgBE4ewiwy/3sYctn7lME4G7X9+/bfxlNv1NXtU6wTJdKg08/+tjNE3uevdUrVwcORV5cNfQa1ZGvxBW+4JxQiRPyr0tsLYKmXVDzTkXxxky5XHxxerLwQuAk47pS9Sy9hkYvAZq+JtRTRuTdxxEcCAgX8MYIMALrCoFVr/7X1eh5MIzAOkQAsXGlXC6ttFZbuOMd3yt8/CMfeb+c2xhdCuaswmI+GCXK5lyxNqQoGUizmnDcrzhRjjRpSP512aB4E7/WfoLYsQ7x6k7uWN2RDNPwina2XswYUiaMLWi9Z7SB4qSay5XWIfQ8JEagrxFgQu/r28+TPxsIkFU+MDA4vZpzIwlONoPEygexaH9OnVGgRGMdLU+rfr5Q32BqiQZChTp7q2nKkqcnWkYG+2qGIPZtEbtIosPPyJa3pvwZaxLWua3p8eadO5+/9FW3fUobLK5qfqseCB/ACDACq0aACX3VkPEBjMDSCFiWFd179z1PUZkaWesrwWvLli2HX7Zh21TxeOmSKG14yomO1TjWT5ZmCiD16ibDjO0QSWtJoi1reaMb6oouvPjgKCdOnEPPZqrG8OD4wFWXP7zjnW/908GX3fi1lcyJ92EEGIFzi8Dql/Dndnx8NUagKxFADfroD7zjnV98+uk915N86yKJcSJ/bXh09MT/+F+/+nMvCxTjmx/8nY9EKHFrGsuzKnHUr9zMZOqb7VxUINW3KDaWknHVkOA2psnVsanJIWS1r9hV3wRbJNJptl3NX3zBnq13vuIz295w578Ud+/Y35U3gwfNCPQJAqe5iO8TlHiajMAqEUDf8+n3vu+//HYRX3Eo/Z7NJom3fS/Dmnff+f3f/5G3fud3/tvU/hdeoqOcrHkpsdhuHUSlZoHrZo9Uy+aUKjuxpnuULLfoijxBdnqE2vdVjruVzZ7duW3fJT/+rv9zx199+A1XvudHf5vJfJVA8u6MwHlAgF3u5wF0vmTvI6DrehwGwb8eO35828c++tH3Hz92bIco/hI2uShlk4aGhia++y3f/U/vec9PfsgdG980te/FK0QvVcomT8UiYHYTcXWqRQsCxNVnNC9frG0wtMSMEijCdZBxhas/TWKqQV+dFw7ehOGrr/j2NT/3nv++6dabvyS99929f7N4hoxAjyDAhN4jN5Knsf4Q0A2DguEf+uIXvvg8mrP82OHDR3Z7npvRNT3ctHnzsTe/+bs+8fZ3vONvTPQoP/HAt691xsZ2kkLcYltL8U1NUm0CcfWwkK9tMqzIDuMMSs70eUfKaRjNisqsAB1E3eW0eMUlj13/Kx94/+j1V39zBcfwLowAI7COEGBCX0c3g4fSmwi8/g2v/yxm9tmnn3766snJyQ35XK56yaWX7snlcs4P/tAPiUl70HR3T4xvo+/B6Yt2WGsrL1MqlWohsOPapoztFGTZUqLIbMXVKQauqAr9uNJ6cdkcHjpx5U/9519nMu/N55Bn1fsIMKH3/j3mGa4TBK688sqnFhtK7PmZxA8yq/GPU1zdd5zckSjyNubzzpCso7QttFB8Ljqu6CT96jlE6B1zZYTFr0DDXVFjFd78ba+69XPbX/eqT68TuHgYjAAjsEoEOClulYDx7ozA2UDAyGZrWsaqrYbQW3F1CXH1Y6WZ/PE0DHzTqEmqaLQiKXDtz09wFxa+qkSKrvsQjXFNJOUhBhDlR4YnLnjbmz96NubG52QEGIFzgwAT+rnBma/CCCyJgL1j6/7CRRc8oyv4lYS1vFK4Gq1f0CIVcXV0USscCbzUgWQsZOIiTaOWreTBJ3YHiWu6rxmGh5i9ZxlGYGpIqsNx0Gy3s9u2HCxcceljK70u78cIMALrDwEm9PV3T3hEfYhAYfeuvVtf98pPpYbuqnCEQzGdiHhFxN7aSYf/vFavFQ7Xq/qUJjuKnalRxzUN8q2wxD3L1EMLJK6jhl32vJzs+dk4DM1U1fziFZc+qlsWd0/rw2ePp9w7CHAMvXfuJc+kixGAGptbP37i773J6Y2HPvnpd+uenwsEpadUw5ZCs404fskFONW6qSoEYlGyNhGHcTEK5QwIXMIbUhQZKTLhyf5vLQCaCXSpYup+dtf257sYPh46I8AIAAEmdH4MGIF1gkB2y6aj7tTMb9hbNx0a/+oDb5x69rnrklJl1EAFeggNGSJgonjKYKcYuSBkvKHAaa5oWqgiq50assDCl1GvnqmePJlT4kRvicXQ7vPV5dDvRUE8Pchu3/rCOoGBh8EIMAJrRIAJfY3A8WGMwNlAIDM8SD3Gf7/0wsG7Ss8+d33puf3XlJ/dd+3MM89dH01Ob8FnRO4xEttiTdUi9DyPFVjuIPKUGrdIVHsOa3y+NN1iY6WVgaxrQXbnDrbQz8YN5XMyAucQASb0cwg2X4oRWCkCAxfuIoKl1z9XDx25oPTcC1ePf+uRO47f+/W3pGMndhhIaoNyHDniVXKlI9N91hJv73O+3PVoX2t4aDyzecPR5fblzxkBRmB9I8CEvr7vD4+OEZDyO7cfAAwHwrr7ha133Pr5fX/y0f9ZenLPLUlMkq8NDZr27Ll2Fzt91iqFW7APJGZJhTazbcsBFWp1DDUjwAh0NwJM6N19/3j0fYQAEucoC/2emSefnn7mV3/nL4K9+15CeXNJFEmy2uh+LqRjoSwDH/wsMmjhKr5Hn3bxdXYfTZFSTYtymzce6SMYeaqMQM8iwITes7eWJ9arCAxec+Ujz/zdJz5y1+9++DfCMMjlBnNKFAYpktnBzxp4W1HCMIqQzk4Z7XjPQJ6cJEVhFNM7qqojj06V/cCPLV0Jd+7YyvHzXn1YeF59hQATel/dbp5sLyBQKZcLv/Y//udNn548bGWz2fSyzVvTqfFxJQjCtFDMyPl8QRobG1Mo3w3WeToyOoBouyxNYB+Uqku5nC3nC3l57PiYYsiBkRw+cHUv4MJzYAT6HQEWlun3J4Dn33UI7N2796qvf+Mbr5z2nEwp9DUHSe++IimOlKg+KDvUVdmVUtWVG+8FmiLTy8F79PJoHw1N1fFZOU2M+x59+FVTU1Mbug4IHjAjwAjMQYAJnR8IRqDLEJiemh5J4lg1ZEVCz1QFTV1I+jXV4F8nlxu+lzTE0nV8L96jnxFGp/6qje8T8T79rCOdDg1esrVqtdhlMPBwGQFGYB4C7HLnR4IR6DIEIAqLknO40ykBDq70IIrSGN83ytUaQvDzXxRDJ0Ua2to/a/6MUvbWp10GBg+XEWAEZhFgC50fBkagyxAAkZMOrKBnRVUlxMkTwzTrqEufLwTXcWZCJR4bxdUbmwwtmogMet4YAUagixFgC72Lbx4PvT8RSJJYJXl3QeggZSS0KxCXaZWkLwCF6Ht+W9b2nxsWP1vo/fk08ax7CQG20HvpbvJc+gKBGPHzFgFTv/MwDBEyT/2V9mcT+81a5w3IEJPnxX1fPD08yV5GgAm9l+8uz60nEUAl2vyYt1ypVkwVDVoW66U+30JvB4YWB/Da89+CnnxaeFL9hAD/EvfT3ea59gQCcRypYiLC0Ea/NLxcz1fTJIkaxL10G/VWDL0dDIjSNM7JGyPACHQtAkzoXXvreOD9igCRb8Pl3kxuAxBOvW6habqHoDo+mG+Pn4qit3Te2/cQkrFsoffr48Tz7iEEmNB76GbyVPoDAVjiwuUuaBrWuShDQ+a74ziQj8FH82Foz4qb7dxyitLpXGyh98ezw7PsbQSY0Hv7/vLsehCBOTF0InQqSqd69DBMVEWlrmlzOH0uwTcZnZYDbW3ZSKimB6HiKTECfYUAE3pf3W6ebC8gINqmNsvMWrXk9LVULmXB5eH8OXZKiCO3fMM1T4I0XLbWC88Fz4ERYELnZ4AR6DIE4jSeFZYRLvemkx1Er5CV3snj3v7ewpQ5nAOLhC6DgYfLCDAC8xBgQudHghHoMgTaE9iE9d0kdKi9aeVKJQOxmTmcTfvMsdLn1aGLGHrKZWtd9hjwcBmBBQgwofNDwQh0GQKNpLgGR88mxTW/dz1PBbHP5W/hWF+4zbHuOcu9y54CHi4jsBABJnR+KhiBLkOgoRSXNEi7pfh2KjFOieIoaSdrsVvbHNvJXVaURiR9YW58l6HCw2UEGAGWe+RngBHoMgTIQhdt1ZpWecvlLqaB8rUwTiLx3jx519lpUmc2vBRFSbCPX6pWw3q9bnQZDDxcRoARmIcAEzo/EoxAlyFAZWutIbdb4k2Gl6IwhMYMuquid0uT5OfMsMH1cqobRuXo2JiMBYIVxTF3W+uy54CHywjMR4Bd7vxMMAJdhkCrOUsr2U240Jv90Mkoh6a7q1tWnUi7NbWm+Iz4UVHkxPP98NCRI+b09HRRVUk1lpPiuuwx4OEyAgsQYELnh4IR6DIEED+fbc7SqkNvMbcsK1K1VrNRvrYw011Y5brrBUFlcmZa931fZMSLLHdkyHcZDDxcRoARmIcAEzo/EoxAlyEw2z6VzPG2OnSaBlntyHKnfuk+YuRE1q0M91TTter0TNk7evz4ABTlsBY4lSrHFnqXPQQ8XEagAwJM6PxYMAJdhsCs9Gsj742UZebUpZHFXatWDQ3tVMntDtpOwjj2jo2dUMcnxgdVZLa3b6QUx4TeZQ8BD5cR6IAAu9n4sWAEugwBstAbQ250XRHirW2V5rDMpbrrqsUoSnVd913fj2fK5WytXpc0lYz3pje+zUInUZoug4GHywgwAuxy52eAEehuBJJmDL1B583mLG2V5uRIR3xct3O5k1Olkj8+OZmBtT633rypTEMWPH2btmXOdzc6PHpGoH8RYJd7/957nnmXIhC3NWeZ5fFmOLxpeycjQ0MeLHkTLVV1irTPcbG3PPRtFvopq79LQeFhMwKMgMRuNn4IGIEuQ2A2KY4s9DZSptpzxMfTwYGBSEvTTOB5xR3btk35YUjd2cxT02zQPmzzRrkbYu5Jwu1Tu+wx4OEyAgsQYAudHwpGoMsQoN7lrfapNHQUkdOXeKA4UNu8caNvZzImhGIMxMWlOAwHR4aH4wXark0luYbbHgdzt7Uuewp4uIzAQgSY0PmpYAS6DIEE8q7twq5IgotGR0drG0ZHZF3TMq1SNbLeYwjGaIpiDw8NhUiQC8QCoPlqeeIbFjoLy3TZY8DDZQTYQudngBHodgSIfImEQcyJqioxyNofLBRMiMPkQeBze6fCEsf+UiGfl7ds3lxTVDVsab+3S70zoXf7U8HjZwRaWs+MBCPACHQNAnC5K3jJxWLR2TA8Eli6kYV+u0XE3ZCDbROJI+EZvBeGoZ4xDHvLpk1VBN4bzVvacuUoc75rAOCBMgKMQEcEOCmOHwxGoMsQgFZ7lM/lEDMvKqZhUCb7vH7nc5LamyQvSN3K2XaaDA/X4bYvyNB9FS54svbZ5d5lTwEPlxFYiACvyvmpYAS6DIGBYiEaHRmhVmq2iKcv08u8Za9jXyL1DNzzWiaTiaAJL3TcafqtpDgk0s1dDXQZNjxcRqCfEWBC7+e7z3PvSgQQJLeg+JbIqupjApTiLli59ZrTH705Q+Fgh0FObnmQeraImHohX3DpeNGcZVZ9rish4UEzAowAEGCXOz8GjECXIQApVw215eQqjyiZDYwsG6bp0e8zMt5VkLcObzoR/Ww/9Fa9ejPznSRgtY2jI65Tr9eh805lcLy477LngIfLCMxHgH+J+ZlgBLoMgSSONM91LcTOswE02MMoUkDKaUyec7xA8olpZ6qItfsg+rqsEOef8su35GLTRMrCdZ+A3NMwCoU+PCRi57Rd7TJoeLiMQF8jwITe17efJ9+NCJA1Ta1RydrGVxJjV0DueSJ4aLgbYHTJ83wVZE/++AiETyQdgeA907JqOCQSrnYJVnma5keHhhLTNMNuxILHzAgwAqcQYJc7Pw2MQJchEKORCrnZm61RRXeVNgOcRGck13VzRPiIlxuWaUqw4On7GHF3CRZ7gOOhQaP56JEe65quFAt5ITrDGyPACHQvAkzo3XvveOR9ikBbiVmr7KwjEkToxPoifp5KKmm6QxJWUlWVrHYFrzgII6jEpXIYhEafwsnTZgR6BgF2uffMreSJ9AsCrfap7fM9pfpG5D03DN76qVWPBlEaWsgrAerSyU0fY38/CKx+wY/nyQj0KgJM6L16Z3lePYsALGrxeysImpTg5qi+LZLTJgRhG5+J70Q/dGHB03lCxNx7Fi+eGCPQLwgwoffLneZ59gwCTZe7oOgFKjDtAu1zZjxbpT77Lu2KLPja1PS0VqvVMj0DEE+EEehTBJjQ+/TG87S7F4G5NeMLibp9Zp1k35oJdKlhGE6tXgvrjqNBIY5j6N37SPDIGQGBABM6PwiMQJch0OqMJpLdRL5b55h5y70+72PhZiefe7VaTWemp3OKrIg2q10GAw+XEWAE5iHAWe78SDACXYYANNjnku8yWu6nptcgfpSrBahRj8vlcgYa7hSFD7g5S5c9BDxcRqADArwq58eCEegyBFbT6rThcm8mw+ELyJzkYuuVSsUgVRrxIWm8c/vULnsKeLiMwEIEmND5qWAEugwBNElrZLk3E+DahWUWbZUGK16FBCyOqZ44eTKLY1Q6XrROFc1ZEiH9yhsjwAh0LwJM6N1773jkfYrAasmX7HMFCnGQd50Zn5iwSD1OLAja8ONua336MPG0ewoBJvSeup08mX5AoJUUR65yIuWl+qG32qZiN+/E+LgFSVirZdnT8bQJK52T4vrh0eE59jgCTOg9foN5er2FAKxrhZLiZvufk9t8zhQFxbeIWoTJ8U6AWnO9Vq/b1MylpSQ3x0LnGHpvPSg8m75EgLPc+/K286S7FQFY5yopxc0h8TlZ7vik+SGRuW4YVc/3qSwtT9Q+a803TPdZCz2OhBwsb4wAI9DFCLCF3sU3j4fefwgIQke71NmZtyvDEbG3/YyYeR1bUCqXsyIBrl36lZLb2+Ajt3v/ockzZgR6CwEm9N66nzybXkdgfry7aY3PIWdgABU434VA+/jJkwP4bJHf81NHoWELZ7n3+rPD8+t5BJjQe/4W8wR7CgGytJsJbI1oebMXeiuW3qw1R9Z6bWxsbAA/qh3btQhrvoGMKFtLmNB76jnhyfQlAkzofXnbedLdigBluMetBLYOjVgobh5gOz42VoCbvfH73UFJbn5jFwjHsYXerQ8Fj5sRaCLAhM6PAiPQTQgIl3tbDL05dkp2E8IxilyfmprKgPj1JafVTIoj6xxbahpG0E0w8FgZAUZgIQKc2cpPBSPQRQhQQlx7HXrTZd5QcVXVykypZIHUSf2t46xm1eXgqtdUNRwYGHCsjKVomsqL+y56DniojEAnBPiXmJ8LRqDLEJjtttb0phOZZzKZEixzzfM8c6npENFruh7ohu5blhWrqmr4np9zXS/bZTDwcBkBRmAeAkzo/EgwAl2EAJWtISY++3tLOjGWnSlPl0pSrVZrCsfMnVDLVodb3RseGpoZhFWuKqoOa9/CAiAjtOBZKa6LngIeKiPQGQF2ufOTwQh0EQIgYZleRMLkPscrmp6eUdDXnCxsZX4CHD5PdHRYA5mnhWLRD8IwH0WRNnTKJS/4HsIznBTXRc8BD5UR6IQAEzo/F4xANyFA1nkjkY3i5hF6mssg8/xszFx0UKNwuhrZtu0buuHja0ZWlIzjOCa551v7NqvWxBeuQ++mh4DHygh0RoBd7vxkMAJdhABc7qLdqQT9V5B0OYpjYndhreN9yLwnqWmZ/sjISAVKcbLjOkOwyjPtUxQMPk9VbjbRrouw4KEyAozAXASY0PmJYAS6CAGypMk8j9LUQSvUPIiYvGyJpijh8PBwKZfPe7DCdcTTh3zft4U1vkgdenPawuU+R062i/DgoTICjMApBNjlzk8DI9BFCKCveQJhGXd8fDxrWhaRcVIcKFbTOEkrtVqO6s9FktsiZWuzU6UYfNu82eXeRQ8BD5URWAQBttD50WAEuggBELY0OTWdgRUeDw0OVqn0LAzCPFqjDsRRJMictvmdVub/LPZqU5pjl3sXPQQ8VEZgEQTYQudHgxHoIgSQoa5mM5kQRA6jPMlS/hvc5bMzWKxl2gKZmXkWfML90LvoKeChMgKdEWALnZ8MRqCLEIDsKy3CDaHT3qgfF4lwIGz806bQvkDnfSHVz22fusCo7yJUeKiMACNACLCFzs8BI9BFCIC01YFCId40OuoZpplaSGXP2nZspklQK1csqmajffA1bnrelaZse9ssqTd6w+VO/4mN+6F30VPAQ2UEOiPAhM5PBiPQRQjANa6iNSrJu9poxpLC/S6D4Mk6T7OGGQwODqZhGNj4WkNsXXdcV9N0jUrdNEVVkBwvadRyFf83ZN2bfI5z0nmRc6cmXQQHD5URYATaEGBC58eBEegiBCh5jQgZ5AsfO7gX3ByGoYGf6SWRaW5ls6nvukZimGqxWHSyuSx6r2gyytqqTt3JwRoP0b8lIylyiuQ6SomnvwPw3CcUgmNC76LngYfKCLQjwITOzwMj0EUIkOa6MKwb7nJZWNvCY55CayZpvOJE9v0gg9p0CUl0hmTbkp21El1RC0MDA5GqKkHGyphosRZUC4UUC4HEssyArHScKuoiOHiojAAjwBY6PwOMQHciALJWZ0vI2xLfWtrurVkR6Ysi9RbJU9vVKKJEOi0KUquQL0hQmlNt00x00wxzGRvnXdhnvTtR4lEzAv2JAGe59+d951l3KQJUXiakX8lKb74WTmVuRnvrJyJ4YcnDVd9UkJMpbh6HkRVGkc0d17r0oeBhMwJNBJjQ+VFgBLoIASLdFqHTsOfXlzfIe0HV+YIZNjLfsTdpwNP+suQTuXcRFDxURoARmIcA/wLzI8EIdBECjTanTQu96XJvuNsXn0Rnem9E30kXHt8FNccN0eiFW6h20bPAQ2UE5iPAhM7PBCPQRQiAu2Ght4vAtOh6pbZ5Y7KkQYNMd0nTNA+yscH4xHiBXe5d9CDwUBmBDggwofNjwQh0EQJpGp9yuZNZPs/8biXDtb/d0XgHo6PmPHR93x2fmLRR1kZJcl2EBA+VEWAE2ELnZ4AR6GIEUGFG2eizSXEL3OminG1uc5Y2Qdg5M3d8Lz558mSGZGQHBwZqsNiXD753MXY8dEag1xHgJXmv32GeX08hAOF2RQjAiLj5rHDrnDmKbPb2d4Qw3KmNwubotupNTc/onu9DLlaWTMOQUbOu9xRYPBlGoM8QYGGZPrvhPN3uRoAsdDLAm01Sm8Z3G1136oNOyezNaSvo6aIYaqVcrehYGEBYTk4zmUwAq9+MQib07n46ePT9jgATer8/ATz/rkJgNnGtjcrncHgrrj7PRKcfIfMqqbrmTM5MpyB2K5fPk5Wf5LLZwA+CbMwtVLvqWeDBMgLzEWCXOz8TjEAXIUBla40YeivVfQVhbyozB9Ebuu5WazV/YnwiT3Fzauiia1pkwN1OevCNbi28MQKMQLciwITerXeOx92fCCTpnCx3ss4XJsYRg899F+VpkchoHx/PAThaFAj8rEwmBJHrsPyp4QvXoffnU8Wz7hEEmNB75EbyNPoDAZJ+pd7li2WuCxTmZcWRq73uOMnxEyeysPBF4ltLjCaXy1P8XKefWcu9P54hnmXvIsCE3rv3lmfWgwgIl3tTKe7U9OZa462fiKRFKZos16ZmZrQgCKiPeoPz8ZmB/umU3Y4fsJtMjVz470EPPjM8pf5BgH+B++de80x7AIGGlvsppTgR9W7j89koOAnHwDLXDIPIXG63vpv7pLphgMPjTCL89qmM79nl3gPPCE+hfxFgQu/fe88z70IEyIo+JSxDjVU6bWB8kLlpmrWZ0kxcqVQzVK42u1FDlgbhU0270Yqns4XehQ8ED5kRaEOACZ0fB0agixA4leWOQXdISm/Wp8OdbvilSiWErGsjo32BRix03NEPvWW5J1gDpEi46yIoeKiMACMwDwH+BeZHghHoIgQSEpZpSr+KYc8TkiGOR3la5IdhbezkyTyInGLuc9i/aZ2nqqaStd9so4q9OIbeRU8CD5URWIgAEzo/FYxAVyFAGe4NLfdGL/O5m6KqkuP54bHjx3NwoWsydm1ouzdt96a7fWhouIrmLILQG5ssNVqz8sYIMALdigATerfeOR53XyLQaM7S5mxv8rGwukHmqCUPxicnTMpoF0Ix89zyjex2I7AsU3B562OKy7OF3pePFE+6hxBg6dceupk8ld5HoD0TvdUBXZSnUUa7ppWr9bqWxPGcJiuiLL2V2o6ds9msj7cMEpMhK79hn0soW+MYeu8/QTzDXkaALfRevrs8t55DoCUs02JhER1vdEtzxicnZUi7oh2qsiBdjpRoWtKu+VwugNSrRWTebqFz2VrPPS48oT5DgAm9z244T7e7EaCkuFbZmrCr8X/Gsry657mTU1NZEonpIAbbiLfDkkcpG4nJKOReb/VxaQXiuWytu58NHj0jwITOzwAj0EUIiDr0U0pxsqqoiRMEzvGxsQKmoQoX+nz7vJn4Rs1YsrbtRXFTTKa5I6x+InsZAjP896CLngUeKiMwHwH+BeZnghHoIgSoVpyS4sja1pAEF0aRNzY2lo2iSOix09apJXprirZtx9jXOpXdfmryHEPvogeBh8oIdECACZ0fC0agixAAoQuXO8m64quP7mmW53mzGu2dp9Iw2XVDD4W7fU6afPMIIf3KWu5d9CjwUBmBBQgwofNDwQh0EQJxEhOTK9BhryJuHoRRPMfB3rGjOXVPhxRcPpf34FY3O5vwbS3WuwgPHiojwAicQoDL1vhpYAS6CIEoFq51ZbpUStHLPINytTkcvpi2OyXKZe0sktvDAorV2gVpxCGIostREvHfgy56FniojMB8BNhC52eCEegiBDKmWUeteXRyYqIAZbeVETAo20ImvK5r5K5vpMK1Au3NOnQBQbukbBdhwkNlBBiBBgJM6PwkMAJdhEDddZVKrYpEd9JgX1ig1snlLlTkNE2Cu31OMhzVpbfXobP0axc9CDxURqADAitb4TN0jAAjsC4QKJXK+cDzjcZgFmF08qm3bdScBWnxWhQG+H3vGGVvKMXF3A99XdxkHgQjsEYE2EJfI3B8GCNwPhAQteJtcq3tNnrDlU48Py+SDkbXdH1Ogfr8WLuoQ+cs9/NxS/majMAZQ4AJ/YxBySdiBM4FAmii0op1k/pbewy8g9VO7vZcLufrIPQ5tecditVTas3KGyPACHQtAkzoXXvreOD9iECj21qr1QpZ5PNs7YVe+LRQKHiIl7e1Sl2IHJ0TJXFM6P34UPGcewYBJvSeuZU8kX5AoEXmi0fC50bJjYZ2u9BxbzVn6YgTtU9F07Z+wJDnyAj0KgL8C9yrd5bn1ZMICC33poU+p/yMZttqkdqcOZF4IZ93kb2+QOq1k/RrHEdsoffkU8OT6hcEmND75U7zPHsCAeqSRoQuHO0UQyeve4eZkTVOzVjsrB2LVqmLbNiPlgHUmEUmd35PgMSTYAT6FAEm9D698Tzt7kSg2f9cBNHBxQ1e7zAVssBJTEZRVCjLJa3E+MUnDV6H9c+E3p2PBY+aERAIMKHzg8AIdBECxULeQf/zELFxZK5rIVnhqqqGkICNMA0otjey5EDOUi6bDdI4tsiEX6oDm5g+J8V10VPAQ2UEOiPAwjL8ZDACXYQAWqZaG0dHE0VVHMu0TBB1MjwyUiaxGddzNNM0Fc/1kAdnBMhu97HlZJA9rHmtZck33fFi1qJvS3P+3D61ix4EHioj0AEBJnR+LBiBLkLAqTs5NDTPZ0wrIJKGZa7Wa7Vh4mZ0YPNM3ZBRT56Ojo6WSco1CMMIojIemroUQOwh6tGjIAgMHEezVskX36xnk1MuW+uiJ4GHyggsRIAJnZ8KRqCLEFA1NUQCWwJL3czadux7Xkw90snUDv3QiuJYIrIul8sb6GuMzUQwnbqy+WByRVXFl2w2G0ZRlIE3PiH3PY4TiXFdBAUPlRFgBOYhwITOjwQj0EUIKJrmgZQjuNIzMM9TxMl9kDxk2GNdTAM+eEqIa6s7V6MwFMlu9Xo95zhOjuLrsNZ1y7ZV13UDZLcnShDIvh9wUlwXPQs8VEZgPgKcFMfPBCPQRQh4nqeBvBsyrvC5Q9Y1HRkeqjWT4pozOdVFrX1qorsaudhhuVMuHX0PK92oVMpFnFMKRfMW3hgBRqBbEWBC79Y7x+PuSwRgZWeiKCY2pwR3Ce7zjGWYRrFYdMDWjfq0ec1ZOjRiOYUdSt9A7AmUYUHyCf896MuniifdKwjwL3Cv3EmeR18ggAz2TBiFRMIx1aGT+xzu92zOtpVCIV8XZWsrCIU3lOIgB9tYGeCVsLBMXzxBPMleRoAJvZfvLs+t5xBAvFurOy6y1GUqRRPUTaQeBkFusFiMUcoWLJR1nWujz2a+zSN+uN05ht5zTwxPqJ8QYELvp7vNc+16BMiiDgJfA0WTmAwS0xtkLUjdDwq2ZSHfTSaf/KltZRY7zH0Wmur6B4Qn0NcIMKH39e3nyXcbAnCOy0kSK0hMj0DoMY1fyMDiP1jY0JtRjMGBAR8CM56QiRUTnN9itWWjz+3Axs1Zuu1p4PEyAnMRYELnJ4IR6CIESM2NstNdZLuTYY5g+tzRw2I3NE0bGR52dFUNGh8uLC8XpW1tR8LUJ30Z/nvQRc8CD5URmI8A/wLzM8EIdBECEJHB76wsoXzNIBEZUDX028kGP2VtUykadsoODQ5S5ruw4pfbiPJhoXPZ2nJA8eeMwDpGgAl9Hd8cHhojMB+BOBYiMYijBwZIXUWa+wLzmwgepG5C0N2EpV6Bi35Bh9VT7vjGFcSigJXi+IFjBLoaAV6Rd/Xt48H3GwLkGqc5k5SrF/iqoZAce2eXOtWoozMbSb/WQda5OfvNbb9GZ0hVTWu66PsNVZ4vI9AbCLCF3hv3kWfRJwiQy71lSZP+eowC8qXK1FDOls1mMqoqn8qIPwVVI52uZaGjJK5PUORpMgK9iQATem/eV55VjyKA8rTm7yw1OUeHNV13SOltznTbHOwNwZg4UywWQtu2yVKfw+ctqx3LgsR1nEyPwsbTYgT6AgEm9L64zTzJXkEgnm1xKiRbZVjpiaqqIea3IE7emLMsGrWoiqxDeIbap/pzOT1N0bktjJNIQqMWu1dw4nkwAv2IABN6P951nnPXIoAkuNbvLPE5SNjTZUUOSTVusUk11ORQ7obM99GRkTotAGYtdXRsQ790dGGlrHnOcu/aB4MHzggAASZ0fgwYgS5C4JTLXTRbQz26a6BuLWpNgch7MWaHNa9DtD23ccNIBYQu3PQoak8hLRfEUYzuLB0K1rsIGx4qI9DvCDCh9/sTwPPvKgTiJKW09tkxg+C1GO3XYHU3SL1DxvvszvC1Y18DfdTtYZSzkZUOF3wQhIEQq+Gyta56FHiwjMACBJjQ+aFgBLoIgQQNVNqL1Oj7ar1uQfOVSs4WdbvPThHEDQZHy1XDBJmHKFXzPMelZDiZzt1FUPBQGQFGYB4CTOj8SDACXYRAu8u9ZZFDBtZAjFy0U+0k89ppelEYWoVsFm1b0tQPfIP2gT48E3oXPQs8VEZgPgJM6PxMMAJdhACqy2Z/Z1uWOtzoWgg5OGqFvhIjvTld6oOu1Kq1LBq7iFNx+9QuehB4qIxABwSY0PmxYAS6BAFY52hxeorQBQ+DxCnd3anV4UQ3XVGjtsLNcV3ZgXVPlj3Fz+ece4Xn4N0YAUZg/SDAhL5+7gWPhBFYEgEi3ZYVLQRhmtTdynanHunIWEeflrmc3onh8V4ShGHSzIYT12ULnR9ARqC7EWBC7+77x6PvMwSonnx2ysJAb9B1GIZGGEbih6VM9Mb+MsRktDqJ0mABMNuYpd2d32ew8nQZgZ5AgAm9J24jT6IfEKCEOJSPd/ydJSvdDzxZ1bVgYauWueigr4sUICvO931yt89+SN77fsCR58gI9CoCTOi9emd5Xj2HQIPQkZjeYSNirlRq2SSRSDBmnpE+90eUq7nValUVUnNtG9eh99wjwxPqMwSY0PvshvN0uxcBIvQ5Lvd5UwmjEEXl7sLSs7Y1ANquktPdK5XL9lzrnJPiuvfJ4JEzAg0EmND5SWAEugSBdgudyFiou7WNXWS7u666VBNURVbiaq1GMXf9VPPUxkkW1Lh3CS48TEaAEWBC52eAEegqBKisbEFpWVtGOxE8MtUVKL4lTSnX5vwatE/vIcbuVapVo5UM1w4AE3pXPQ48WEZgAQJsofNDwQh0CQIJhGCWS1xLpFSBrruPKXWsVkNmu1+r1TIieE6LgfakOKlzfL5L4OFhMgJ9jwATet8/AgxAtyDQzHJfMhMdjngpTtMI1vgCzzs1cKnWqpRYhzh7w+HePBkpy6DGnaVfu+VZ4HEyAp0QYELn54IR6BIEUtSgryQT3Q8ChTLZ23uki5i7IrszMyUbcXRhwNN/7RsrxXXJg8DDZAQWQYAJnR8NRqBLEIiTWAUJzy01mzd2KL9J9Xrdhnueuq+JjTzr1Pfc94PI8zxzTrX53Fas/PegS54FHiYjwBY6PwOMQBcj0G6dz7L6fOn2hnqcAisdeW9Kw+2O9yiuPlMuzRGSmZflLtzuXQwPD50R6HsEeEXe948AA9AtCFAN+nJJca25eEGgNnukk3Uu1ep1tVqtnao9Fwqwc2fOWe7d8iTwOBmBzggwofOTwQh0CQLUPIW02MVrsTHDyKZ4ea1atTVNc8jjTjZ73XGFKE1LTGZOBL1p5bOWe5c8CDxMRmARBJjQ+dFgBLoEAei4q5lMJkbCW4xWqaI0TbB1e8vUptUN8tc8X7jdidFDdFaTSMN9TndVqlprML7YllKh6xKIeJiMQF8joPX17HnyjEB3IUD56aadySi5XM7NZrOS6zgJ+qyk1G2N+qVjOsTgQqa97jhawbaDOEkDJMlllwuQU5Z7FEUyLPsV91TvLvh4tIxAbyPAFnpv31+eXQ8hILTcKYiODUQ+oMqKCWvdKOTzyfDQUB2vKsg4hlUeU825h25qlm3PuJ4Lw5y6tHWgdNFXvcHfSzV/6SEYeSqMQM8iwBZ6z95anlivIQBJVwjCoIkKCFi0VKOveA+laDlyrYOQE8s0JU1VvSSJ4WUPdXB43fP8vGFa1ByVvPNiET+/0Rq91YzRL2fI9xqsPB9GoGcQYELvmVvJE+l1BAQZk4FO7CtY+dSMBbnDgqd34IK36WXoelip1UYLhUKasawUX8H9ngKiV7Gv2hCqETF0caZGNzehFhf3OpY8P0agFxFgQu/Fu8pz6kkEKMYNl7ssKs7mtjKfM98muUtRFOqxn+haXpMQc5cGBwbICg8RJ/fhjtc0XbN0XUspZo5NR5a7zKVrPfno8KT6BAEm9D650TzN7kcAGu2w0Fcj/tIw4UHSwj3v+36mZdgj7u4VCvk0jqIAtWwh6tRzCMfHTOjd/5zwDPoXASb0/r33PPMuQ2CtSWvtQXEid7LugyCwSNMd8XbVNE0dGfNhsVAA83fKnOsyoHi4jECfIsCE3qc3nqfdfQhQDL1Ny1143k+nvoysdrjgZcTbdZC8DjPe6j5UeMSMACPQQoAJnZ8FRqBLEBBZ7u0WNLF5m5b7PG32hbPqWLWGN2U5VlHqphsmatZj/pvQJc8DD5MRmI8A//LyM8EIdAsCiJ9TUpwYLtzmC9qfEr93mEtrv07mPBLiglw268H1rkOhJtMqa+sWSHicjAAjcAoBFpbhp4ER6BIEhBZ7c6ydisWh4i7+W6j03ti7nezhYo8VVQ2hTBMhjK7C9Z5BXN1cXdJdlwDHw2QE+gQBttD75EbzNLsfAYjFUHOWxYVfyARvFLXNnWzTLd8qdTMMw4MWfKgriuVEUcb3PJJ7pUz404rJdz/CPANGoLsRYELv7vvHo+8jBKDJTsIvDa9apzp04nrxmut4b+1KVrlt2y4EZ+C5TykJDkpyDfk4OiO525vCMn2EKk+VEegdBJjQe+de8kx6HAGwMAnLQN2tkRlHFvec7mmLZMWJvUHmWTvr4Ag59P0spGNV0oUnQidteDoXXgkkZElVljdGgBHoQgSY0LvwpvGQ+xOBFC731ca4QdAR9N0DTVEQH08Mn+LkbVu7c15RFR8qcpxX05+PF8+6BxBgQu+Bm8hT6A8EVqPiRpY74uSOrmmhrqoGytJUkDXF4E/JxjZd8/QevYIoTsMg0PsDTZ4lI9B7CDCh99495RmdYQSqLx6+qH7w8CX+1PTGJAhNhUhyoDhlbRw9ltu94zn0L62c4Ut2Ph0lrTWT4iibvVORmnCdwyrP53KObhgyCNpCM5Y5VvnsySm43nC1UwZ8jMYtahTHTOjn5GbyRRiBM48AE/qZx5TP2CMITHzzkTuOf+FLb3/iv/3va/3JqU1hvV5Io1iTVSXWbLum5XOlzIbR4y/89T/es/P73vIXmp1xz+bUIbR+Kst9Ye5bI7kNjc8twwjjIFARK7fIKkcS3JLDwqkodu7XazWuQz+bN5DPzQicZQSY0M8ywHz67kMgqNbyL/7tP/3Mng/+7jtqL7x4pQ7N8xgdyBsFYY0677hUHg3wvf/8C9dPPfLEbeVnn78ex73PyOeqZ2vG1G2tTfp1zmVAyGEGCwrTMKx6EBhoxAIveyMcLurSl9KIleUUi4UYlry2VBe3szUvPi8jwAicGQSY0M8MjnyWHkEAlviG5//vH//aoX//3A+hcbhN0wrROLzFh3NlW0Ds5AaH5X7sP774g9amDUex+6+cLSiobK2Z4C4uIZzueMOyrJplWjDKfROETL1QRSb8qY1c6x1GdSpbHqqyMWm+Ll7jfrYmxedlBBiBM4YAZ7SeMSj5RN2OgHfi5Jb9v/XhP5j+9Bd+FI3C48Q0601ibEabm9VijSpw8RLECgsXPUqVI5/8zLvLz79wxdnCAd709vapJAObZm27im5paIMaZtAK1Wo0cJm7dWRp8s43Bk/90L2645qKQiH61bRnPVsz5fMyAozAWhBgQl8LanxMzyEQVWu5Fz/8l785c8/X3ypHsanjZSuqZBXyJQiuRkuarkSiMN2DUnl44qv3f9fZAoekX4lwqQVqBjF8Q9MiuOGtwPOyiJUbi113ns6M2K1B+qmEXujkf4hd16HEORmGunq2xs/nZQQYgbOLABP62cWXz94lCOz7+0++7+TdX3mblKSaiJZHsaEGQcYKYyuXL1Rl03DmurHnW8Ei71yeemzPy87WlIlsKY6OZipE5hKVouE9ffmGKp0D6ET09AkWAzHGjr8FMhwNTSW6szUJPi8jwAicNQSY0M8atHzibkHg2Jfve+Pz//ypd7sIiCeKHLYKwkB4ShpGlup4eVs1EhPWegKDtuO8YKWDDdXaCweuiDy/c5nYaQIiasoNAx1O4wzK0TIg486/v51M8s7XTpFE5zmuazQlYGXRopU3RoAR6EoEmNC78rbxoM8UAl65PPDCP/3bT4THT+6qxYEc65qHcyftLnb4uDVY63YmiDP54kBJs8z6YmnjUak84o6d2HGmxtd+Hiw3dIjEoEka/oF1Dnd5Z0335kFLeRRa56U1TN1xKJkObyEVgAn9bNw6PicjcE4QYEI/JzDzRdYrAuP3PfT66T17bwCVKYHr2XUpjSVYwnOIlKiO4uRRZKo1t5hRtdTIF2ZIjGXOfvBYx2Gs1yBCczbmC894Uq5WpFrdiRD8LoOMPVjWAS1AdF0L0EUNtWpqAr6XWi8kugnhmE7laFTKDpd9Apd7o1AdInKkFX82xs7nZAQYgbOPAP/ynn2M+QrrFAGwmTwGQg+mpjbFYGcVrFd3nQyahLvUzGSR7HBV9oJsJojs3MBAWUFs/ZS1jixx6K07h49deDamXKlVMpPT0+rY+Anl6LHj5sTkpHbs+HFtfGoqqNSdSs11K6VqJa27rq9q2klN1ycwLQ9xcZSZJxGy4R1qfd4ie4xRLpcrGfoq+BwJd+B3drmfjZvH52QEzgECXId+DkDmS6xPBMr7X7yivO/FK1B0RqVeVK8lk7RrPYrcIixeKQitFtnNm4HcsNYjPQdC90xzhsRoQIgqKcnVIUZzVmZMbdMaLyVAkxVY1zLEYCQHLnPXdZGYH0tWJqOWSyV5ZmZmEOVochSGanFgIFQtS56cmQlcx4XAXbZmZ7OOHwaFMAqz7dY79Vw/K2PnkzICjMBZR4AJ/axDzBdYrwjMPPXsjbWjx3Y3NOAaG5FbrVrNW4MDZStEKRiR9GITALFKZK1raqgXixUv8PWo7uQrWCicjTmbphWQhd0696zYDRXCY5zUB71JzgrIXpSxwTSXPN83iPgnJyeL9LVaq9LvfW7Xrp2JqKGftdCxoOEs97Nx6/icjMA5QYBd7ucEZr7IekRgas8zLw1nSqOiLXibShrUW9Sa5xuxabgpeoQvM3ZY67Gh1d1iTjMSK5eteOOTm10ozp3pOXu+l0XjFZJnbRFx4xIdstrbE+KoB7pIn8OGZDr6HpF1Sc7mCx6919oX8QJ2uZ/pm8bnYwTOIQJM6OcQbL7U+kHAGTuxtfLioUs1mbht7kYV5Z7jZD1V9iVFmZP4tqixTo1T6k7BjFJLD0LbOzG+7UzPNgxCHYPVBoeGKrqun0rcExnqi2/zPQykMIfyNx8LAY2cE+1Hs8v9TN81Ph8jcO4QYEI/d1jzldYRAoidX+mMndzRbLoyh/PoB9ixctVx7MQ06qS3ssKhy1Bp0VTXz3n7D1y9wmNWvpvosJaSEIydy+cdWNvRUj1XZk88bydyy0P/PRBSssTmzQVBQ4WOs9xXfkN4T0ZgfSHAhL6+7geP5hwhUEFpGbnGSbq8k31L7yWen6lJ8ENrOpWGrXhDlxSz9sy+61d8wAp3bNWIQ7PdQIxcNI7B8BYcPRsUX+S85GUnQg/DaI4ATiPLnZPiVng7eDdGYN0hwIS+7m4JD+hcIFB+fv9VkuMWWi1K5l+z2bhEqpbLhcDQUZq2Misd9IpepLHmHj1+xkvXWu1TqfcbkTq21DBMEsKZZ4MvbbfDXR8gu91aEHsXHgCWfj0Xzx9fgxE4GwgwoZ8NVPmc6xqBGuLn9WMndjb8zUtvpBJXCX1NMk13IXEuPJbOiBo4xT109OIQpWzLnX81nzeaszQc5OR6h6WtoyStjvpyIvVTmzDRF50bdVeLsQRQRTJc2350Sq5DX80d4X0ZgfWFABP6+rofPJpzgIA7dnK7Pz29AUprRGhLxscpJ9wDMfu66pEBu9zwGmKsMNLL1UG49Lcst/9qPqeSsvb2pmmcUA36AOLpLsXT555rsYYsqWTnco7neaQFP2dJI2LobKGv5pbwvozAukKACX1d3Q4ezLlAoH50bJc3Mb0pRQn2cv2/Wwly5Xo9k2YzlaWsdCFOo6phksuW6lGglvfuu/ZMzkeQbatfOa0u8NtLcXW437MDpFo3JyO/s4UO6zxCSIBq1Bs7zLPk2UI/k3eMz8UInFsEmNDPLd58tXWAgIOSMn+mNNKsP192RMR8kefZVSrUVudbwuJwaiwey1m7EmSMarletb16PVt9fv81y558FTu0+qE3DiE/QMP1Tqpx+Gplszk0jVnaiyAIvSlCsyCGjsUCxelXMSTelRFgBNYRAvzLu45uBg/l3CDgTU5uVuLIaDqllw2kN0LSQkEuF9uZCgm7NEdKQqyJnIFarJ0pV13HdErlIRkJaxCb0Wuocz+TM6KEtTku9wati0v4vp+1LJPaoS6VkZ9mIfkKtThrsdgBerOy9OuZvGl8LkbgHCLAhH4OweZLnX8E/FKl6Bw/uUOXV//oQ7/dqPi+hoYsaN4CIsfXOJ+dqUWhXC+VhlIQJRG/cNPDCq69ePjSOIzOmLwyucMpca1hnze2Zpa+sNQRTy/ii4briwXH/PapcMmT+a0gFi/G1FqotO6KiKFz2dr5f0h5BIzAGhFY/V+1NV6ID2ME1gMCYa02EDlOgRLiyGO9mjFRglytVs37lllNbbtSQwS7Nj0zFHv+nAYnzcQ4KYBbv37oyBkrX2skxTVbtS/iV1A1VS0WizVovofzW6ZSjB0isKcs8HmSsVyHvpqngfdlBNYfAkzo6++e8IjOIgKR6+ZBwK3681VdCWQYG1bG9ULfQCvTfOy4edJC73QSNHxJqXNb7YWDl6/qIkvsLFzuoikcbXMv2yplE1Z5mpr5QqGGoZ1q5IL3c7kcGsmh4Uzb1n4WIvTlkgTP1Fz4PIwAI3DmEWBCP/OY8hnXMQKx62djL8h16Gey5KjR1SQy87lKVteStFIbQn3XkrFmsv8T37cqz+277kzB0eiE1kxOn3fSdvc5YuQmvAl6Pp+vYbdZLwQEZRIRP2+fPNYjVPJGL1j3VKO+UpnbMzUtPg8jwAicIQTOWHzvDI2HT8MInFUEQrjbI88VNdgr2cjeVXXdt+yMq4RhJvWDRRPK5lq+CLLDQq/sff6MEbrIQG+VrS0xeCJsJMnBIM+V0R+dVO6y5G5HlrxOh5FTgRL7CANdVZNCoVjPZEzZtjKIr8dz5GBXghHvwwgwAusDAbbQ18d94FGcIwQS18vGrpfp1HJ0wRDgstYty7GJzGtOUQKZr9R8FRYzEuOco2O7g0q1cCamRzrrsy7x5TqsNZPkCoWCpyCeTglxETL7yQ0PKzygbPeMmQmztp2oipxBJ7cCJGVl6LsL0ueNEWAEug8BJvTuu2c84tNAIHTcHOLocLk308U7nEuQMUjQzNq1jK4maa0+CBc64tcr3ygxjkRb/OnSaP3gkUtWfuTie7bXoYsmaXjNz2RvP5rc/k69PgBSr8Ndj0axMsXR3aHBQSxSbFnTVCrdMyiu3pKBTZBJfybGyudgBBiBc48Au9zPPeZ8xfOIAMg8G3m+LcLIZOUuyPRG1pmhBRnbdpQA8eYgyKx1uESSCaz6SkMx7uG1nqd13Hzp1+XOR9Y4udaR+K7mc7kw9H00gguMwA9yUQI59w5Z7iz9uhyq/DkjsH4RYEJfv/eGR3YWEABBm6gXb3im2uLRwtoVLnbTMw09lF0vJ8WxvhqrfP5wSVgWJXK5mSefvhmfffR0pwOX+BxhmY7nI8+DqkZo2BJZGSsydD02DcjNGEYGCXHUS13E0BsLmXmzE3XobKGf7n3i4xmB84UAE/r5Qp6ve14QCOtOHk1NhDt8zqaooQEyN1QIqqKtKghvVS72zpMh+zjRy0/vfWlQrgwYxULpdCZNZNseQ2/RMVnalPQGQzxGvFxDXDxQZTnCqsVA0/McPhPWeMsiF0lxzYG0XPezXgBuznI6t4iPZQTOKwIcQz+v8PPFzzUCUd1BKjdquZuETlnsiqb7ZjbjoEBblRzvDJH5qUrx+pFjFxz/4pffdrpzhQOf2skIKTqK0TeJnKxxnzquFQeKnp3JJIiVW1EQFMIosuCm7yif08E+F41q2EI/3bvExzMC5w8BJvTzhz1f+TwggCYrBpiwweeU8Y0+55Zl+BrFyn3E1hc6ok9rlCDJNK7Vi0f//a4fcsZObj2dk1FSHAhXkRQphtVNmesxkty8YqEQZExTRRo7WeMaLok1yymLfPaa7V6J1kTneSo4hn46d4iPZQTOLwJM6OcXf776uUZABtfRNZHFbqBG29K1WEFjEymKW81azvSIRNV3ec+zNx74m3/4udB111znjbaniqZqMUrOXBB5aJmmpCqqidh4HslumWbS3KJLkobKfHMTPvcOMXRuznKm7z+fjxE4ZwhwDP2cQc0XWg8IKLoWpqoSGnBTG/BNU1062eqnk/y23LyofExGxvyRT3/hB7XNmw/6ldpHzELOXe649s+D4yc2/N/f+u2dA8Wij45omAaKzjQNeXsRxdXnZqw3XPIdtrnvzqdzqkNfDy53/+jxXcHBo5eGM+URCap3smU62ujQcfPiCx43BorUk543RoAR6IAAEzo/Fn2FALnYIYEa6lFkorOY3p4cdjZJHVXgcVx3c8/+2V//V/f4ye2Vg0f+tLBr+4srAd8rlQee++O/+sXSnmdvA42bSZigsk6PoPKWIotdIaEYzMlDzJzmYyOjHcp2doj5GVCMMyjq3tJpn1+q1uoOJ8YBX0JDXvb8bBESB0uf/9L3j/3On7zef/6Fa6JSZQRp+bpsGJ68beML3kW7Hjt291c+u+lVt30G6n0r1fg5P5PhqzIC5wEBJvTzADpf8vwhYFqWByk0lWRUEYgOZZA6Ca4IoZlm9rcoUW8b4pkgenJ3K4buu5XqwHN/9fc/Xznw4uUH/u2znxi94fr78ju2HlwMkcqBgxfv//O/effEZ77wQ7Hk2pECDflG1zUFY1RUZLBDCSZGrTn9LOGrRKVqdsYKUG+u4XM/izg7MuCztA/F3imJzqNcAklCjX2a0AIHc1exACA5ufPyNyGcmh4d+9Cf/1b5s/e8y4pTg3IAyG8i02okdMwymtyUnnz6JZP3PfQdtedeuMabnvkja2hw+vw9SXxlRmD9IXBefnnXHww8on5BIGsY0YhmSLFu+AnqtcMgiBNd8/HVJDW1VFMjUaseJ9RXnFqbNRuqNWh+vit7NWRPiwgVLn9ovGcmvvbAd0488vhtI9df+8BTH/rTR7M7t+03h4dOavlsWVbUJClXhtwXDl6x7zd//7WVbz9xhx1GljagTSrQikELNbvdko7QcAX15aLpioI+74ipZzzHwc8gfJJ9hWS7RtlyKorZZJmsegwF3WWwr6EbYQFNXPwgAOFriQ6yP9fPAiRtlbH/88f/0/3M3f8ZixXJO9XPnVL20D1GheNdq/vViiVNTm3Z/+d//StBqTzslyu/YhYL1XM9Xr4eI7BeEWBCX693hsd1VhCg2HkRGuZpCNJOZRRua7B5DSXSJJJUCxO4r0PJ0RJDq4PqlRgd0xLd8OIo1OMwNMCYiYR68BbRt1v28wfcTvazVj/FqWGtxwh7azVnYPr+h944/vUH3ggpt2lreHgik7erJohWqbtF//iJnUYiGQZZ97C/y5WKnRTMEBqupAA3GzsX12nG0SleTwsH8LXwOJCsK7ndmw1ZBNmDQDOwxiU1X5BA8SpK3GyQPrz5aki9aM4K8EuctHb/t15f+tTnQeapSFgkzwPt3lo+pZoMcT/fBAZyhNkheKEf/udP/aRWzJcwj/+FVctq1lXnenp8PUbgnCHAhH7OoOYLrQcEFDtTS03dlT2P9NxT/ALIshfo1CQcfALqCM0EJiH4DfIzKera0CPcysSBr+iJYXqxobthvZ6HjzuIsR4InXoOGfNRTKpzIE9iohZ5t8enhampKGBzKoIX/CsH4C8N8W4sMmIjjG316PFLkLUuPAKkNA85GClsyrMaIHn4yTOeKQWWIF7ytC/chApcSwmuVWs/L2lOJNEJxkRlOyBAhjwl2GE0iepDFvdc3qc0jpQXf+KXfl5Gln6KMrz5bWkprI/6vNB3fVMQPNY2EK2VgLhx6B/+5b325o2HMd7TVuE7l3PmazECZwsBJvSzhSyfd10iAKtuWkVb0aRcHaWsqoYLvWngNXqck/UtyX5gq/gUhruUun6BzHnUiEVpBE5W0LFF1UAskhwZmTS1LScKIw2WbprYVi1wXZvcyCll1JOFH8caDiLVOBk9TGGhS7GJDm4GLEsTBIVrYAUB4VnUxZOrPxKE20hfE+sAGiEWEClc5tVq1TKLAwE86JQAt5DUZ+vLVwB/m13bzJQnsZpzaqG7z+6/znnqWZLGTeBuX3BtLGtSX5UhPR9l6cPWYkko0Zcqwwf+5p9+Zvrxp/YMXXf1N1cwY96FEehpBJjQe/r28uTmI6AMD53QhooT0bETF3WSUJuVU20negi1COJHtB1dxXWFaDaIhCVLaVtSEGdh3iqQnINDGCptqqEmOkhI06IQRj6s+npESXi6FqiwxuFQ10ykq2kxwtgJktAaCwkw2pxN2Nc0HiJ0iLI7caAaQT3IIN7tgdAjWnws8DW3tFznZ/Z1eBQWHEvhgA6kejafovo3H7tTQt94eBVoDbPgUhSe8JMIgQ5g1CaCI5TysLf74uHLDvz1P/4cpHV/HNK65bM5Vj43I7DeEWBCX+93iMd3RhHQRoePa4PFCSKHcPEOqguu2ZHoG3shsIs+403ilfwQ1eFwZScy3PcUp8daIManuuWHA9mqW3OyUQKVWT+kRYIgpaUCwC3r3MWKIUTNOfLU5VqtZkqbNnlw4WvtVvrClL3loWstGhoTEdn+57RszX123w10aZK07VA7jxR8zfNCkqafI4vTmhgBrU1849uvhbTu2/HmR5afMe/BCPQuAuf0l7d3YeSZdQsC2kBhSt+88VCYnrky5hYp0xnJohRnbnRGI/e9sO4jTQkkx89CXB15bo2FAH1dQTZXiiWC7yLODXc9NYxJPc+3qtWaLkq72rcOjLjkfRGlYaRjJ14ykunkJAisc3UvY9fNePtfvJrK8ETSwLyN3oiRAIjyO8TPO26IUWCr1QZP3HXvO+rHxnacq7HzdRiB9YgAE/p6vCs8prOGAARJIiJ02Lq+yB1bEaeexnAM3fMsvVbzXVPxwwxS6UwFQikrOaP45cS+XhxDaC7UyS0tPOkIx1drNQvZ62Thd1wTrGChMH8ItMQBewbnzGsXHDm+Ozw5Qfr2jfK0BRuiGboaYkwGlbM12r522AvvTe959oaJrz/wHSvBlfdhBHoVASb0Xr2zPK9FEdC3bXlBHxkaQ875WUVJRn27h/K3WrWWR9xd1hFNR4U5EtsNJK8v7+/H8BLIwQnrnGxp1K4lZEg3aB0NWJIEVVwdAs8dZtVpph1j6OewH7rzxDMvQ296E56GhTRN+BhmUK9WIXhDqQiyl/oBLWbmk7ooA5TqTnH8vge/w58pDZ3Vm8onZwTWMQJM6Ov45vDQzg4Cxs6t+7RNG482tNXOzgaxdeS3G7VapYp2rIlKUq1oAKMjuQvp6WDqRlLbohtlyYHQvFoQqJB8o4YuxHqgPvRyxyYEZOCDx+qgTl3Xl5tFZzN+7ruN9qnnTinOeWrvy6imHwl+C8aP/AAp8L1Uv/TCvVd8+DffdeGv/eJP65s2jqee3yD1tq3ppZCrzx+4qvTkHsqY540R6EsEmND78rb396TNHdv36VtGD5G/urOr9/TwgRqc75lGrVquFJE2roOcoC+rgi2RqY3YOoLfmm6ZXrMavPPFcIyvyKEXwOlMvmaQHsxzqm0TLEzeZx9XgXBMCDW4SLijW9vKjPbZ3VtHEqF3Kh07PTQ6H50ghODuQbkasuo7JeJRUbyyeePklg+8578O3nbL5wZfffuntv3Euz6IfYV3o32je4hYuoT2tDumH33q5WdjvHxORqAbEGBC74a7xGM8owioph5YF13wVGBo7pmOo0NfNXAFmZeJzCFLI8GKNn0tjJAMJ2xsUHWso1sacVDHrmhU/54g9u5EgRJC0U5kohOZNy3ZVhIeQukUSzdkVfXA8A3TvcPWyaPd2rf9GMqSj9EM5YyCvcjJkAx3eXRyYltzbTJn6LQ4SXxPzr3+lX9rX3XZw0mtZsPLERZvvfGe3DVX7EkcTBcW/PxNT1O9uv/AVUGlljsXc+BrMALrDQEm9PV2R3g85wQB88Jde9SR4eNnMo4OCdLQz1jVSqVSBHGL5DKicF2FSxnd3Vp2JdRlVINSvHR9gW66IG86D4rhPD+E8lzT9EbVllgQzDFNZaler2fRZY2aq8C+7kzp9O7iMfTZTyjRHeq3WnAubkD94SfugKY9ZdQvcLeTAKw6OOhZd976aSjIUbUAyfhJJAiUu/qKbyc+YJs3oUY4IpXcYyd31A8euuxczIGvwQisNwSY0NfbHeHxnBMErMsveszYuukgmpacEbd7g8wNGOYNy7w1CbJ6DVWLIUjTIniQE3gTVrpm6MF8K51Gk6DEjaxz5IKJ+nZiL0FqTXd7463GJ4g/y1hAQOdccRdLkCOiXxBDn5WHbY4Up4NUG8L84ZKx/TN1c5xHn3pVCq/F/LxEsrzRHCfVr77sPnnHthcSB/kDqkprGYq1x5ndO/ZKuhoRwc/faKegVBpxjp3YdabGyedhBLoJASb0brpbPNYzhoA2MnTCumj3UxBrXdRVvdKLkWSrZ5nVUiNmPkvmMD1TxMpdDTHz+fFyiqejnzlS5KhPS2NrWOdK6JF1jlItig2LMrUGgZMF3jG3zXGcbAz275RcJk68XExdCMpQT5ckhHvhrLurq/sPXjq9d9/VCBVEmNHcv0EingDf+Y3XfhlVAnXqxULrFkIGHynWlk1HVWjrY7Bzbo/AjuT0a/WiPz21caX3jvdjBHoJASb0XrqbPJcVI4BEssS67KLH1OHBk4IM1liPjjh2HGbtUrVWycM3PF+LHN5zLZagC99OP4KkYbHDPFVQk+63x7MjisEjzy2FHGq7V7kVN59jpbcWAlhRlKtVA8l47groexaj9tUBSckGYZTUHS+7YhDXuOPEZz7/rsrxE9ujjFnBkmUOMyOLX5KymUi/5vIHUdLWijggF0HGQgn5B5bpK9Di67BIIbU5Kaw7eX9ymgl9jfeGD+tuBJjQu/v+8ehPA4HsNZc/pG/ZeHCt5WtE5kHWKpcrpSLpvLcPRcStqfe4iih9h1Iw2NvN5DgdvViaNelQhAO7R9BqpxD7HDd5IylO9GcXW+Nrg5IpicxxXBt68Qi9L6o1M3vUKUafPR4xANWr1etGAhnb04B02UMre5+/+sRnvvCjShSblVo1l+RyM20TkaQwkPSLd+9Rdm9/ASVqpPFOU6WFkmiMJ1rQLbH8wk1QoqpTWHYgvAMj0IMIMKH34E3lKa0MAW3H1v3mhTufoXDsasvXyM0e5DLwslfziOcuUFcjdzssyVBbJFGNRoh6LcVAS1WY8RGxFrVkrYcQkWlqwzdmQY5mjE899avadMHP+hSaPdllrCyoXh2tVRfJd+/wdlP2FTrxcRgEoZEEfiatQWv+LGyh55kv/t8/+Z1wcmYT5O0hTh9ZVUjvpBmzJoaG+vI0iCXr9ps/K2fMshTHohyfyBzLFLjcIaeLljeia/q8ubR+JDlchD3Oace4swAVn5IRWBMCTOhrgo0P6gUEyO1uX33lg9JAYbzZx7xjjHr+XKmqKsqCzMuVAhLcOpZ5kYFtoNYcvdaznVRfxIXgdiflOE3XA3wXIKsNfBoQKZ+yztFiFcQnhY6LTurIWmtbIMwfrFOv52BlN9q/zltILJrpToLz8AzUPVelhUM0XR6NXzx08dm4v/v/94c+XH7kyVdRvTt5KGhM5CKvQyNHMkwXGXmSMjrs6nfc8jlqctOcBN0a6mIr5hWjFz28CJQNODtE8T6w0zOZ2rCdd4sIzp+B1IizAQGfkxE4qwgwoZ9VePnk6x2BDGK12qYNhyHesqKhUvpYCDIv1VDrvBiZEyGDbeHGTuVoceU1IjWVYunQl0fs3HdgnVNSnRC8aTZNCWfKsrVhg3/pT/5oJXvhrgSlXosOlI6BpQ3TNyVJ2Dnz6aRyKyx7RVCrX6/VM2T2RuXyUP3xZ+5YERgr3Cn2fWPvf/+tP5v83Jd+GHFx6uMu5kAjRNhCckuVQS9j1CXPT1Cq9lllx9Z96COfAQhkadOCiV5wZUiKc/j4BbHnapQN38h9wH9YkAwNDJW2aKYymsoZqijA5ytanK1wCrwbI9AVCDChd8Vt4kGeLQQyF+9+xrp491MIZC/rdqdflhgx33KtnqW68sXGJIhKhToczriUK5/2Q547EXrgo1lM4LiNhDS410HcCKb70e7/9L3Tr/zkR+OL3v2DRc22yfLEQJuNUudRFhF6jHg9xG3q85PnOufHE7PKie96JChjgF1jSNNl6g98+zvTuiP6vZ/u5hw8svupn/rlf0Pc/N3o5Eau/Dl/c5qkLtdmZgbiLRtPmt/zHX8BbGlFQ2ROGFvgbCJ0scaJpqY3KlGjN3qM25EtFErbigPOcBAVtCC0xX00V9b85nTnxsczAusNASb09XZHeDznHIHs9VffrwwNLJntDmJOo1xuquxU7aXInAZPWVuaZbkqhFOWMhPFZyhfS6HxjoQ24YJGtrkU1R3J3DDi3vS7H6zc+Du/ame3bbGDel2OQoTH52wLz95MkJO0Rsb77LZIKxg6QQi1uYxw0UNYhlL13L37XlL5yje+83RuBBYjxrF/+Lf//Pi73vu16kOPvEnUlM0jc3F+8kaoqhRXqpr93a/7snHZhY8kdXcQFjYROi0qclh1kMtdSlwv5x86emGiq5JmmfXNQ8OljbGCCLw3GEOsh0IbKENM5Wymejpj52MZgW5F4Jy1SuxWgHjcvY+A/ZKr7tM3jR6JZsobF/QYb7BQGuayM1WvnkmCaCX9wlNDh7Rrzcsvh57I+ALxwwwNaiDUGGQ+fOP19ev/1y8mw9dcWfQdR5V0svWJ/OBeJgu0Qb7CZd1O6Q3tGVmqVKv5fC5XwvcZ1JY3XfQdlxZyBdKxaMOqCilVkC46uMfhdGnD1N998pe8Q0cfsXZue2G5ObQ+hz67jMz03OTXH3z9Ez/4Uz9Xfea5W1re9QX15s2DKNkPtXJS8aXXVHb/xA/9UooyvhnTQAldmEWOA8IAkok5+5h1ioVO3jl05MLhkZHSkJGBH8Iboim3chREnoBlOtpAcXKlY+b9GIFeQoAJvZfuJs9lTQhYu3bsO/Krv/u4++z+l4AU5nitBJnnszMVp56J/cBaLtLeyNZWEtSdieT05dqgCQk07GqTQloYhJtefXvw0g/+1zS7c1shdJzG5SgLD2wdJzEC3ov3fD2VBpAqiIlrg8WCA0IXbvxO44aYfJxEYbPPOBE+rkNLBEP3w70HXnL45z/4L9UHH/75zDVX3Kdl7Y6SsLHr6onjFv39B68c//BHvqN8/7e+c/LgwUsgOAc3uZi+WH50vDH0CRLhUjvj7/xvP/NvimVdC+LfO7phw0Go322A52CI7gcWJhHOEstYaGyM0oyeKEXJ9RdgKwg9a1cxcSb0Nf0m8EHdjgATerffQR7/GUEgf9O1X6nd/9CbksmZzVRyRiREZB7nc9MVp2Y3yXw5Pidh8tQwTU+JOme/zx+siCGjht1A8fmuN9w5c8Uv/Uw2BzIPHAdxeISKm4poQvq1YYELU3s2a32uLkuD//FfqVLOF4v5abjwM526mWE3eNcVFxF5m6z6VgOXRioBGsPhYsnzL1x38D2//MXMFRc/cvx3/xRejA2HFctwsQxQ4UkoxOOTWw+//39cjkYrVydT5U0GggYO7Gak4sc4XsM4lgzpUV935ApEm37xvTX7+qt34+efxGLoPoztY4VCYRp94+VyqbQFXWIjjDVM9x28VD0ytjktoiNtB/U7mreaz5a0ocETZ+Sh4JMwAl2GABN6l90wHu7ZQcC+4bqv6hs3HImnyptD9Bwnoxhu9lLVdayVknlzZKkKjXal7g8sZ50L8qWYueOmA1ddmm56309Y1q7teVjmIq4sXOpN4qKv6Ci6oBxtUeMXH1RgpRds28NZ7PkOd9KeD5AJB7f2giS1hq1OpWBgdkivBk/vuyl6Zt9NzVS81jTF+GiOrTEGmu7FkK5N/ASytYuUDTSy4HBQIgHXePMHfnKm8JbXD0aV6mXSQBFjlSj2fxCvL1uWNakND5dKlcogwgK58Nn9NzY17TspxVEuIZq6FCeg0f/i2XlK+KyMwPpGgJPi1vf94dGdIwSMjaPH7Ssv/TZ6e6G3OLiT3Oyua0ael10qU719eMJ8J3U4aLrB5l3+d4ssY3QOU0eH/eF3/2BkXXFJLkbGOaxU4VcXryYvInsdxnoiXo1rNpXkFtFpp+Nq1WoWZjhaxJ4q4WrG4Mk69/B5RmkzooUmC8XRm5NqzBvZ5GB15J3HKJiLSPs+QL0e2rtFAIoc5okgfnLXq3IUoEc7hHE6GwqN0D9CC9TSPI02/8J7SwPf/71FxNA1lM7R2mATXlvwuhqvQZqkbhju6MjI8ZyCFMO9+18CqdyO/vuGR0WR1IGBCW3T6OFz9NjwZRiBdYXA8n901tVweTCMwNlDwL7p+i/rQ0MnE1jmJc834gaZr3gjItRMwyfd1hUVQcOdDu6P8m94VZB9za0WESGITvQRA3HTFoHIiegQ7k7BpdQWfZbPFx1X69o4XqvVatCN0ea2acXwwjCExGwoSu/aRWgEobfF6QUHUwMV0qmnGnmyr+lnakLTqJmndDqiaRC/lKBrCvq/zVe1adr2mC9K1xK47t1tv/nfKwPvfMtA4jhkzbfmQuVp2/HajNewWLU0N318akN08PC21DKpi0zHubu4vLlz6z7Vss5JC9gVPxi8IyNwjhBgQj9HQPNl1j8C9nVXfkPdvf1ZZH5nI6eeWw2Z0+woym2Yliv53pxmLB1nTm5nP5CM3duDwne9NpY13YAAS4D69SoI0YMrvK7r+iTiyFSC5ZFFLZzbc5LiFlk2NN9uZrxnsQpwZmPv4Fqc16nU6+b8X36aLxYBjYYoKxTaac0t1dQwEh3bIM/adrzAEGuSOMI/mhYV33Bndccf/WaYv/O2waRaQz5gww+AhUtrODtwBDVXmSX0yPW0+qNPvi4pVQ0KRczfCHe6DmW3m7vQXpU3RqBPEeAYep/eeJ72QgSM0eGTL/zunzwaP/zYbatlNCIUEBky4eDgRpIb3NBLb3BWo693nHv5DW7umis8kJKO2nWNEuEaawPUX+OVCAOdcuMShax1Ima84NNvOOVbinJip6bgTINPG5/hOJ2s9M2bNsV4gxTUyAPgu647WMjnZ/cTiXGNFQyc4diV9GvEScWJl5yLkM3VkRkfCR16suLB7ESziPsjO121rSR/9eXewPe8McrfcQvF8824jHWKEHNtzlY0XxEbvUnu9tkGKwhL5J0HHv4uWUOUfJGhUKE6ZGOPmxft2rMc9Pw5I9CrCDCh9+qd5XmtCYHCS665b+Jz935/OD6xrWX/rsR9LnK9qBmL6H2+zCbKtSJJ3TAa5V92gw5CJGsUBCfIfE6de8t7DYsdLAtxGxzXJGoia1HORl+JPGkxIN6jFyRgBVfi/emZmULdcRDuFs3Hg3K1ouFzZXZf7I/FAs6lpIO5nG9rBdUrlZQkjIS1jgi8sJ4b9e+NfDQRC6f38A8tOUINu/uBjlp0STWMSM1mUm3DcJS5+rKw8MpbY/uGayzFtvNxtdZwmVMGmzjRLFatRiz0xhBeVG4nVjPR5MyW+qN7rpFt6MyIgMTcjUYFP7+kbxw5au7a9vxy8PPnjECvIsCE3qt3lue1JgQGXnLN/dqWDYf8icktJIVKLCdIB4pugtSIJDufWTRjUaIws5LsdliwKcgnzlx7Zcsu7mwJNwlvw4YN2vXXX+89++ze0Pc8WjSIBLlWzL1F3sTZwjHfzANvZqDLfjMRDea9W6vWSCcd1WDieMquo3i9hFKx+M4f/kFtx9XXx8e/+bATHz6uJJPTSXB8nNTxkjSGsCqlwlFiHtzrNDTqTa5kMkFim1DFzUj68FBqX7grLF59haxfdqHjD+TzuGYBHdykqFRuNFURq4G5KGIc7QsZstChtdPwGdQefPhN0eS0rg0PoI6wM7q+qviFyy95VMvnK2u68XwQI9ADCDCh98BN5CmcOQT0gULp6d/6vW9OPL33Ol3XIjioYfyR6EuE5C3RJYxy4ClJjKzWWWc0stYkXVETJQzMZd3tREqaFmu7d4TKYJF+B6kerWM+S6tGHIlt1nt+6r3pjh07w6PHjgZZO2vgPQWuc19Y6DQYkGU2C5UWD0XtKEoT46ZSNwTmIR2nQw5u2g8DGYQeYSaRDrPftCwDXdrg8k/Siy++VHrL296aVXTd3HDLS+ikblKpKtH4VJR6noOYdxSjFA4u8FQOURuuQ2C2kE1RKhbJYHNtaEDTi4VWuEBosU9PTQWe68aIfaOb2+IpO5hDe8tWwoQS5NKwUikcef+v/gCu1ajjm7fRwkW0ZYO73UKVwpl7EvhMjED3IcCE3n33jEd8lhEoXH3Ft+TPfOEHvZnyBuRshyryuhVIv5D/WdcN9DIFF1I3L2iwNwq2YzCb4evNvuhLWPFiCSCnoHzTSJMtG8I6PMp63VF0yyTOo9/HBb+TLbf7ps2bMv/5x95NtEai7iqVshEnt8PheR4E1ywiw3YXNvjY0/F+q+EJHSOiBOVyWSkWi6L5CZEomqJLXp16u2Ado6lZNZ+TtEKefO7CghbSbzCaMUj6udFMZgHLNiVqFcXM5nIOZFypTm3JHuXkaWiehuZP+1IDljg4dOxy55EnLpUzUIHtKCZDDePgbt+25YB9xSVM6Gf5d4NPv74RYEJf3/eHR3ceEBh+6XX3m0ODk3GpsgHuZV2EqCPHQBa35KN5CSWmaXamji/gecNPA8myMlYdFGlA0iyEz5uakoqUL2LN+YalcIND0CXJ2IVqraLLpapnwrDOwHUNq5sMZw1Z7fS7OScFrOU+x/WNOkiX4t75fH5OlRi9T8ciO34WObLgkRiHS6p5fE9ysDlqAhOAvB2I2BiGbpCDgPaj98mNTteiWDdWAoJIMWn6mZLyXHFuWbaFxd1Osq3s9mZCHg3ANM0s5gUnQF3HudHcfdEMA5S6C6ho3hmcdxQx/ELtaw/+YFKqmOrI4KLu9kiVg+KVlzysjw6Pn4fHhS/JCKwbBLhsbd3cCh7IekHA3rzxWHb7thfA4yJXm8bVaK5K1nWjHhuu52Lguna9XB50A18v12u5cc/RyqrkubrqwoZ3E1UNyMqkiLHwzzcnKPqdZ6wQMWEH7E0p6xlY0MWZmRkTFnMI8nNBtkS8VD8+GzRuz2gXhNt8tXBbgizFLjhex4KBatobqfOzAYNGRjyRuZjrPJIWpWKInOOrq5tmAsK3sTpoiMHRMa1X52x4I5vN4hDNw3w6snlzHETo9KIBkDl+Seq6w5V773uHnIFDocOhTXe7pG0YPZZ96bVfXS/PD4+DEThfCDChny/k+brrGoHilZc+opim28jrXriJDO+WJQqCR1w5A2s3O1WrZE+4jj6eRNGMkvp1DeRu6E6iqZCEUyhtXJwQMeEEDU8cVKIJEhOWMVzU8E4X0JjEBrmn+Ir8N8Suk4TkUBtk19zayX3+6BbqujSmQO+Tix7XcVYKfjOGT5a5g/p1koqlDmir+rsBMrdhpfs4BzLqFqk7ayxcGukHlLqfShe5z7/wOrRyLSDpbhHt9gaY5u7te61rLn9opXPi/RiBXkWAXe69emd5XqeFADKmH0P9dD3xPOrJLfhwqROKgHSDrCAeG5oukuPQKy1RdSMwdT00Vc03QdkmnOka1NQMTY0skDrqtx0fFimOhWu/odUOAiTFuBzc5BT7duG2DuHmjkCo5EpvJYytZX40QOp9Xl7Omm8tAMiqpiYuGBKROcXM1/I3Q7Nt28RckGwfalRHP3/wc6x3fI6fLxr77D2/ghVAAMjMtFmG1zqOrHPKl48tq5q54dqvIhmvtBZA+BhGoJcQWMsvZy/Nn+fCCHREoHDphU+BhWoxJcYtHvedc2y7P3mW3MPQgv8cAXYpVXUtNA2QM/q+ZAM/GShXiwXT0iJNc1BDlqXYdytjnU4MEiXis5HJLlE2OwgdjdOtCK+AssLJhb6YNb7EbSUpWAXESvKo7Znlcw5pWuYkYuO3kTklz61pw2IAnG6XqtUqXZd6nC84T3PxIJq3+MdPhic+/6Wikc1ElqJ5chxb849AsEJS0Iil8IpbPrumQfFBjECPIbAq11mPzZ2nwwgsikBmy+ZDmc0bD4PMl9WJ6XSS9mQ4IncyS5EVb/hwy5fqtfzJ6SmrMjmpgCF1uKN1sKyLJDdKuJuNjbcuTe54cpVDVCYHN7wFd7wEYoTzwAvx3qw7vnXscreV3Obkdm/FzOfv3zaGAIsIv+lmXzOZN88vI5aewflcIu5OrvdGTTwp1STx1L1fD4JjJzJBHGdCXaXG8O33QbS3jTU1sK+94sHMRbufWW7O/Dkj0A8IMKH3w13mOa4aAaiuJdmLLtgDjfXTbvTRTu7CpU4Z5X6gBuWKT4l3cKNnsrYtwxImshO9W1tbe/JbMwZOrvksyNwEqUsg+JiS6EDsdbwftCe3LTZpsu5B5nSpBSXzrWtTMxjSfAeZU3naopb8KoG1crkcufARZWjwc9tXEsQRfV7CuuOf/I+7dS1jURcZrY6XZFEE49SGBZKkDA6MF197xydXOQbenRHoWQSY0Hv21vLEThcBc8PIsVRX0TX0zG2CoGFxg6gU5+ARAy3JUfumE5ln7GwWifEqJcHNIfUW8bXIvY20dRB7FpnxRqlUIqsdyfGwaeOYFiGz2fHznQwgVApjk8serVUbHoH2jRYG1ByGxGzw/pw699NFAvkAObxcyrSfZ6WrKIsTterVx/d4lSeesZUMLg+rnaoJ4CbwhXKfAAOTQ/UAtbu1r73qgdMdEx/PCPQKAkzovXIneR5nHAEon00gac2bJZIzdAXqlo4icrV+6IgWTs2gwxp4DOVwsIjB6dm4Seod3dKtIbRIGPtCAkZkx2eRRGdRvTkIPkLGfb3pjo/JtT6fuPGzRZbyfPc3zkvJbw68BkTklNF+pjcdVjqmrBKpz1YKgMyp+J2EeqKT//FF5PQH1OdGXBsZcmrdcy20Tq3THyxReF/ITRffdOfHVdukkANvjAAjQL8bjAIjwAh0RsDetPEogtqxrBtQV1lMwn316DVK3hTJH5+QagcOCo+8yHBHHhyIlIRYiITJUl+S1OnK86x2SqpTkUBnwhWvg9gTELwDqx05eeQYOPXrTiIvlITXptBG54IwnuLAMicyb2X3r36CyxyBhUsOCxeqS5/1IuBbDVmAhndszJ3+ygMZpNDN9j2neHmExEIf0jIIgfgAKrGvvOzb2Ztfes8ZHxyfkBHoYgSY0Lv45vHQzy4C2Y2jx2WVmqFqAazqZSXaVzMayKpK/uSMWt37vExxdDI6m/ymNdXVKEHOA8kuS+qt67YsXiJrvGfBHW/DDU/ueAXEnoDoqf68ZdGSbCxl1jeEc7Dh5xoWFET0Z8Myb4eHUt4tEHt91t1P6noQ4qFkOO/ESQsSOLP7iwUQPndcjxLkfCVrV4rf9Zq/1Qs5bsSymoeO9+15BJjQe/4W8wTXioBRLEyDZGIQY0Y2TLLSz8zWkH6VYtdVynuek2L0UlFNGMXNVqggciJ1KvOiWLhIyltCkGXRMZE7Hhu54zMgc9Jt10Du5I6vYvEA6Vq0bcHWLBejmDktBMgyX1Nm/2rAoUUDrPQQ1yZdeglJBFJYq80gGc5QoWsv+qnP29Ca1ayHvp556TVfy992812ruR7vywj0AwJM6P1wl3mOa0JAhQa5allO7AVWDCv9TMbSqTOaFCdK9fn9Wv3QYUjAU2e0Bok1BWY01JvD+56hWPOimfadiL4tU12cr5lER61SDRC7DWI3p6amVLjl6dxUljZNWjZtlvmZzANcDHsIwGVszLGWRLGk2hlp5luPedUnn7bRXaZjIxaKnaMkwM29+XV/reVz1TXdVD6IEehhBJjQe/jm8tRODwHV0D0d4jKUm4V+pLpsGGgzeoasV0oI01Q5nJyK/QOHFhB2k9wNWOoZQXrNkrSlZjSfyFv7tte24zxUHkaLhojK1poufR+Z8RCrjSqUIY/3SziWCJPCDDS2ObKzp4fqqaOxgLBgpRN54xpyNHnXvVl0siO3woJLEO6kCZC97KLHC7dw7PxM3QM+T28hwEpxvXU/eTZnEAHEcUPF0H2ym0MIwpiQF1XkICMEUE53A6miVVuUC0Fm+w5K8RukAB1M0FN1Nk9MWOyUwQ5CJ96tw/VPGe2LCry0LPz5dewgaWH6wwqvwY2PxH2dvqd6dhOxdTJ8M9iHVOdE21KcR3yPFxE5ueapxI1i6xSDp+x42o/InsralmyLuhxMmFvOHig61WPH5epDj2TRtGY2Ga79WOoEo9iZysjrXvVJpNRRkh9vjAAjMA8BJnR+JBiBRRBAgBm+YEUkw1FPsSCKNYtqqBv67qdF6mjBFg8VivVC1ckGzzyfhDPl2BgoSAjYi65ura1J6uA9EB1I3ff9XLNvesdR0/5E4CBdypT3YOFTbTvVuecGBwchK6/TooAuIPqpN93xNB/q7GY3FwUUV6d9aHWRp+ljP0rOy1LuHJW7EaET4eNFljxlx5POe9jMpG8l1Yk+NEs+YFg85NACduqxp8rh2PgWNXsqu30WA6HbnsrmxpFjo3e+4lP8wDICjEBnBJjQ+clgBJZAgIiMPiaXr193cuZAcUY61bBl1dgJlgQRFguF6qCsmHKUmMHYuBsfPxHJg8VG7Hiey5lIlhTbyLoG0TpwjWeb1vTs9clljh+ohlyDG9vBvkTk1FfdJNbGQoBInRTiZo9pWfKUhEe159iHFgFkcQuibxJ5OyELBduW2572a5E9LRCaBE/kT2RPGehk6dPLwRwyJF9LY8SL/u40/vaQch72c7/xMDVZp0SCBZgK2VdNCwvXXf2AuWH45KpB5wMYgT5BgAm9T240T3MNCMC1jsCtIDTRTQ2GYhBHqmEilu4Hqy7tapq8cTabqw+niiEHYSaBsRxPTKvhoaNJcuWl1G5tgUXbjIGT1U0x5xRZ6h5e5Ponqz1AqRm9Umq6AhlYrVAoEHmSu362DXsrjt4JBZyD+pW3lONyYr7zpFnbj2u641tvzY4XRN9eu15srQqaO+pYdIR4j9zltCDx8KphnEV/YsotP/JUQTGNjm1SqRk9eqI7g7fecPca7iIfwgj0DQJM6H1zq3miq0WAOoemcSRanrXsRt+p54x8oSKtktCbZJ5kbNsZoWIxP7Cp+FxBpRgKxNPo5ARJzJI/3GjVk88jUWopKmLqUFobRykamrRpNsiblOUy1JmN3ORUnkY83m6Jz9Z6LwJAk3hNqkMH6c45dpEFQMcz0XlaVj92mI314/ri7wzOTdY/Wey0CEhSNKtBPFybevDhenDypKnl85COWVjuT23n9WyuXLj2qgdXew95f0agnxBgQu+nu81zXRUCse+biGnPscTlONXCOIb8OpLlUBe90hNShrZh2+6oaSWGG+ThHxedxaDmIiWOo4cHj6ZJBAMWBJ+G0axUa1NNjcraPJA2udGJsAsgdXKlk1yseKN9HMsR+CJjFjXpIF0SnqGe6Z2t5WUmvNS1m0QuxorFi4J2srRQqpUeehjxebzdwd3eqiowNm84Ym0cPbZSvHk/RqAfEWBC78e7znNeEQIJ5EYjx8sRuaGIezZTLXA928jadQmEvhIFlgS0ZaKmfWMm6xuONwByb8izEbHRueEJiCvVMHa9yMjndAjNUK47dU6jXuSk4EYkaIK36feVxtFuCp9Wch6NoUnCFPu2cD3q2rbqcMKKAG3uROsPcr+j96vrQcoOtecFRdcQ3jiV4d86n4ifY52R3bXjOYj8LNxhNRfmfRmBHkeACb3HbzBPb+0IhPV6HupkcIHPPUcaRQa6mjg6+nFTj/PljFZNN/zhjB1YdX8A5D5L5u3HpdVaktbqgZTPJ8ISp4A41NRI47xpgC+wwtvc23OGsNj7yyFBlj7F06kWHedYbl7LnW7B581xUb17FTkASaQqBQ/COsGxk5SG37nAn7LrVTUyNo8eWfUF+QBGoM8QYGGZPrvhPN2VI+DPlEbSuNHSc/4WwkqH1FltWfNYVaKRbM7NuWExQXXXAoueXNs4eTBVyshTZRsr7IyuqoVmGRhlpYsGYysfdec9V+iGp0x1kRxHZ1nrwmD+COg8lKRHZXfYSqQv77tuUYVufDQ+FcI7YczP7G+dg2r+SU9fHxiYOF0M+HhGoNcROO0/FL0OEM+vfxFwT45vhTWuI9K9AASy0qOG2ltHWVaRSKcoEWrNqzk/LCRoZLaUez51XQ0vEmrRm1lpy64VzsadIbc+rSFIRe5MnL95rhDJetOQmkUJv1ckl37TGyClrucsW9EPK10xDKp9540RYASWQIBd7vx4MAKLIOAcO7lTuNxhW5JS2fzdfMfN6namLtfq2OfURjtS29XhgYHSYBAVkC2/qJoaLRYoRI5s+sAPgypSwzUlDFFEZpDLmzLFOy66m4Izc6zoFVrhy91vstLputSMhsrL1pQc13KvIxu/CjJPUeNeoCQ+ErWZHScFyD0I8a0kEWG5UfPnjAAj0BR3YCAYAUZgAQL1sZM74iBYNJM9CUIzzNo1hLsDstjpBILMUZKFcrLKUJDk0nC5GDsIk/qnJqlR87yBoAY9lkot0U3TRwa7ixdJterNTmh0DbE4aBFtpxK3TrdyFe5zIS9LyXFUwraK48RlRZIfXjiWpGoD6lRHErOkVtesm58dHhwckRxESOlf/OHDuUh4Xok9l5ToeGMEGIElEGALnR8PRmARBOqHjl6YhJEBiuq8B972ofGuZzJ1qUb7gczBWjmowG1IFTMNA2tlxicpp0BeFdYryrdQT56iGUxgggxJbpVeATg9gtFeIelWdCkjl7gNkqSa7tNyzXc6vOkO11ZbwtZ0r8MY9+uwyg2MUVjlzfj5LIaEJ5E7Vg3VwuZR51ijJ3vneZBzBIl6kMYd4QeVEWAElkaACZ2fEEagAwKR42buefuPXgCqUZaqlUp8lLZlszWQWUTCKXY+X9mombLiuPZKgtAwWyGYDsYayHtKPku6qhaoXVi5ZNUS0YH8LBA8kTwRISnCOdSoBTrtDq4bNvXaSaXtlKTqCu/qfKu5eRiRMCm7eSTZutypmt4CODMC4V6Hm52S+oRMbMcwAGZFevMZy0RWf2EYiYeNiEbnOnQZiyrdO3T04uXGwZ8zAv2OABN6vz8BPP+OCFQOHLwsqFQHRfX5UmY2iMh3vYxtGi4C6cpGKxOrVWdoJWQ+e2GSVRkcCuTBQWI6SoxbQIRt2jE0oixKv4gUiXRJfz2B5U6LChVET/KwpB5H6xCSh11r4iuRugySpoYrHTu8tbvXQeS4tEducerGtmzcHWV5NSORzKBYyCqmHuOAxf8WJYnqTU1tJCU8qqzjR5YRYAQ6I8CEzk8GI9ABgZnn9l8dez7iv1Q3JXbo6BKmN5HCbUtbNh3dKmmWUa6NhpT9vkJPuLCQYciqxUKq2ZmO0qfzCb5FpEScxLo4hwqreJBi3qjvFr3O4Z538ariRQ1bSE5WtH2lxirNxcHsfBZJphPJcXhRdjl9nUPSTXEY8H2A0L9HC4vB2cz1DpZ2C+LWeRA2qCNDboN9wY6SuXGDHoxP5ufnHWJfUL7hhoocTh04dHF1/4uX4zzP8APLCDACTOj8DDACK0ZgZs+zN5CwDOV4LXaQ0GcHG5IKXBZKpiWIt+ZMvWYFEchTlKktHd+mk0PmVcllo9w1l3nm8KBSOzkew3olkl7xWMVqo5mMRt+TuxsEmydypxfVlaP+m0RjyujCRrK1MYieWqUSBxPZzwrXtV2UrGFaLyBtLTq1CmgQe0Rxcorxg9ALza5uy1rlYmHSuIALQtex8pD1gaJtjAyl/rExSTHN1jlSGWVqsak7rueaYdUrakmslJ7ccwsT+qoeC965zxBYqzuuz2Di6fYTAmgQopSf23+NFEaLSru2EuAyiJmPWFakTpU2V13H3Fcra+OWWo5Mo05RYSFdusSGBiWSMlhMzIt2Zw1VyyBRjLqRrdjCX3SxQVl2p5q0ZMgzDwIeLJVKhcnJyfz4+HiM7+sgfPB15MByJ8nXEC8ab+tFNekUC3dbZWiUvY4NJeUVE16BASLzReLwC4YmzoG1g6HrdWTxk3ueYNSLL72+Avk4coWkWEVEUi5XchXJL5emB+ElyVL79gQlguNff/A7+uk55LkyAqtFgF3uq0WM9+95BEp7911TP35ih7B6O/fnpp7m8cDw0HTei3Kpg9IsUFVWURVi8WOTk0NTqE/fYOdmBuLUUoII2e4paGkuu4tFAQjUvuSC0LzyEhkmtIEEtxpSxH0Q6YoavyxlybeXtLUs+Gb5GLnIdRByFuQMSfoQoneZOq7pWZZF+vEmXrQgsHEcvtUC7EPZ65SMp4H0B5sJeyuyytsfGFo0IMZPxfWNrnIowytcd5klq1ok25YfUEpCtVKQ4khHA9jWodS6RZ15fM/LqgcPX5TftWN/zz+EPEFGYA0IMKGvATQ+pLcRGH/4idvCSpWaqNBE55RUUfcvFGKFwwPFSsYNilR/3jTBZQVlahnLclGfbkEaNnsYVuWUbddG7VypEMW2gpr0WWInazUMJWS2h/bNL42VYtGWfJSem4amR5EHAiXZ11MiLGcB8pYFT353EG2eEu3gQs/jUpQIF1OiHRYYLgidtNezIPNNzW5vYjSrCQu0Yudw9dexarGxWkCEXHgD5IGbboi1C7dPVI6fGIrDKNcpZSFGY3oJ9+TYZ+/+fhzzwbMAB5+SEeh6BNjl3vW3kCdwJhEg1/TEw4/dHlZrxXYyb1rXqYYkreFisZapeYNwE89RiJOCyLQ1HZFhCMXhYPiqKYade3FqYuBFFHWVM3o51TVPJHthhwTuduOCHVH25TeQYLtOnIX4uQUipVbppNR21rc2dznVuzd5OqUYvmjUQol0FEgHsWcwLo8kYVdD5POs85gy8JveB4oJCCF7fWggZ11yIWLlVQsu90VCFNgV7veT93zte8IyLHjeGAFGYAECTOj8UDACbQjUj47tLD2371qQMf1uCIYTrnHwr5mx6yPZgm/WnCFosy+Qc6U6MTWM4LXOuK0gNOxQ0m9VatVq4eDMdP5IGnm1rFmGszlA4leYuen6yLh4tw6JWRFwh7oMud2Fm5vi2ctly8//vP3n9oy8xfZrS6ajIUekEAfSLQ0MDHjouW4hiS4LPt8Cy3oQP6dwzUPKTgookW65sbVgbe2HBYGD81AooS3DXlT5G5tfcwfeVeBxX7SaAJJxaJ5+9NgFh//9rh/hh5YRYAQWIsAud34qGIE2BE5+46HXUZc1aryCjTiWpNriHJLfCpKsq7Xa4GJCM7SvDHd7xrZKHlzUVPfVTuxwMWulcnmg7NTDomo6m3dui3K336Jh5WBFIHRYrFRyRrFrC6RehQucrPRZYZemi5xS04XoDCmwUb/0JkFSNbt4H8SJhQEsWjH4RswA+eoSycjSMe2ECo9AqkGFLpvNOZquxTifhcMGaSeMhYRliLhNKoXD8UTuOq7vkBIcPrLwGVnxyz5DtDjBQiHAseT5OBUcb5b3bbzjVnX7lVdOjB14cQQX1HHSBaa6wLLuFMY+/+XvQwXCR/VsViQQ8sYIMAINBJjQ+UlgBJoIxGiK8uDP/sprwlJliLiDiC9VlTCfy9cKcWqmgW8vpRonVgAgImTAqYpuQN89nJPYRicEyUvIbNcn6zP53AUvq1rXXamlIPFWDTaRI5EmLFkDSWiUjGZSjJtIPITIyzPPPBOMjY3p2F+Um4Gw4TygL8TfYFdVUXG+mOL/rSQ8+koFaCBVqrITPN+66U2idzRVI/HZAdThyTG86gPFonPNdde5mzZtovp2rDYk8hjk8JU8CKT1TqpwVYyvpVC3ZIkexu/ScVQKN+eBI0LH/LViIb/15TfF6eFjzrSh6l6tlqFEuPalgqgYwCSrBw5cfuyue96B8/wVP7yMACNwCgEmdH4aGIEmAjPPPHcdXteTZR0hoA1S9orZrGMHUU6aHy9fAjU1CDO2bbn1cmDOd0uTSg20USV7oBhtfsXLZcsyLZdqxUXb88ZGVjo2G777Eumpg8iysKTjf/7Hf6r/+Z/8iQpCl3dfdGHqOm46MT4ubFxky8u4qLxj5w7p4IEXQf4hzkmNXyBfh25uF118kXTk8BGZstqFlQ7Cp0XCjt27lJnp6cLkxCQSzTVSbIMSrSSjtEz9nre9Vf3g//71eGh4GBGBMGwltuEreQFI3tXFooOEZSwqx6d1w3xY6BhaR8BV7+O6rVK1Tuiphbe8Xs7806ezmzQjmIIefrVWy5FXo21nUXQQVWtDY1+Ale66/wAd/XOSa8C/JIxANyDAhN4Nd4nHeE4QOPalr3+3NzG5iVqfGoblF0FChodMdkiPLu9Unh2ijOx1wzJsp4bkNzDcHNexIN8oTvOXXBhtvP1mGRlmC2LxZKWTSQ7SpGB6QG7wo8eOBf/+qU/pk1NT9uDgoJzP5yUdVrXveaJmnRYBGSjN0fvo9EbKcbMd2Yi4ETKQCsWC0ixHE4Mlws/ncxgPstv9gFzyYiy0v+e6mS98/vPaHa98Zf3t7/g++jsxC0ErkQ7nor7mGoiaXPBwcIT084L5YHwBNZShEriON5IWM5hz5vJLbPu2G2v1e+8b2jg86BjoJT9Tr9qoGjBoEdE6VoGZXtm77zrUpb8R7/3bOXk4+CKMQBcgwElxXXCTeIhnHwF3YmrD+IPfvhPNVjIWWqIOZezQcDy4oBcmvy03GrLCzShCXrglkuPaN4jWSGrGjDbeenNob9xgQXJtjnXe2pcIGhxmU9wb3nevXq0aEYRuGm3S2+n11NlbonaLLz7avOJk6orYNx3VaAbT2oiwEVcn3zqJz5C7XUQL5s+bpGaxUXigiIQ5iWrZm9n5ImGutdAgGVrMgzTeF3fLUwUbYvLD3/dm+BrkUPJ8e9CP8hvyRZS5WdR2TlQO0EbhBOq+dvyue98RuV4TkOXuCn/OCPQ+AkzovX+PeYYrQODovV99SxXtUu2sXR+C5Qubk0qjRFLbGjZY6ZGZMcyAgtazLEaWNErVrNHRZNMrXk7+aT1pkGLHrenapqS4GC1ZvXwh78MKhsEaSlEc4RJ44fv2F0hfogS7Be8396WObfQZnSMMGvtGEX5uvi8+w/ewuEWgfXTjhlYP9o5/K9qs9ZydyZgIE1BZnov3xcRIJhZETwRP51mc0BEWoDwC+6aX2PY1l7sxro9jtbzrD2y0syRGU0c2IC0uxIakOSE0M/3YU7et4f7wIYxATyLALveevK08qdUg4CNW+61f/LXXwyIv5KB0Cv/zopKvKz4veBwnURVDD1KQuzhOxMbTZPjaK8PBqy830G+1o3XeugZZ6XBnW8h2D7Zu2RK98U1vkmZmpt3pqWmqC9cpwS2by0KCTnR4DUGmUFQ1dFjLIc7dbBQn8shQIWcYuVw2REOUhGLqZJxTchyVyNnZbFIo+JThTruCihNZG9CSV935qvjWl7+cur/R3wkk/i9c3szG1bEDrm9a0GjHYoAkZeuIr9tkneMaJJLTaUFAJxSgiDkjlQ/eC33grd9Zrz/8ZKLYGSWOE8V0/cIGy6xNZxWn6jkWchDMmI6Ymt54/HP3vBPffXnF94V3ZAR6GAEm9B6+uTy1lSEw9e3HXhHtO3BtPpVMBJSXFl9f2SlpLxn6qujbknHrQYUy1UUnNS2XjTe98tYILu2sPy8ZrtOpyUonXReQu/vWt78tc8lll/pHDx8OkASHyjQ5wsvB5yTXGuCNQbyvguA9En9rnA/adBgLFgUU6/bxGYLrDUsZCXMy6ulJ3pWI3oM3IcLnpBqnF4vF9KZbbs4MDw/TtalUDoo5oi6+zeHQ+JbK5GDVR8eOHQvJDb9x06YM6thD6L1XMa4a3ivQ+JvOCiJ2Eq4hDXikK8hoTpfSPEiwJpH8VDHvuDk0dm134vGJHE4uXOyqF+RGdNU3c3lnul5LkfRnAF9j6lsPv2r6iadvHLr2ym+v/NbwnoxAbyLAhN6b95VntUIEKAa7/7f+4Lv1k1M7SJ5tjot8hefoSMRkAIexnjWsOhg3gt1LHdDS/LYt0cjNL6EssCXLvFrnbLPSPRByeMvLXlZUb71VAlkmsHxTJMCJBirYfxgvq1arybDQB+aPCe+j50lugcKahxg+MtppwUGufRKNoX3mxMtJBpaIF++33O+zCXcU00emvftv//qv0de//vUYpXXStddeG33/u96l7ty5k5L1Alzbb5bMUc06ETlJ2tJGixIaO5E8QS8WPUo+p5uvvd2r/eXHs+qAIeRvKfVegaejECuqZufrM7oXetTe9uTE1uN33U1WOhP6aTyvfGhvIMCE3hv3kWexRgSqTz17S/lbj7xaSVKdxGQWUypb7ekbPuQUVnpiGEiOC2v1PGq+k6HrrgpzO7ajU1kgssxXshGpgzizsLLL5VIpIYsY7myLSstRMmaTlKrITEfGe7VandNKteUSL5fLIhOejm25zukzLAzIrZ8iO96BNW00+6vPDqtpkFM8nOrQ9aYwjTgXZcy7rhd89CMf8f/kD//Icj0vT+/d88W7o5MnTk7/r1//dXtkdGQbNWTBeHN0bOva9JWs/Sapi+uJRDoqqUMegPma20P3X++i/qwZEtyhjVwOVMZmwwWvZczajKLVnXotO/6Nb7228tz+qwqXXrRnJXjyPoxAryLASXG9emd5XssigOJqdeLur7w9OjG+IxR0caa87af4sJkcR65oxIcz6caX30yF1Toy24ielh0jEXWzLj1FjDqBK7xGpWlw5WvU05w6o7VO0lSSE2VnRJ7tPxNZLvY+9TyHtR/hK4nEzC4I2rzr5Gont/isrg4RMi0O9j7zTPj5z91lwtVvbdiwQUJJnYS6de2zn/1s9qknn6T9dXgRQoyzpTonzk9jaWXCzwcBJC4pu7fbxm03uWkdZeZt4fem8p5suEF+RFL0Qjbv+CfGtx9tCM3wxgj0NQJM6H19+/t78pWnn7uh9M1HX63AiiZv75myzuegGscqKrBRna0G2a2bo+EbrkVwOyU2WxL8FulhIRCB/FDSLvsg9Cy01W0QL7nHVYpXd0pUW+zEnfYVfu9G9jidc/kVxtyTp1NTU9RnHZo0mlh4UJY8FgeoOvPUycmJAGOEi8KgcTsiRk6rJgJ7sdfs6kQ2rDe8UpYsPYBVPueqrUw6JQjtIeQ9DISJXf7WY6+qHjpyQX8/0Tz7fkeACb3fn4A+nT+sc3niC19+R3Rs7AL4ks8eCuRXDtBW1c64+csvjrJbNhtC9KVj0nfDOhYJdJRrniTkBqf2pWQNE+Fmm7FuF0RJce0Vj3uxfel9LBAoNk7Z7IttNIvZZjVtO8kXXHhBsnHjxojU7lpueNSuS0MDQ/G27dspLEDHGSB05AGKbm3LN3UhNT0/SNVrLsuY11/lpFRC1wEvEdZAXL0IS906eOyK8tce/K4VA8I7MgI9iAATeg/eVJ7S8ghUn95788w3vvV6aqbS0EFftXW6/EUaJi/SySLdztjxyI0vCeFuNxPUf8/f2ohcNEUBEdZBgDFluONFGuqtfBerqfZG2eGLjmGxErP2A8hixrmo9/ly4iyUzEb7iL8XrbFS//TdF1xgvutHfti/6OKLq4jHx9PT0ynq0d3/78feHV151VW0SBDHkOwrSN3Htwsn32kWVL4PU998w6sSLG3IFdFxrk1rPbUdfzB64OHvgPt964puDO/ECPQgApwU14M3lae0NAKoC1f2/78/+b7oyPGLml3VzhpkIkM7ipRsIa9tuOG6gNqwtC8dWpZz0wXtkz1PhN20mue0Gm0NEgRMXc9Eo5XGmmFNGx3rdJJq7XC2Vib6nC5p5PInb8J3ffd3pxs3bEgefPAh0nZPr7rqKuk1r3tthiRo6VzNxQVSCDIW3PMOStzyZPEvGS4g7wO8KNrN15v6JRfUo4NHCiia7xhiaLngnT3P3Vi7/1skB/uXa0KED2IEuhwBJvQuv4E8/NUjUNmz96bpB779OhRnGyDYs2adz44MsqaZkRHd3rGVStdm3cdtZE4JZ2SVUzwbJeEKEfkCqdW2mVJNuRCTASmi3frKSH1ehjklqvm41sAK4vAiIR0vynaf/ZuB4+j6Dixy65WvfrV16+23R1SeRkIy2G9Bi1QcbyOhr4S4O/VTX8rF35gqyd8OD5jGa24vh3/4sQTKNQ1FnHkbeUHIhNdq9aHaAw+/PpyZ+Rd9cHBm9U8GH8EIdDcC7HLv7vvHo18lApHn6ZTZHh8+fjHY6IyVqS02DGoPJqtKYl9yga9lMgZi92JXInOKJ1OcnJqbwL1OjVOouQllmi9F5uJ4Ul6jzHF8G6wSglZ2OcXmSVRm2Wvh/MSiRMLiWs2xk6veQcKbhjlQfJ+ayVBr1Vk3e3Nc8cmTJ70HvvGN2hOPP077k2gNxdKp7H/podPnUaQad9yiK5s3eAiPzLaZnX9gM/tdcp585haozL1qtZjw/oxALyDAFnov3EWew4oRqD75zMunvvaN75Tjc2CdU3IXrHOY3XLmgp0a9fcWJWiNUjSvaSFT6TeR4HJx7DlzJKsahEoNT+qw+slKX1Rrvf1ActNj80G+5LLPrMA6bx1OXoRZMsfY69S3HR/SImSWmel8bUSdoCa9/lcf/ah2+NAh6qEu3Xr7bcHPfeADISnowf1OSX5LZ+pDhlbZvjljvuKWqvfPn7HlwWLH/YWVTk1lpkqbq/d9801Rrf5FqPLVV/xg8I6MQA8gwITeAzeRp7AyBIJKNX/ww3/x9vjYyQtCyrZeoat6ZWdfZC8imVw2si7YQd3CUCGXkKubrHJSSSNCXkDGLZJdyoKlfSjOTpKvSE4jJbY55Nx+jvYSMTKMcU1y7+dFfH8VGf7kdqcyumbCniDz+QsJGnOL1J/Zs6f+O7/12+pTTz1pkQeCAH/66T1KPl+I3vf+n3ZA6BRaWP5vENTkjNfcprp3fSmQIPcq6tI7uN4byY2J4jy25zZ3z96bcW7WeD+th5cP7jYE2OXebXeMx7tmBGpQhZv62oNvgp9bW2MXtdVdW5AOCD1rp9a2LQEC0JS5TqVolLkuFN46WdZtgiuUEd7xhYxxilXHZKXj+xpq1F3Ep2N8n8L6JQuYupxFeF98RQMWkolN8H2Z6sTpurhOVBgYSHHMSuZFqm6UdS/c5jiADlrq70fy5S9/Wdn/wj4L11bwktAxDWHwjP7ZT39GRkq8RLXptKBY1vUeQ5Xu0gvUzM3Xz0h1lLAt4qqnBVoIj4gyNr67+vWHvnMlk+J9GIFeQmD51XEvzZbn0rcIhOVK7sCH/uyt0smJHbCSz411TnROljSIzCwWFASrQeEmESER4oKtZdm6jhvef9997rPPPktxaqF4Ortz0zJVdS0Hdz4cDUkAfouSOCnB9LYhJ5tBmVeFtM9ne79SbbuqFLCPi/NUqUwNFWtIGpOT4kAxf/srXqHv2rVrqVi6qEPHQoREbsgq75h9P29CKWRo4YundYPIFyAsSO1Ortaq9LOFBUaMrmw+3p5Vu+v4gKKETceiYOi7Xxcc/eqDCWR6F11IiK7qUazXH3nyjvpTz96Yvfpy1njv29/6/ps4E3r/3fO+nHH5iadvm/zaA2Sdk9s7RSq5wKG97utMW+3EwmDjxNw06pmDBYqT02vRTDAivgiNzv/ub//W+6M/+EPNdR1yyc+PGYv2adt3btdQ962VZkpCx100finkldENG9TDBw8VMMdGxxMyo3Henbt3aSfHTtr1eo3EXkTDE9o2bd6kPvTAA/5/+5Vfibdu2ybc8B0sYMq+pxeROb2W3JrnUG9+2cu8v/nYx+RqtWblIFdLFvSRw4elt33f9yX5AjrVYtyw2iv1ep3aq86Oqf3kNBYhm6sofu6l1+atKy51gmf35eSsDVwWCgIJKx3vqwcOX1m7T5SwMaEvd8P4855BgF3uPXMreSKLIRBOTm+o3f3Vd5gzlU1msTiNnt2uls2WZcuqIxAdQnItohad7UruxLqt1+kgS3FnY3AAbnMy0Bcn8xbBHjlyJPzyvffKx44eycCKNVCzbSBGPvuCypwZRqEJa5ukXzX6LKQX3sdigFqcKvjeiJvvR/iefsb5sZCJdHF88z36imPURx991Lj/vvuFhb5ITJ0kXB3qy46vNexG2fWLrn+IqGm79dZbs+97//vryGp3pqemwomJiQjegNIHfuHnTXR+I2NCw1dKlhPJa4u60qEhTy3l9KGh3MAbXx3Gvt9YrSyyUSkidWarP/bU7d6Bw5eczv3jYxmBbkKALfRuuls81jUh4Dz+1G3u1x56M9p2aann51MUTIHA4ZGGnGk+V0MNsxSFsZZqUAd3/axIFoMGO0xDnUidmIus3BaDtUzsZS365g6o5yJT0sFrSQudJofuYWHdcWQsOuSWPnr7pIX1izcgni6pWCO0mrBQkpimNRqyzD+OiBJa8pKmauKz9q5n9DMWCBopvNFUhX984UbechWETtiIvup4VfCivx8LEuNah1M9+g//yI8Wb7zpJn/v3r0zcLHr1113fWY7us21PA+kIAc3/AzkYjPIL1jg9m9m88cmGtNIuqHlX3WrOvl3/+Im06WsjHL3Tln6ZKVTyKH29N6Xlh994naM5/k1PTh8ECPQZQgwoXfZDePhrg6BYGJiw8nf+8u3aFVnKEARGWqbRPxaDRJVMJfji9or8mMnsYxYLly/lglrNDASTXVTVQPJu1ki+8gPM2kUEsnTaoCCw0uSPAL1gtKhXArtUilEDToVobsk0AIizeJ7quumcjWTGJPIdGBgwLTtTFKv1VJYr+hLMq8xSZPQUcHeikuLr41Xo+lJ6+cWUmKcs/s0ktBaREhtXEMw+sZNm8jqFi73DpuGY2x8Rq5xhbwAIHfR1AWEXG0uKmixsiAWnsvntJtuvlm57vrrqTUruqOKRYDYmmsHBURvI9GuPjMzI/q1t48PPyY4xkU6v0UrGW3TaKbwmturUx/75yxaqALcjkIzEjRtfb9aK45/+f43O4ePfQmiPgdX9+Tw3oxA9yHAhN5994xHvAoEnMeevr2Cph3QGaV4crv5KXLGqL+2IBG8kGzVOLPr5hG5Jke8IcmRLdLLVCOIVURtc7kZ0LMSQZ89RbORoFYrIhEtAWfTv43fJ6rXbnKWkCUNI5J1yyCuraPuS0XyWkqE2OAuOQExlvE9yqhTC3Fs713vepd35NBh+9Dhwxkqb2tm5adYQVBZu8gxC4NQ8YMgRekXHU/nk8PAxytU4Kanxi7i3ORqJ7c/1hIavU/SrETAtGEnGc3Q1O/53u8N3vAdbxBjb302D+LW34lmSF6Gwa/SwkGhGnhqFIMxBHi55BmnzHs6Vds5FBB2Jyd58PDDD9Ncczt37Zy44MILaYw2wgWzanrUgwbHUjqhWIhphbxafP2r1Ol//ZxPjVmof3qnRQgtbQBMVHr4sVeWH3vqNhx6cBWPDe/KCHQlAkzoXXnbeNArQcCfmNw0/gd/9Z2m4w24EmW2L3QnL+I2R3Y2/oObuVXvLLteHj/LKJvShBteUWJkk8uxgl+hQrYSeYEFqqbsrdCv1AckU/diP7CgG6/5E1MWrHxDNwwZJKq2WaCkskbESJatcHmTBXzn619vX3rF5d7YsbFyDDZHQlgFn+rIVLewLonxs+6HwSBc7iHYOoKvAN4GOaIScfxjG7o+DYKPcGgB1FuGNwCxeH8YwWoHTBxRAnwLP4wpu2v3rgxKyJaSbaOxkc48eRFyrbr2pqAMljmpiOeT+hv2E3Xq5FJv6tHPkXhtJd1hYeH/z1/5H/X/+PSnc/hWgdt9AxYWlff9zPtpwUMei5YFj3WTTp6MYnPMinHBDjP/spe69XvvM0loZr6VTvcOZn2UKFKgO16h9MC3XudNTN5jjY6cXMlzw/swAt2KABN6t945HveyCATPv3hN9b6H3gi7dtl9O+3QTvZk6Yp9iORpI0sb1inMRlmqOoMa7EFYkTEYL82SCptlBRHYNLEzFdXz0qRW16XRRoJ4m0VJIi/0VrvSmlgw7Nq129i9+wJiNfpwuGH2pwH+IUvYLJfLqOm2qK0qESa5y21wuA5ylEHOIyDeOi0UmpnpAygho+YoOYqZtzYaByx8yi5fisxbu1M9/Jz1T7tlTAsRfE7ueIq1GxRWgFeA1PBIYrYVa9eaRJ1+5C//svrxv/u7Acu0yJ0vwTK3oCin7rpgd+0/vfOdYn7kecCiwIOFPiezXhse1IpvuDOtfvmBEF6VBSWACfgcdXwIC4Qa3BvS9EOPvGb06edfivHdtaYHgQ9iBLoEAc5y75IbxcNcHQJRpZqtPfjw68xybRTO7Y7W+erOeGrvNlYTbnuyUAXhJqkGE1ynl1pzBpB+jjx6f8CaLNnJ5GRNsOa8GHXL2m19JXJrlq9RnFpFljoRpE7kBHe6DcIuuq6bARHr+Grjq0oWLsgzxVfqduaRCxxXquOcL4AUCzgfnYOuTrw7uwl3Psh8hWpxgrAXw6zdaqcL4Jo63sthXEWMiVzpNVynRK55nCP6ype+XMD3GrwOLW15Im/9vq99HZGEwKP1AY2LJGqxHpiTLIeCeDVz/ZWGeeUlXlpz5vRKb65MQOMi3AD3Bdz00+VN0/d/8zuCSm1FCjprfS74OEbgfCPAhH6+7wBf/6wg4B8+dnkVhA6/M/nZl01IP8ODAJs0WqGDApV4pmwETz5Hnd0o+XrJ7RSxty0gsAhoWcPElUR2FCCnjUgRe1K/dIPkX0Hc5K6WIdiSok59COTokKu800Xb3NrLTZ8uRQlxVP62ovHTfs2xktVuYY1BxE7udeLYaYQDiLSx26m50UKGFiOarldaljxZ+Nh/fmc2Wd84Ygy89g5KNKTFy+wmCF3XgpjWA1Suh3uPFnDyzP3ffL2zd98Ny02UP2cEuhkBJvRuvns89kUR8PbsvVF68fCVzX7n5/w5xwVFw2+Et5F2pri1vfupfjtU9NOPcs0nwTZyF+F9kHkZZD4K630DytFMfJ1ajNRX+gjRwgHXFS7zlW7zrHYaJtXNk/t89NWvudNHJr+IhTTL6CBAU43f/N1vzhXyeUq08/FRqxXrgpCAattq7o5bKvqWTT5KEefUsNOCBrX5WqMuEckFtIo6NnbRFFrmRp6/ku5yK50i78cIrCsEzvkfunU1ex5MTyIQnJjYUn90z+0QTVXwp3xtAfRVIiOy5OlFWeu65se2Wa5mjPKUpVeOuDXthW88mKvtP+BrlLG9ioYoKx1GM9EuBHmTnOogZZs3FeEskHoR77U04ReccoUkHeIajjCpV7m1L0BoTPAaKP/53e/Ov/vHf3wG1rsLYvewj/sLv/RLJ773bW+jFU8BJXvkWYjgcl8Y32+MQAGZj+Zf9bIgqUOXpilmQxIDKDcM6Cs5SJqDTVBCIJce+PZrnQMHr1nl8Hl3RqBrEDh9c6FrpsoD7RcEguMndruP77mN/NsUPp8tIjvDAMwqyaE8KgaJR4bmuag4RyDbqJerWdSyUbY8aZpK0eGj2onP3VMtvP8nqBa9o5b7aodHJE5b01VdrtVqlFxWgKDLrIxqMyavw/qVYLXPjIyMUN071cCvdqM6uEYz99PYaDwUG0e2vfXB3/jf+jve+Z8qR48ejS+44AL9kksvHYUrvgbrPAShkyv9BBYAOxdcrknx+vCgWXjtK2ZK/3FPJg1ClLBhSYXERLjYFVjimTYBIJk8NdEzz91YfeLpW3C+x05jCnwoI7BuEWBCX7e3hge2VgS8vfuvUyemt9Mf8U6lams97yyBy8hmR457BBL3Ib/uxJHiha4aVLxBUqAjNy8Rl9ZMXkctmgTC0Y7/xxesza9/db142cUDPqxKJHct3Qt8ZQOlZLgpWOYZJKDZ4sJtW1vsXYJm+iA+qgwODpZAlAMrO/2cvYRLn1zaazhWHNKK2zebtajXXHvt4LXXXSdIHvMg4IZQVE8tZieQxV/BIoVIfYAS+0jEBhY7nSYLvwvaqELJ5sLdM9kbr8vVv/INUxkckMgypyRIUeTfHCQlM5CnxsTiagZud+fIsc/b21loZq33kI9bvwgwoa/fe8MjWwMCwfjkxpO//5c3NbTfGr1J1nCa2UPoYOG2RX050q2D2NDcWhQpbuAbft0x4iDM08ckDdt0uc/mvc36pilBDOTtHD5qvPBnHwuu/p1fczR0XUNdl8jQXq0Xuy2ZzUemew3u9DzIzmxlyHeabzNJDapwYWFycrIOUp8EaY6sAhudcvDaeHIVh87dtTVfGi8WIi2BHSLzCC9qMUtCNRsoiQ7qcVRqR+kIVN9uNdcrUL7VasDU1YYGiuZtNx2ofu3Ba9UE0j+mQbr8KQ4QSoCte4CvcC+k0sy3Hn2Vc+DQFfjo4JonwAcyAusUASb0dXpjeFhrQwCNWLZ4z+57KWKmazpBq+xJHKxDvwVE7oFo3DiEFe6pYc0vQuddBHaJXKASI3YV5WtLXJEc/8hPV0988at27uK/q1303v+PtOJnBVRWS+rUgYxaj8KyFdbrSidLGfI4Njs1NaWC1ClZjuRWVxICoL8VrfXNmi301jjbwwXkyiciB0lT6Zpozyrc8uiwhveobzxdd05SHkILOmTyCpJhTKZXXfJV85ILL45eOJiPTUOO0NCmdU9mr4fbRVJ8Wccvlr71+CvDWv3Lei5L9fu8MQI9gwATes/cSp4IIRCNT24NDx+9mNiVrLIVMg8poMFXLtzoAdRbYl+RQ8f3jMBBt7MgpLIwfNyIxhOJt1l+KwQeR6CZSoorHPjzj9lqPlvd/UPvkOIgMCEHuxpLnWRea7DMSRud4uVzLPxOC4N2L3ybdW+B1CEUZzh4tf4OdEhAIyDFbBMo47k4nizfuS1UW2DM+rgXR701FhA2HUX91VtEThi3FhatM5KHRXzfbtXPknSjfC9Jtmyc1m64uhY9f8CCrFyQIPzQbp23kXqK1qpy+ZHHX+Effd3FeP+pFd483o0R6AoETssd2RUz5EH2DQIxiay8cPBKO5VR890oBF9k8hQEJhKP0X7MDy2jVkU2+kldqx7z6sqx8kx2cmpq2K3V89BhN0mrdaWW+NJgN1zvsefre3/vz7Wn/+SjVSSBBejGlgpSp1XDIkuQ5vswPoMZxJVlUmNrqszNueQyx8/Zl4LSOFcOCXNkqVILUwigU/PRBoeKVyNFHfl9EFVPkwA44KtELxefNl5SGmK1IyHKncgQgsGLitAbSyo6V1Msh74nIscrwKVLWEjUsCDJ4nuK7bd7CcR9o0XWfDxbGfPiKw2QVOnQDte86fpPKaPDLrT1jYRq8TvcCBoJKejX9jx3Q/3Q4Uv75heDJ9o3CLCF3je3uvcnmtTQUe3wsYub7vb58XPSboV9ibbgiIX7uhKgpZrsQY3Nr3noJR6RG11Y4cJ/vSYrfAUYUzw9g/w1DOWp3/7wYHXvvupVP/seJbdtS44EUMB4HSXniQRhlddB6NTCVLQfXenWXjY255im+Auy8s2pcqlezOYqUhTl4ZMHdYdBXKmF3tHjRlgq14Opad85cCTjnhhHCn3iWZpe1wKSeBWsLyv5bKpv21LRt22NtQ1DWX3ndgnxbVOxTOrpCsoXCfJE5CQFS+50yj1Y8u/P/AS/TvPF6gDegtSWL9z5DfmqS94e3vegik4w1HRnQQiE7i/eTbMIfVQff/plUaX2H1ohR/XuvDECPYEAE3pP3EaeBCEAAhryXzh0hRCTIRc6LEvSVoewS4SOJqGvKoGHHqmu7xphLcjDKha66SIjfYWx8NNFmmxWqimDyWsalqUe/OSni1OPPulc+hM/XN72+ldnjMEBgzLlwTv0omQ7DDNGi3QnRJJYAeVeQvt8wSbM1cWi+I38fPEpWb3kqkYXVJE75npxMlOWaycmk5mDh3z55LTn7jtgoV7bDMtV2R07aQA9tC4lmZZGCEPLZILEMDM6esuLIn+6bix8IiNYkUipYUT6xtEgc/Fux7zpOil7202JtWtHaOSy1ISGYvbLxvybanjU+GW5qEkKjVxLGx1+3rzl+n+M73/o3Z3IvIUXrT9CnLP61N4bvcmpnXife6Wf7kPNx68bBJjQ182t4IGcLgKp6+biicktAdy6qW3VA/A5ysoSJwxUz3HMOAptOIJFH/NGS5S1xMJPc5QgRvRWj9AiVBCVMVCU3KPHsw//wv+yXvzkZ5wL3vk93qbbbjasoWFTNg1Uu6FPG2Rc0bccbVrJ1G2UjZ2i7ibL0jvCtS3cDI25wcNNWfSNN6kFGYCp113vyJianJyoOXv22u7UTOocP2Erz79oRbVaHha6IkM6XdZ0STF0yyjkW2EAkUBACxLdzEAHFgsLEslpwNjYmoPC+DQsErTq1x+SqvfeJ02PDtUH3vTaeOgdb9bMC3elsNppz+WImq5LbvjZmvqOyCPzHq1sh+2CXcpdcdnX4BX4iXB8UkL7tkXaqiI5DgOt733++vDkxDYm9NN8nvnwdYUAE/q6uh08mNNBwK9UBku1WrYqJ17gOzDH3Qw4neRGxCas8AYpLZmRfjpjWOpYwWAQPolRx452q+i5jg0tWIl8dLimZx55Iv+tbz0SFy65yNt8x631kVteWtO2bdHkQm5Asy2UWKuULE82PrEo9SdNUE7XqO1WqZFqrCQhPBLQPU1cV5X8sAbSksMjx5TqTFktPbVXkyemAvfFw7m4Wh9GDZssbYRRPTJE3eNMvQjjWfjQZ5m5GUI/tXxAQIA60STYX2sp3nXyC8iQuFUNeNXpfGGUnf7bT2ZnPnePO/Ij76gMfe+bMsbWDbDWl44bYP1ikR78kpiSxrwsbzQ1LdK3bd6XvfSiF2YOH79CsuGJjxeOTLjdMT/LD3O1fQeuxrm/fLbuN5+XETjXCDChn2vE+XpnDYHyyfHN09NTI7DQhfknstLPkSt9pZNqeMYpEHCqAZxIRKMFRz6H2ixJdQ4eyT73zMek/X/9jxlr02iSu+jCur1ja2qOjuiFrZsdPWcrvpzmsRTw9BgeZFj7EXque9VqNkzSoH50rOK98GIhqda1uFyV4qlpO754t6ScnMLJnSEiO7WQa3B3PiuJJrC0MFhGkpYwVTU9wNohTf2AGp8suoms9ObCgBTc1OFBiOsEmZP/54+s+gMPVzb9wnuCzNVXZCFQi79BHTmb3hTNYBZL9KOLw+mAlnZWjLh8kIwOH8pde8XXpu697zIo6C/eGa6xnpOdFw9d5s/MFM3BwfJK7x/vxwisZwSY0Nfz3eGxrRiBGJptxz75mQGon6ADigKvaqNv+VKks+KTn6EdBYsgnk+tPcnvP39sLUJVM5akZtHpE/XuwcSUNHn0hClFoQQx9iQ3OBAUC4VEHh3SlPHprFypI08AjFivK/EALOzBoqkdHRslvTpkz8N1DksZCmopFguKHzRInAxjIltUjlF2/Ww2Os1ziUI/Gi9l+2PRAUoX6msr2gS5UxY/xqJv2ih733ysePA9/7W+5b+/v1p87StySsbUG16HBaeLRSUC6tIXuxCS7ALTMMYo5wD93itjX/jSA/pw8UdT17eQbd/R7U4QIM9Crj//wjURWqvi3EzoK7qTvNN6R2DlqbLrfSY8vr5GIPED2yxVNwxrppTL56uwgUkBdPlA7TlEDfFs2I1KgsWHtZx1S0RL+yioM9eKeUkbGZaskWEFkxqect1Bh7K4NdCrqesqGE0tFqH7NiSriMkrcJ2rIHDE4EHe8JGT5U1l3+LrbFlas8CbSHxpIm9BREfCEg5x1TX1lxfZ9ujLLg8WJalayx79hV/LTn/i07XE9ahH+oIN7nZKje/4mVisQT0OqnIuZONewA+ijaq5ZfN+a+uWGjwISy9OMBb/+ImdUd2hJD3eGIGeQIAJvSduI08CsWg9rFQHi6oubYApOFocqKKzmUcUtmz21TmArzkGONTVEG7ipQPDbeMRJEjkTQRPL1EWnmoueopVdc2NLbMGebWQiBrCL6de9POcrPdFlhCN1PcVIUALEkiqohVNBHf7Su3zhadOI1jrGVNSTdM49uu/l5/5xH/UkzCgSr75mfqkHEcqcp3GR5/5qGM/iq/PNoVqJH1k6Ji5Y+tTkNUlX33HeVH6IAU5opnKSFSuDK9o8rwTI9AFCDChd8FN4iEujwDIToelZwu71vNzRT/Kb7Tzvm3bDlHQymlr+WuteQ8qoSMHeRQvGX9e+vwNrwORnIus9EnP1VxDq6e6BoVaWSxeOtPYykh7qWuDONFUTkOR+unp44vERAQeEJCXdDurHf+tP8yWP3tPDU58cZ/a1zP4vrHkmEfOWKwg9K87eD0BMi9hF1FPrhYLk9au7c9CMIgS9zpOh5z7tCCx4sT0T05uWfP95AMZgXWGABP6OrshPJw1IkBZ12ihSUcLBzMs2IzrFzbqplTM5eqqoXuk5X36tLa28ZHtKTLcSTjmDG1Ci83z7elKJVdRZQ+68/Azg247botZ6GSvLj+g5iIiEWV/wHbt9nnzWkTq5P5Hwhz6xxtjv/EHZu2hx6pgbnIt0E7N/MGOV8IaTQlgndNcj+G2Ups2CPD5WB/YrrVl0wGEIUD5i0BxaghSMDlFMXTeGIGeQIAJvSduI0+C0rRQjwSPcIOfiAbw51zWvDA3nMjWiJ33MrDWUfslzLYVcNiZBZXKwjU1hEhMq6vq2s/fNMMF4+GlgGArpXKxHAaKR/leuu4RXy68wBKzXuYjgEYkmkLphTLq1j729iObpC7rhpTUHfvYr31ID46dgKVOH5AyL1Xez41OkKVO1jlkY0kDvo7vx3FKkq6lhYBIhNRHR46p+TzCEHDtL+52FysfcrmHpUqjoJ43RqDLEWBC7/IbyMM/hUAnmiEXvAw99pwXFDYamaSYy9ZRI+2TTNq5JXW42+HpFc1YzthNO3Um0puP48iohaFaVSQ/QtMVaKuHS/6Ct1YEDSf+oqOi3Sh+rmtqhII1cgycuY0IGq5xBVn9/vMHcuMf/kiUhGGrCxoVA1CXtdnrkaoOkuAodo78QuU4fpzGhw7tQMp39NUcHR7Thwfc/7+9Kw2SozzPM313z7Eze+lGAhkBEggMxWUMxidOcLAxdmzHFVKJCYmDnR9O5U9c5XIqhytxJZVyYid2lU1MLofyUVimAsgYYwwhHAYbbA5JoFurlXbn6pm+u/O838ysVtKudnZ2dne0vA1Tq5md/vr7np7Z53uv56VY/VxZ+5Fdz5P2e+8WxCMxAsuHABP68mHPV+4xAlA4OzUGK64gWnbhj70GMZfhlKIOW1kXsqsOueZ7PIUZhxN0SRry6OaG5LWWVHyzRn7BD2qKQmVo+NnUd0/LtVp1oAxD3ddVB9a6J2RUW+/BP6Zds8V3LWW52eZCpIj4eUwK7OgKA6H0k+d9JtLsCF8yyEHqlM1f3vFQrvrDx17HmDbOJZlbUYtOx5R1rqo2rPM8Yuf78fIYHqKxDHz4TQFA1KSjZM1BQ5lZ9ynCB4Bx4aeH+BC8JnwwAisAAf4gr4CbyEsAAhKsR113mkpqpyNCL5G1LvuBOSBJqmaYThkNRuqeo1PHLtBcrxzJp11cWLhpOMajUCGxGyKS0HVTUHRrVnR3avLS2hAXTgdGSrLrUmzbkHJFs7NW8xPZMkjeNRXbThLYjUwDrWCzluVkkrSfQEEvXbPTsl1PUpB2bdehU759ZOtSYiMaQU7oGVzUtOvBBiiATl2EMi+qPz+xEYKjA/XuKJ/rgde6KSKjHvuXe9Znr7n820qx8GZsHTbi8gaBSgwM/FxVRr8XZLZDPveXePkgHmTRCw0aQehYd1pTbVGqN0dwBar66Gm79BEY/s4yAouBABP6YqDKYy45AmhL6qVNo04aK9T9q9m5/PSDAugUczbcODuiaY5uyU7Vd0PfcU0h8r4YByV6oX4bWvIgj6YY+8CWN/mFC94kCJRy2zq6sLBkwT6oP48sQ5UdL6DOaGKpIPrY1JE2DqPWdgIyuqk8DmSvm5mMraBETKo7cMKjELwdlgbhwY8uRThPu7ThT6myTdtgUGSC2sToIHTq0JLy/QDoNgmd0upRbea9tEsKjowrIFl6b9eHuL6hp9yXd1ml7/3PpqHf+9inANbtGBBApUYQJtmsyzLFzitYG/UyfxmP47R6MZuW1g02dg0lkyl1NJEZWrR2dB6/iRHoQwSY0PvwpvCUukAACWeQMy03Y0hnZpWWeZlW/MAqKlAa0y23JMnoWuIalME9i5HfxaSmTkmoMSri5xk0P0kZa1b72//kLnfNDdeaiN+SD7xjTm9VXFG8HCFymKrtpaaRD4hOckTAEphV7BFo3DihErkifuJ1vBm/bKcPkFgdXN0S9aSDBCvOEd6D08AjbRqcCOk62jsISTexMWm2gkviyo6HnPGvfNNIKkgu0yAjO2vXtw4gpA5z0MmZvHfHldB8Pygb+hehS38r5no5FksyrzEqFvZEYURd0g7hQfHzk3wcyJr34TGgPu20ezrjhwHeBY+qDzqYGb+FEeh7BJjQ+/4W8QQ7QQAxU18eyE0K/fa5GL01ILngSSQlE0uyqmpuNaM0qmitGnm+IVzjnVy4g/dQq1JomMKlDecAKNZasyoYveaKtJKxFuqnnu37e6bcmNlal1Jns64O64rtDXV02PcmSk1CX8AhrHRItvp7DxjVB3/88cGPvv+vDu7f/xyGzGiqosPTAKn++ACe06OMR0u7VuzjTtwy+veZZWxFazrI7Nbh8RDN2vlgBM52BDgp7my/gzx/gQCstlgp5I+jZap4TiZvJ9DQu0EQsuqFmcE4rQ8bmcCAi7pX5W0ikVxKxWEcyW1TUZJhTbfJh1zmbYW0efwUiWKnPFoqcqe93s34nZwzrZlLizw7gnzO20LjIolQLt+/885q3c7Bij4IxHYZuv4EnBLPwaOwD4McxYMS50TOY/OmN61xhAGM2PGywttwBlKnP35qIT8Ji76dVT/n3PgNjEA/I8AWej/fHZ7bvBBQh4bGPEV20kFiwv+MczsL6Dart5Awh/KlXCzLuqp7lZxiVxsNI0HJmyiLntdMTrwZ5yJ+rvohupOdNJt2Whn5wbsI3c+0ss5W2+VCZjitfT0RZ6egQg8PpC2mnBdfWdP42Qs3pbZf9KjmuC/ImvYkNl+rcJkMHkdahN4uvpsqwks8z4zqjYE5ppOmRjPqYHFczWaXpNqhh/DwUIzAjAiwhc4fjBWDgJTLlJWhwaOieKvzZmBT6xe+W5QwaV6QGUaV22gm66qWaS9IYY7i1JBMRaz6xOZZUM8K4pCFxMxn+fSRrQ0pX7X2gx/eiSQ4TzPNXUgN2IfNAyXCUUIcZbeT3OsJIFsbI9Sx69iImc1UgtO3YuTboM+IF0eJNjxIZW98MAIrAgEm9BVxG3kRhIAE8tXWju47kSk2f1zozz8kx1ISyttyQWyRdGwun6tBxQTdPuZX3ySS62C9YkOQSkco427b+RTnl+Um00Dcve0qny6gMv+ZL8EZYiNywtUP17e4KK0FeQLdOjFmnrhIjlNT3k+fukHevXdrdmCggTI/tGpLV3ECudqnkzlBTZ4OQe7ovKcnnmthXrOGXqigIc5myhpEaJYAOb4EI7AkCDChLwnMfJGlQEDKWmVt4/pXyZVKpWsLuaaw1tHwRfdDaySRteF8vi7rRkOQc4cDC0tQ1TzKJBcNSVpZ5JHnSrAgm8Og1Gu6oEuHQy/P2wRtUsph84E4d3NP4vlS7HmUrd/beUEEJ54oa873HvgUDWxkLNo0kHgQtVSln/SckvzI+0HXF4TuHzu+2js2aVH/derbfuqk6FbQzPXVoweUbLbc20nzaIzA8iHAMfTlw56v3GMEpGx2Ul2/bjf9te8qMH3KfJoGaSKhdtsYSGRJ1wy/rKoV27azYBGRLT6XWUrRZXRkaX7PyOpEDXlt7wH91Xu+Fa1/z9vLlAEvYtCwdhG8j1HSlsiWKU9LOOsxSl0MR/3PaZNk1+PoyLgES1lOkyAOCB3JZ+ny9x+UvSPjOpLLFlaydhr+wkpPVx985DdLTz77jeI1V/woFSAhHTX94ha3kySg2kOCOpCEdRrl6uD4P379ej0IgyBrNaJp+gLT7xVt+qxzz3lFRpimC0T4FEagLxFgQu/L28KT6gYBxdCjyiOPv4TatQB0ozb12hduNpLZJ6HlKYRVlGEFXb4KxWqpXjPR3c0QRDfLZEl3JUFP9rBaG5gqF4cbGGprysvf+E9r7/cfCEFCaEaKjqp2Q8pu3mhv/uPfD3MXbcmENtRMhZTr8h9i7roWxz9/qer88z1qMlkxU8CakIV0qhJNlFQ1imRqh9o+KDxxKi5zbX5mXCkwCMs15fiX7/5rp1S5yczlKk4NavWETfPWQh0HEEKfX1PVpPTwY9c3Hnr0dvjb1UTVXVdTK57r6/AgkHDQVNADMrYp67yNLyn53LHlR5hnwAj0BgEm9N7gyKP0CQLqqpGD0vo1e9L7Dl7YKl3riR+4mTOfSEoYGQUyHM2sV9Z8v4Ge5GSuinj5KRiIeHwEadEIXcCmzUIYlK6r2HsPCBEbIqe4AX0U1EMHjivjWibarHbs2l906Js5AHG9Xm+MHT7ix+WyrGUyQeKHKBj3FIjWSFQfruqaSz3TRXwBSYCJhw0PkgxFn3ZZiZoQiII96M1iAyC05qZy5Zvh+VM3AnRtTUu7P3vxyqNf+NLXGpOlT4LUqSHL9IOcMqnJ/33m3eN/809/H4wfN1FfDpFYX8qocqAZuu/pmuc1HCtBAxsIx6Y93JnM+ee9oGYy4lw+GIGVgAAT+kq4i7yGKQTkweKYddH5z3r7D18YJOGsErDdQNYmbMi0QYwmhodc9SqFYrkMnXQowGmnWOsJCZYgFk9y6SeTPYWgEd9F9rZ4nSrXIPSeknQ0/cKTE77kbma5COdgRsgYjwPono8HnhK4TgZbkATdzOB4R/c1bD6kKEBoQlHRCEYWK6BWtlDBg8xuopqGqyiyJ+OZhPS5VIAGL1FAFnOiWWZdURV0haO6hEROB4GGmLwpp+UY6nUBNj8IdkAAJlIl76GffODY8ckNkz/Y+WXzzZc8hpyJEuagh4fHttR/9PiHJz73xT8MDx3RNZC5uFeYL1TsZS1Mqbh2qFmW6yZJI6jVCuq6da+bG9a9vgho8ZCMwLIhwIS+bNDzhRcDAWWoMGaA0IOHHv14L9ztM82RyEIUo/mhOQiROT1fsCe9hufXG7DWm25d8R6QUghX74yuZlIlbQ0uLFPKGG9nkC8GMD0YkyIYkKpVIj/QSC2/XRJGK4EBr/hR2FSha/krhPYsWdiNupF2HaGKJ7T2SWO+1epUClyLrPqWnQ4pWZAwdPVkVYtVSQ2oy5tENj+EeZIo0FOPPXG18cqrF+nr1k7qxcI42sVkkrFjq4IjR7NJw9XVjOUhjBFgXwTXCEYNI5XK2NQoxsNXLStTq8tKkrts+xPq8CBJx/LBCKwYBJjQV8yt5IUQAtBwTWpPPffcxGDhkHx8ch2y0kUIvNfotMgYzuRIzbpJTlMNr1RQS7VqNSfHiYIM8DhtaE5S9XKzXfvUWMBMOuq9nnf347VK1FpgTg8xtMV2yfFwYvzmP4VLHelzcNnPmESIFqcqPabPS2yIfFeVAh+1fWJrJFTg8C+Y9/g5NpZPjx3NINKxTowPbwkc+Yh8yIniRGi2hu5vYHQU0pFrX4KbnbwhnmoYDTUJYuQD2GuvvPTHxqoRrkHv/gPBZ/YhAkzofXhTeEoLQ0BDDN28dNsTIdywjR673U+dmaAbWKeK58ujqqyYhWJtwmloyK620JlMg0WrtpOx2honLTJMQPguiCeCeavKVhIaxYEJZMFnFqvp28JQbTsQuisHnE9CXDPkQK4OuODFpJu1Z+0tBSTeKMdebNLg+Be94OmXUJFLR16keX4gNgh0Dn4viuyQHZ9OB34Gmy0ZrvY96qYNJFDDByOwohDoueWyotDhxZyVCOhrVx/IXnPFTlckltHf/jmryxa0zpYNCcKI9JwT5NeqRio3NHQsMfQ6SrtiZFJPKmgCgqQxzxosHMsOD45bluGacCdnkUxmIdMd9e6mUnfyyIunOrYFzWcxTkZIAGV7mm+YRmM5ZnfSNVs3dOq1truESLyZZif6yuEpZSSIV/AEMf0IgrJpeeTKN/8ks+mcXYuBE4/JCCwnAmyhLyf6fO1FQ8DcdsHT2rYtT8W/2nVV0JRg60m2+5kmLCxLKieHAVkwLS8MSMwM4WC44KE+hxhwpKVr9iCFlpEsRrqkKXR2M6kNKYLNFFymtqRoSIp3U+y5H4hd+L+pf0ycmFjLqJnx62hPileENv1ykHs3HxrEXajUIB2qirP6uqt3mkNF6qPOByOwohBgQl9Rt5MX00ZA33zOi7nrr7nffmn3VSHcs4tJPGQKgo7BeKbtSenQcRwjOnZ8jWQodapIQz9vEUcXrl+4kU9IvIo9RqsbOsK9pB6H0C8seir7IhW5RbmhIjGNSLqZCz7HISLkqdjQscBIyTZcZciy/HEIvKCZzULbv8518Z79nhz4VD83eM0VjwxefNGzPRuYB2IE+ggBJvQ+uhk8ld4hIOt6WH/uxZ21h39ym7J733aUXPU8OU4QOYVpQeQu9E9A5Gbo+1lB0kQgKQ1mtkTm9hm/Z8IaJ93yQ2PW+Hfvd3B+VTaoYZwQS++lZ4EC4MhPi9CRVPMpeW9OSqewBSq3k8lq2rlvp5pMlK2RgVzdkV23WquqRJJzjtG729rVSOShx45OQmvdZN07b7gvt2nDnq4G4pMYgT5HgAm9z28QT697BIyLL3w6987rv1PZtW87xVTJ7XpyJnZ3YwuGRV1zYhk1B4TneI4Rul6uFatt1UDjPYipo/bZhuobtGjmOJqqcPKxHTutiYceDRGwjnrpzxZOfWoUg5KxbLEwMUKRAdej6EBTUO9MBzGiBwEZL1BSup5GNzprVFXrvmk6geNYZ1LLm2vZS/V7FfnxxbdcuXPkqst/vFTX5OswAkuNABP6UiPO11syBGRVCZ1dr33Xeeb5t0vPvnij12wP1rXFK2LksgRld63uwWPt1OtWjEx2yrqaXn/eWiCS5AJNliEnRxZ4hwq0kGVBmVWkQR62pzi1Mr4TdC0rD9ecQhrtRZtO987hgFCO0HHDDkDKxpI+ZJjOkSDwER7oW9c77UUodo6tVX3j+9/774XN577aU2B5MEagjxDgLPc+uhk8ld4jYJ5/3ov59737Hl9X60h9hud1/plmgshV1Q2zZqmuq3bZrlv1SqWQQLCE8tlo1jNZ4PQLBZns7S5gnaxOjNPq6NYs31r4g77k1NN9oFgsrYJlji0JtS2bt7OivUb6Sdr2g6j6H4D6Wozwf+fbgk5Q6O17UDeYWvOOt/5g1bVX7uztyDwaI9BfCDCh99f94NksAgK5G99y38B7bvxvPU3aYZ2ZykRQ9OVoE3lVTrulai1br9aKIlv9DETeXgJZsiA+RYG86XIRHl0XXVTC4cGhyeEwyaQ9X/QgXehB8QDVJ9e7njIN06VSu+Va46xrQaIixfjVDWt3nfehW76eWb2KhWQWeuP5/L5GgAm9r28PT64XCGjFwmTxI7d8Jdm25UloiNGQom/2TEebyBO41YNc5nhNTnmTlWret+0CSs3U+ZAWmcBwbevYRlD8uhdLmfcYMQRqVw0NTxYdvwANdb2Xs0C2XyoTRCZc7wGy7KhGr28OcrWT+EwI4Dfd9ht3r73+WrbO++bu8EQWCwEm9MVClsftKwQyF1/47MjtH/q7ZLh4GMrgVMZ2ErcJ1zaVnhlaw89Zk7VUEpZKpUHPrg+gzqyj3uenLljUaaPeXFFU1KAt3dHedKCrib+mOFjJ2Y1h8FrPa+AEgJBtHUTzuQHT9FB0t6TrnAtRdIpJznnvO7597q03/+tc7+XfMwIrAQEm9JVwF3kNHSEAt/u3Bz9yy5ci9DQn67ktOIZOYiH8xjU/kylVoigul8oFH0RO6mI0cLdWbfM8tBdL0IwEfdHnY913tKAZ3iRc7NT5RNWctfliI2M7Q3AOLNr3nBhcget9lWYkGcNAruACsg67XfRpO6l0rCAAkN2+7cktd9z+t3C1H+nV0DwOI9DPCCzaF72fF81ze+MiUPzYrV8a/OCvfxXJaujtiZItKj2z9HIpDNKVcqmIYvLsQon8JHQptIzyNbQPDRcb9XYmu57NVtda2cBsuAMUx1/s68KtnTK9IDsCFTk0x3G73QD1ZJ7Uex1rNtaveX3rH/zOF0Yu3fZMT8blQRiBswABLls7C24ST7F3CKjZrANf+udQFjZw9MFHPux5jhqghpz6fbSEYrq2yGeZJSz0BE1W1TBMoBnTWU7evBfcJnMzm6tSopracPOzJgrMe/S5T0BjFLkYyUYDkrcTsS2TK37us3r8DpA5OSf04cEj2z595+fXv+ttO3p8BR6OEehrBJjQ+/r28OQWAwGlWCy7xyb+1CZlt4cfuzUGmeM6lLbWc694MwUvlhT8w1PkgDqr9XpNgszxv5nL2asVXZIbbm4pyVwsEQ8lDI0RQw0aaOJSbzQU1OYvnYpcm8wHi+Nb77rjL8/74M3/1muceTxGoN8RYELv9zvE81sUBIyRoXFv/Pin96CwbBLysJEfaGi02RMluekTbtWVS1KAFqmKGkSR11NCF2QO/fh8Pl8djiVTclxzqcm8vV5yveuOn11lZSoHwtAPUaff8x3SDJ+GZkZ7Ipmjw4e23vWJvzj/tz701UX50PCgjECfI8CE3uc3iKe3eAjoo8NHg6p952u5XPnYjgdujxwvQz3P5q24MtcUqSc3Oqkp6Joee15PXfpE5oOFYrnohflUiP7rc81lkX9PXo6BILbqmWzjWLVCrWl6uoE5dfqCzPFiduP6XVs/dcefn/eBm/9jkZfIwzMCfYsAE3rf3hqe2FIgoOazNuK/d2mjQ4fG7r3vj4LxibVE6q1r98TAFBn1UazImuqQYltbXW4h6yPFu7QkhyP5Qi0PMkev776QX2263iNt1NB8xNPdWt2W20mGC1nvTOdSHzhI5UaFbRc8e8lnPvnZNddd83Cvr8HjMQJnEwI9+YN1Ni2Y58oIzIbA+IOP3Lbva/d8tvHqa9vTSPJqlbUt+DsiBoCceIQad9tt6Kkw7pp8m/FytG9DGdyQlfOyXphNxdHcXdOW+LZT2Zht6qW9tbIZ+D653heMY2sJYrNF42nZbGX0+qsfvOQzd/1ZnjuoLfEd5sv1IwK9+pL149p4TozAvBGw9+y9YP9X7v586Ymn3xNVa4MtU33h5dWUtAULvQEfdNRwct2UdonMPZIzNczGsG6GGdfPk8HfzVjzBmaeJ9BcZSQBjslpe7xayZBc7gLnKe4BFQlAHD/On7fx5XM/eMvdW373o/+goIJgntPjtzMCKxIBJvQVeVt5UQtF4OB/ffeTY9+5/xONXXsuScOFTK7kVry2q++MIGN0avPQJAaNxAuddl9rr6Odya6bZmPEsELD9XOkQrdAklwoTGc8n6TpYkOv7wvcqFyrTdX3z+eibcxFtR+eaMNDR0avvvzRCz7x218cvuSin81nLH4vI7DSEejqj9NKB4XXxwgQAvUDh8499M1vfab0+NM3OfsPvQkEBTO7Sez0+/m4kQUfIaM+1BTHRttVxJU7lmIVZA5ZVdO0nGHViHXPz/arZX7qJ0dBdb9jqpXX7arquZ7VyR+cdqIbQSwKCoG0NjR4pHDh+T/fdNv77t70vpvu5U8oI8AInI5AJ98vxo0ReEMjUHrquRvGvrPjjurPf3mte+DwZtFfWyBC3cE7y4pvx9FjxNEbQSBHnmd1AmqTzNNhJpurD6clRfUC0fq0ny3zU9cFTfVoQlcrByqlbIItzUzrnk7iZI3LUKsNoYSfWbdmb/6CzS9s/LV337sBuuyyrvud4MbvYQTeiAgwob8R7zqvuSsEJh5/+l3HH3z4I9Vf/Opqdx8s9iA0oySeat02l+UurHRF9lxVdgNoxZ+JlFseZooah7lc3h5KSaosyJyaiJ1dR7MNreYeSIXuRLWSQ804eSdE/7m2l6NJ4s3yAnkgfzyzYd1rQ5dsfWbN29+6Y92N1z1wdq2YZ8sILA8CTOjLgztf9SxGoPKLX15ZevTJm0vPPP8298ChzcHRYxtUuJbDGcidljlFWvSE4uiq4jRsO3em8jWy/SVF8QesjFNMySr1MW/6BM6+g+aswuL2TbX6mlNPO41GDh3vsFdJhCVOmyKlWDhmrVm1P79508sjV1z209G3XPnDgXM37j77VsszZgSWDwEm9OXDnq98liPgjh9fXXn6+bdVn3/hOvuVPdvdQ0fO9cePrdOTtIyOZ+jFioeo1pqiYfxGDiMkitlO3aT+5NMhaH8Z6VyUpTlF0/IHopRBPdWXWzBmPrdKuM/bqq+t5jBUM65hgcelxD1QqxkJ/A3m6Mhha+3q/QPnbXqpcPFFz45cdvH/IU7+wnyuxe9lBBiBEwgwofOngRHoAQLOoSPn1F546aray7svc/a8vhWysuvoEZYrQ0oQGQp8yiSNStTuSanARfE45GaN9qXbMWQSjFFNwylqZpALE0tChj0RfL8c7bBCez5E3DjIYz71t0Q8QX2djJ+UFAcxnZSvyK46PDimrRndX1kzsktet+r1wpbNLw5uvfA5xMn398v6eB6MwNmMABP62Xz3eO59iUBQs3OUFe/sO7DFPXx0o3vw8LnhZGk0KFeHglJ5xK/ahUbDtvyaXSBXPRFgJJgSLmj8hJvdzcYpFTFlmdz40238Uwl1MQE4iaSnXajJ3vRfk8WpBI9c6HT4mG9i6LaUz00qxYHj6mDxqLp69IB6ztrd2oa1u43NG3+lr1+3K60qZ5PTYTFh5rEZgZ4hwITeMyh5IEZgdgT8SrUQHJ9YDat9rT9RWuVVqkX78Ng5fqkyHFarxcC2B+K6k8s5Qd6oO8Ww0cgmPpqbxLFCVi5Z+HQ0bfxmRlnbbp96bbq5P8fNaFWDiXe1/wg0KbrZ4XWKrEWiWgLvQpOsQcSepOuOZJl22jRsOWPV5Gymks6YNbUwMKGMDB9WhgtjEhH5yNBhInN99egh/mwwAozA4iPAhL74GPMVGIFZEYi8QA5q1UG/WismdiMv2Y2BqFwZITW5GKROJB/j9QiJZInnmUkQaonvG7HnG0T44nkUqkmAbnFBpFLXMTjzZQjSyeQKFxeOSICG3OKUhSZFaUlCx1gpStFPxPTxWgiiDlAU56cgKSvpqpvGz7Sme2lFCtK65sqWWZMGciUQeFUyTVvKZqpy1qqm8VzJ50pS1qqoA/mJtKo2K/r4YAQYgSVHgAl9ySHnCzIC80cgdFxowAcq1XHHrm8lbUKnuu4wVOMA0qr4vSDyFqG3rxKH8ZSBnwahi/RyELogdkUJUiB1CTKtIGM/DeubrHAicfy7jtf9RJYjxdBZXnX+t43PYAQYAUaAEWAEGAFGgBFgBBgBRoARYAQYAUaAEWAEGAFGgBFgBBgBRoARYAQYAUaAEWAEGAFGgBFgBBgBRoARYAQYAUaAEWAEGAFGgBFgBBgBRoARYAQYAUaAEWAEGAFGgBFgBBgBRoARYAQYAUaAEWAEGAFGgBFgBBgBRoARYAQYAUaAEWAEGAFGgBFgBBgBRoARYAQYAUaAEWAEGAFGgBFgBBgBRoARYAQYAUaAEWAEGAFGgBFgBBgBRoARYAQYAUaAEWAEGAFGgBFgBBgBRoARYAQYAUaAEWAEGAFGgBFgBBgBRoARYAQYAUaAEWAEGAFGgBFgBBgBRoARYAQYAUaAEWAEGAFGgBFgBBgBRoAR6CME/h/qWojL1B5QxwAAAABJRU5ErkJggg==;rotation=45;" vertex="1" parent="1">
          <mxGeometry x="570" y="250" width="290" height="290" as="geometry" />
        </mxCell>
        <mxCell id="AjuV_Ijz82pBbPcZ4gYu-12" style="edgeStyle=orthogonalEdgeStyle;rounded=0;orthogonalLoop=1;jettySize=auto;html=1;exitX=0.5;exitY=1;exitDx=0;exitDy=0;endArrow=none;endFill=0;" edge="1" parent="1" source="AjuV_Ijz82pBbPcZ4gYu-3" target="AjuV_Ijz82pBbPcZ4gYu-6">
          <mxGeometry relative="1" as="geometry" />
        </mxCell>
        <mxCell id="AjuV_Ijz82pBbPcZ4gYu-13" style="edgeStyle=orthogonalEdgeStyle;rounded=0;orthogonalLoop=1;jettySize=auto;html=1;exitX=0;exitY=0.5;exitDx=0;exitDy=0;entryX=1;entryY=0.5;entryDx=0;entryDy=0;endArrow=none;endFill=0;" edge="1" parent="1" source="AjuV_Ijz82pBbPcZ4gYu-3" target="AjuV_Ijz82pBbPcZ4gYu-5">
          <mxGeometry relative="1" as="geometry" />
        </mxCell>
        <mxCell id="AjuV_Ijz82pBbPcZ4gYu-36" style="edgeStyle=orthogonalEdgeStyle;rounded=0;orthogonalLoop=1;jettySize=auto;html=1;entryX=0;entryY=0.5;entryDx=0;entryDy=0;endArrow=none;endFill=0;" edge="1" parent="1" source="AjuV_Ijz82pBbPcZ4gYu-3" target="AjuV_Ijz82pBbPcZ4gYu-33">
          <mxGeometry relative="1" as="geometry" />
        </mxCell>
        <mxCell id="AjuV_Ijz82pBbPcZ4gYu-37" style="edgeStyle=orthogonalEdgeStyle;rounded=0;orthogonalLoop=1;jettySize=auto;html=1;entryX=0;entryY=0.5;entryDx=0;entryDy=0;endArrow=none;endFill=0;" edge="1" parent="1" source="AjuV_Ijz82pBbPcZ4gYu-3" target="AjuV_Ijz82pBbPcZ4gYu-30">
          <mxGeometry relative="1" as="geometry" />
        </mxCell>
        <mxCell id="AjuV_Ijz82pBbPcZ4gYu-38" style="edgeStyle=orthogonalEdgeStyle;rounded=0;orthogonalLoop=1;jettySize=auto;html=1;entryX=0;entryY=0.5;entryDx=0;entryDy=0;endArrow=none;endFill=0;" edge="1" parent="1" source="AjuV_Ijz82pBbPcZ4gYu-3" target="AjuV_Ijz82pBbPcZ4gYu-31">
          <mxGeometry relative="1" as="geometry" />
        </mxCell>
        <mxCell id="AjuV_Ijz82pBbPcZ4gYu-39" style="edgeStyle=orthogonalEdgeStyle;rounded=0;orthogonalLoop=1;jettySize=auto;html=1;entryX=0;entryY=0.5;entryDx=0;entryDy=0;endArrow=none;endFill=0;" edge="1" parent="1" source="AjuV_Ijz82pBbPcZ4gYu-3" target="AjuV_Ijz82pBbPcZ4gYu-32">
          <mxGeometry relative="1" as="geometry" />
        </mxCell>
        <mxCell id="AjuV_Ijz82pBbPcZ4gYu-40" style="edgeStyle=orthogonalEdgeStyle;rounded=0;orthogonalLoop=1;jettySize=auto;html=1;entryX=0;entryY=0.5;entryDx=0;entryDy=0;endArrow=none;endFill=0;" edge="1" parent="1" source="AjuV_Ijz82pBbPcZ4gYu-3" target="AjuV_Ijz82pBbPcZ4gYu-34">
          <mxGeometry relative="1" as="geometry" />
        </mxCell>
        <mxCell id="AjuV_Ijz82pBbPcZ4gYu-3" value="&lt;font style=&quot;font-size: 14px;&quot;&gt;&lt;font style=&quot;vertical-align: inherit;&quot;&gt;&lt;font style=&quot;vertical-align: inherit;&quot;&gt;&lt;font style=&quot;vertical-align: inherit;&quot;&gt;&lt;font style=&quot;vertical-align: inherit;&quot;&gt;Album&lt;/font&gt;&lt;/font&gt;&lt;/font&gt;&lt;/font&gt;&lt;/font&gt;" style="rounded=0;whiteSpace=wrap;html=1;labelBackgroundColor=none;fontSize=14;fillColor=#e1d5e7;strokeColor=#9673a6;gradientDirection=east;" vertex="1" parent="1">
          <mxGeometry x="495" y="1020" width="160" height="85" as="geometry" />
        </mxCell>
        <mxCell id="AjuV_Ijz82pBbPcZ4gYu-10" style="edgeStyle=orthogonalEdgeStyle;rounded=0;orthogonalLoop=1;jettySize=auto;html=1;endArrow=none;endFill=0;" edge="1" parent="1" source="AjuV_Ijz82pBbPcZ4gYu-4" target="AjuV_Ijz82pBbPcZ4gYu-3">
          <mxGeometry relative="1" as="geometry" />
        </mxCell>
        <mxCell id="AjuV_Ijz82pBbPcZ4gYu-11" style="edgeStyle=orthogonalEdgeStyle;rounded=0;orthogonalLoop=1;jettySize=auto;html=1;entryX=0.5;entryY=1;entryDx=0;entryDy=0;endArrow=none;endFill=0;" edge="1" parent="1" source="AjuV_Ijz82pBbPcZ4gYu-4" target="AjuV_Ijz82pBbPcZ4gYu-7">
          <mxGeometry relative="1" as="geometry" />
        </mxCell>
        <mxCell id="AjuV_Ijz82pBbPcZ4gYu-4" value="Possui" style="rhombus;whiteSpace=wrap;html=1;labelBackgroundColor=none;fillColor=#e1d5e7;fontSize=14;strokeColor=#9673a6;" vertex="1" parent="1">
          <mxGeometry x="475" y="850" width="200" height="110" as="geometry" />
        </mxCell>
        <mxCell id="AjuV_Ijz82pBbPcZ4gYu-14" style="edgeStyle=orthogonalEdgeStyle;rounded=0;orthogonalLoop=1;jettySize=auto;html=1;exitX=0;exitY=0.5;exitDx=0;exitDy=0;entryX=1;entryY=0.5;entryDx=0;entryDy=0;endArrow=none;endFill=0;" edge="1" parent="1" source="AjuV_Ijz82pBbPcZ4gYu-5" target="AjuV_Ijz82pBbPcZ4gYu-8">
          <mxGeometry relative="1" as="geometry" />
        </mxCell>
        <mxCell id="AjuV_Ijz82pBbPcZ4gYu-5" value="Possui" style="rhombus;whiteSpace=wrap;html=1;labelBackgroundColor=none;fillColor=#e1d5e7;fontSize=14;strokeColor=#9673a6;" vertex="1" parent="1">
          <mxGeometry x="181" y="1007.5" width="200" height="110" as="geometry" />
        </mxCell>
        <mxCell id="AjuV_Ijz82pBbPcZ4gYu-16" style="edgeStyle=orthogonalEdgeStyle;rounded=0;orthogonalLoop=1;jettySize=auto;html=1;entryX=0.461;entryY=0.014;entryDx=0;entryDy=0;entryPerimeter=0;endArrow=none;endFill=0;" edge="1" parent="1" source="AjuV_Ijz82pBbPcZ4gYu-6" target="AjuV_Ijz82pBbPcZ4gYu-9">
          <mxGeometry relative="1" as="geometry" />
        </mxCell>
        <mxCell id="AjuV_Ijz82pBbPcZ4gYu-6" value="Possui" style="rhombus;whiteSpace=wrap;html=1;labelBackgroundColor=none;fillColor=#e1d5e7;fontSize=14;strokeColor=#9673a6;" vertex="1" parent="1">
          <mxGeometry x="475" y="1170" width="200" height="110" as="geometry" />
        </mxCell>
        <mxCell id="AjuV_Ijz82pBbPcZ4gYu-21" style="edgeStyle=orthogonalEdgeStyle;rounded=0;orthogonalLoop=1;jettySize=auto;html=1;endArrow=none;endFill=0;" edge="1" parent="1" source="AjuV_Ijz82pBbPcZ4gYu-7" target="AjuV_Ijz82pBbPcZ4gYu-17">
          <mxGeometry relative="1" as="geometry" />
        </mxCell>
        <mxCell id="AjuV_Ijz82pBbPcZ4gYu-22" style="edgeStyle=orthogonalEdgeStyle;rounded=0;orthogonalLoop=1;jettySize=auto;html=1;entryX=0;entryY=0.5;entryDx=0;entryDy=0;endArrow=none;endFill=0;" edge="1" parent="1" source="AjuV_Ijz82pBbPcZ4gYu-7" target="AjuV_Ijz82pBbPcZ4gYu-18">
          <mxGeometry relative="1" as="geometry" />
        </mxCell>
        <mxCell id="AjuV_Ijz82pBbPcZ4gYu-23" style="edgeStyle=orthogonalEdgeStyle;rounded=0;orthogonalLoop=1;jettySize=auto;html=1;entryX=0;entryY=0.5;entryDx=0;entryDy=0;endArrow=none;endFill=0;" edge="1" parent="1" source="AjuV_Ijz82pBbPcZ4gYu-7" target="AjuV_Ijz82pBbPcZ4gYu-19">
          <mxGeometry relative="1" as="geometry" />
        </mxCell>
        <mxCell id="AjuV_Ijz82pBbPcZ4gYu-24" style="edgeStyle=orthogonalEdgeStyle;rounded=0;orthogonalLoop=1;jettySize=auto;html=1;entryX=0;entryY=0.5;entryDx=0;entryDy=0;endArrow=none;endFill=0;" edge="1" parent="1" source="AjuV_Ijz82pBbPcZ4gYu-7" target="AjuV_Ijz82pBbPcZ4gYu-20">
          <mxGeometry relative="1" as="geometry" />
        </mxCell>
        <mxCell id="AjuV_Ijz82pBbPcZ4gYu-7" value="&lt;font style=&quot;font-size: 14px;&quot;&gt;&lt;font style=&quot;vertical-align: inherit;&quot;&gt;&lt;font style=&quot;vertical-align: inherit;&quot;&gt;&lt;font style=&quot;vertical-align: inherit;&quot;&gt;&lt;font style=&quot;vertical-align: inherit;&quot;&gt;&lt;font style=&quot;vertical-align: inherit;&quot;&gt;&lt;font style=&quot;vertical-align: inherit;&quot;&gt;Usuario&lt;/font&gt;&lt;/font&gt;&lt;/font&gt;&lt;/font&gt;&lt;/font&gt;&lt;/font&gt;&lt;/font&gt;" style="rounded=0;whiteSpace=wrap;html=1;labelBackgroundColor=none;fontSize=14;fillColor=#e1d5e7;strokeColor=#9673a6;gradientDirection=east;" vertex="1" parent="1">
          <mxGeometry x="495" y="700" width="160" height="85" as="geometry" />
        </mxCell>
        <mxCell id="AjuV_Ijz82pBbPcZ4gYu-27" style="edgeStyle=orthogonalEdgeStyle;rounded=0;orthogonalLoop=1;jettySize=auto;html=1;entryX=1;entryY=0.5;entryDx=0;entryDy=0;endArrow=none;endFill=0;" edge="1" parent="1" source="AjuV_Ijz82pBbPcZ4gYu-8" target="AjuV_Ijz82pBbPcZ4gYu-26">
          <mxGeometry relative="1" as="geometry" />
        </mxCell>
        <mxCell id="AjuV_Ijz82pBbPcZ4gYu-8" value="&lt;font style=&quot;font-size: 14px;&quot;&gt;&lt;font style=&quot;vertical-align: inherit;&quot;&gt;&lt;font style=&quot;vertical-align: inherit;&quot;&gt;&lt;font style=&quot;vertical-align: inherit;&quot;&gt;&lt;font style=&quot;vertical-align: inherit;&quot;&gt;&lt;font style=&quot;vertical-align: inherit;&quot;&gt;&lt;font style=&quot;vertical-align: inherit;&quot;&gt;&lt;font style=&quot;vertical-align: inherit;&quot;&gt;&lt;font style=&quot;vertical-align: inherit;&quot;&gt;Artista&lt;/font&gt;&lt;/font&gt;&lt;/font&gt;&lt;/font&gt;&lt;/font&gt;&lt;/font&gt;&lt;/font&gt;&lt;/font&gt;&lt;/font&gt;" style="rounded=0;whiteSpace=wrap;html=1;labelBackgroundColor=none;fontSize=14;fillColor=#e1d5e7;strokeColor=#9673a6;gradientDirection=east;" vertex="1" parent="1">
          <mxGeometry x="-59" y="1020" width="160" height="85" as="geometry" />
        </mxCell>
        <mxCell id="AjuV_Ijz82pBbPcZ4gYu-29" style="edgeStyle=orthogonalEdgeStyle;rounded=0;orthogonalLoop=1;jettySize=auto;html=1;entryX=0;entryY=0.5;entryDx=0;entryDy=0;endArrow=none;endFill=0;" edge="1" parent="1" source="AjuV_Ijz82pBbPcZ4gYu-9" target="AjuV_Ijz82pBbPcZ4gYu-28">
          <mxGeometry relative="1" as="geometry" />
        </mxCell>
        <mxCell id="AjuV_Ijz82pBbPcZ4gYu-9" value="&lt;font style=&quot;font-size: 14px;&quot;&gt;&lt;font style=&quot;vertical-align: inherit;&quot;&gt;&lt;font style=&quot;vertical-align: inherit;&quot;&gt;&lt;font style=&quot;vertical-align: inherit;&quot;&gt;&lt;font style=&quot;vertical-align: inherit;&quot;&gt;&lt;font style=&quot;vertical-align: inherit;&quot;&gt;&lt;font style=&quot;vertical-align: inherit;&quot;&gt;&lt;font style=&quot;vertical-align: inherit;&quot;&gt;&lt;font style=&quot;vertical-align: inherit;&quot;&gt;Estilo&lt;/font&gt;&lt;/font&gt;&lt;/font&gt;&lt;/font&gt;&lt;/font&gt;&lt;/font&gt;&lt;/font&gt;&lt;/font&gt;&lt;/font&gt;" style="rounded=0;whiteSpace=wrap;html=1;labelBackgroundColor=none;fontSize=14;fillColor=#e1d5e7;strokeColor=#9673a6;gradientDirection=east;" vertex="1" parent="1">
          <mxGeometry x="501" y="1360" width="160" height="85" as="geometry" />
        </mxCell>
        <mxCell id="AjuV_Ijz82pBbPcZ4gYu-17" value="&lt;font style=&quot;vertical-align: inherit;&quot;&gt;&lt;font style=&quot;vertical-align: inherit;&quot;&gt;Nome&lt;/font&gt;&lt;/font&gt;" style="ellipse;whiteSpace=wrap;html=1;fillColor=#e1d5e7;strokeColor=#9673a6;gradientDirection=east;" vertex="1" parent="1">
          <mxGeometry x="970" y="750" width="116" height="40" as="geometry" />
        </mxCell>
        <mxCell id="AjuV_Ijz82pBbPcZ4gYu-18" value="&lt;font style=&quot;vertical-align: inherit;&quot;&gt;&lt;font style=&quot;vertical-align: inherit;&quot;&gt;&lt;font style=&quot;vertical-align: inherit;&quot;&gt;&lt;font style=&quot;vertical-align: inherit;&quot;&gt;Email&lt;/font&gt;&lt;/font&gt;&lt;/font&gt;&lt;/font&gt;" style="ellipse;whiteSpace=wrap;html=1;fillColor=#e1d5e7;strokeColor=#9673a6;gradientDirection=east;" vertex="1" parent="1">
          <mxGeometry x="771" y="650" width="116" height="40" as="geometry" />
        </mxCell>
        <mxCell id="AjuV_Ijz82pBbPcZ4gYu-19" value="&lt;font style=&quot;vertical-align: inherit;&quot;&gt;&lt;font style=&quot;vertical-align: inherit;&quot;&gt;&lt;font style=&quot;vertical-align: inherit;&quot;&gt;&lt;font style=&quot;vertical-align: inherit;&quot;&gt;Senha&lt;/font&gt;&lt;/font&gt;&lt;/font&gt;&lt;/font&gt;" style="ellipse;whiteSpace=wrap;html=1;fillColor=#e1d5e7;strokeColor=#9673a6;gradientDirection=east;" vertex="1" parent="1">
          <mxGeometry x="970" y="690" width="116" height="40" as="geometry" />
        </mxCell>
        <mxCell id="AjuV_Ijz82pBbPcZ4gYu-20" value="&lt;font style=&quot;vertical-align: inherit;&quot;&gt;&lt;font style=&quot;vertical-align: inherit;&quot;&gt;Permissao&lt;/font&gt;&lt;/font&gt;" style="ellipse;whiteSpace=wrap;html=1;fillColor=#e1d5e7;strokeColor=#9673a6;gradientDirection=east;" vertex="1" parent="1">
          <mxGeometry x="771" y="790" width="116" height="40" as="geometry" />
        </mxCell>
        <mxCell id="AjuV_Ijz82pBbPcZ4gYu-26" value="&lt;font style=&quot;vertical-align: inherit;&quot;&gt;&lt;font style=&quot;vertical-align: inherit;&quot;&gt;Nome&lt;/font&gt;&lt;/font&gt;" style="ellipse;whiteSpace=wrap;html=1;fillColor=#e1d5e7;strokeColor=#9673a6;gradientDirection=east;" vertex="1" parent="1">
          <mxGeometry x="-260" y="1042.5" width="116" height="40" as="geometry" />
        </mxCell>
        <mxCell id="AjuV_Ijz82pBbPcZ4gYu-28" value="&lt;font style=&quot;vertical-align: inherit;&quot;&gt;&lt;font style=&quot;vertical-align: inherit;&quot;&gt;Nome&lt;/font&gt;&lt;/font&gt;" style="ellipse;whiteSpace=wrap;html=1;fillColor=#e1d5e7;strokeColor=#9673a6;gradientDirection=east;" vertex="1" parent="1">
          <mxGeometry x="734" y="1382.5" width="116" height="40" as="geometry" />
        </mxCell>
        <mxCell id="AjuV_Ijz82pBbPcZ4gYu-30" value="&lt;font style=&quot;vertical-align: inherit;&quot;&gt;&lt;font style=&quot;vertical-align: inherit;&quot;&gt;&lt;font style=&quot;vertical-align: inherit;&quot;&gt;&lt;font style=&quot;vertical-align: inherit;&quot;&gt;Titulo&lt;/font&gt;&lt;/font&gt;&lt;/font&gt;&lt;/font&gt;" style="ellipse;whiteSpace=wrap;html=1;fillColor=#e1d5e7;strokeColor=#9673a6;gradientDirection=east;" vertex="1" parent="1">
          <mxGeometry x="760" y="1007.5" width="116" height="40" as="geometry" />
        </mxCell>
        <mxCell id="AjuV_Ijz82pBbPcZ4gYu-31" value="&lt;font style=&quot;vertical-align: inherit;&quot;&gt;&lt;font style=&quot;vertical-align: inherit;&quot;&gt;&lt;font style=&quot;vertical-align: inherit;&quot;&gt;&lt;font style=&quot;vertical-align: inherit;&quot;&gt;Data Lancamento&lt;/font&gt;&lt;/font&gt;&lt;/font&gt;&lt;/font&gt;" style="ellipse;whiteSpace=wrap;html=1;fillColor=#e1d5e7;strokeColor=#9673a6;gradientDirection=east;" vertex="1" parent="1">
          <mxGeometry x="910" y="1042.5" width="116" height="40" as="geometry" />
        </mxCell>
        <mxCell id="AjuV_Ijz82pBbPcZ4gYu-32" value="&lt;font style=&quot;vertical-align: inherit;&quot;&gt;&lt;font style=&quot;vertical-align: inherit;&quot;&gt;&lt;font style=&quot;vertical-align: inherit;&quot;&gt;&lt;font style=&quot;vertical-align: inherit;&quot;&gt;Localização&lt;/font&gt;&lt;/font&gt;&lt;/font&gt;&lt;/font&gt;" style="ellipse;whiteSpace=wrap;html=1;fillColor=#e1d5e7;strokeColor=#9673a6;gradientDirection=east;" vertex="1" parent="1">
          <mxGeometry x="760" y="1077.5" width="116" height="40" as="geometry" />
        </mxCell>
        <mxCell id="AjuV_Ijz82pBbPcZ4gYu-33" value="Tempo Album" style="ellipse;whiteSpace=wrap;html=1;fillColor=#e1d5e7;strokeColor=#9673a6;gradientDirection=east;" vertex="1" parent="1">
          <mxGeometry x="760" y="960" width="116" height="40" as="geometry" />
        </mxCell>
        <mxCell id="AjuV_Ijz82pBbPcZ4gYu-34" value="&lt;font style=&quot;vertical-align: inherit;&quot;&gt;&lt;font style=&quot;vertical-align: inherit;&quot;&gt;&lt;font style=&quot;vertical-align: inherit;&quot;&gt;&lt;font style=&quot;vertical-align: inherit;&quot;&gt;Ativo&lt;/font&gt;&lt;/font&gt;&lt;/font&gt;&lt;/font&gt;" style="ellipse;whiteSpace=wrap;html=1;fillColor=#e1d5e7;strokeColor=#9673a6;gradientDirection=east;" vertex="1" parent="1">
          <mxGeometry x="760" y="1129" width="116" height="40" as="geometry" />
        </mxCell>
        <mxCell id="AjuV_Ijz82pBbPcZ4gYu-41" value="1" style="text;html=1;strokeColor=none;fillColor=none;align=center;verticalAlign=middle;whiteSpace=wrap;rounded=0;strokeWidth=3;fontSize=17;" vertex="1" parent="1">
          <mxGeometry x="94" y="1030" width="60" height="30" as="geometry" />
        </mxCell>
        <mxCell id="AjuV_Ijz82pBbPcZ4gYu-42" value="N" style="text;html=1;strokeColor=none;fillColor=none;align=center;verticalAlign=middle;whiteSpace=wrap;rounded=0;strokeWidth=3;fontSize=17;" vertex="1" parent="1">
          <mxGeometry x="435" y="1030" width="60" height="30" as="geometry" />
        </mxCell>
        <mxCell id="AjuV_Ijz82pBbPcZ4gYu-43" value="N" style="text;html=1;strokeColor=none;fillColor=none;align=center;verticalAlign=middle;whiteSpace=wrap;rounded=0;strokeWidth=3;fontSize=17;" vertex="1" parent="1">
          <mxGeometry x="570" y="990" width="60" height="30" as="geometry" />
        </mxCell>
        <mxCell id="AjuV_Ijz82pBbPcZ4gYu-44" value="N" style="text;html=1;strokeColor=none;fillColor=none;align=center;verticalAlign=middle;whiteSpace=wrap;rounded=0;strokeWidth=3;fontSize=17;" vertex="1" parent="1">
          <mxGeometry x="580" y="785" width="60" height="30" as="geometry" />
        </mxCell>
        <mxCell id="AjuV_Ijz82pBbPcZ4gYu-45" value="N" style="text;html=1;strokeColor=none;fillColor=none;align=center;verticalAlign=middle;whiteSpace=wrap;rounded=0;strokeWidth=3;fontSize=17;" vertex="1" parent="1">
          <mxGeometry x="570" y="1105" width="60" height="30" as="geometry" />
        </mxCell>
        <mxCell id="AjuV_Ijz82pBbPcZ4gYu-46" value="N" style="text;html=1;strokeColor=none;fillColor=none;align=center;verticalAlign=middle;whiteSpace=wrap;rounded=0;strokeWidth=3;fontSize=17;" vertex="1" parent="1">
          <mxGeometry x="580" y="1330" width="60" height="30" as="geometry" />
        </mxCell>
        <mxCell id="AjuV_Ijz82pBbPcZ4gYu-47" value="Album" style="shape=table;startSize=30;container=1;collapsible=1;childLayout=tableLayout;fixedRows=1;rowLines=0;fontStyle=1;align=center;resizeLast=1;html=1;whiteSpace=wrap;fillColor=#e1d5e7;strokeColor=#9673a6;" vertex="1" parent="1">
          <mxGeometry x="511" y="1984" width="180" height="240" as="geometry" />
        </mxCell>
        <mxCell id="AjuV_Ijz82pBbPcZ4gYu-48" value="" style="shape=tableRow;horizontal=0;startSize=0;swimlaneHead=0;swimlaneBody=0;fillColor=none;collapsible=0;dropTarget=0;points=[[0,0.5],[1,0.5]];portConstraint=eastwest;top=0;left=0;right=0;bottom=0;html=1;" vertex="1" parent="AjuV_Ijz82pBbPcZ4gYu-47">
          <mxGeometry y="30" width="180" height="30" as="geometry" />
        </mxCell>
        <mxCell id="AjuV_Ijz82pBbPcZ4gYu-49" value="PK" style="shape=partialRectangle;connectable=0;fillColor=none;top=0;left=0;bottom=0;right=0;fontStyle=1;overflow=hidden;html=1;whiteSpace=wrap;" vertex="1" parent="AjuV_Ijz82pBbPcZ4gYu-48">
          <mxGeometry width="60" height="30" as="geometry">
            <mxRectangle width="60" height="30" as="alternateBounds" />
          </mxGeometry>
        </mxCell>
        <mxCell id="AjuV_Ijz82pBbPcZ4gYu-50" value="IdAlbum" style="shape=partialRectangle;connectable=0;fillColor=none;top=0;left=0;bottom=0;right=0;align=left;spacingLeft=6;fontStyle=5;overflow=hidden;html=1;whiteSpace=wrap;" vertex="1" parent="AjuV_Ijz82pBbPcZ4gYu-48">
          <mxGeometry x="60" width="120" height="30" as="geometry">
            <mxRectangle width="120" height="30" as="alternateBounds" />
          </mxGeometry>
        </mxCell>
        <mxCell id="AjuV_Ijz82pBbPcZ4gYu-51" value="" style="shape=tableRow;horizontal=0;startSize=0;swimlaneHead=0;swimlaneBody=0;fillColor=none;collapsible=0;dropTarget=0;points=[[0,0.5],[1,0.5]];portConstraint=eastwest;top=0;left=0;right=0;bottom=1;html=1;" vertex="1" parent="AjuV_Ijz82pBbPcZ4gYu-47">
          <mxGeometry y="60" width="180" height="30" as="geometry" />
        </mxCell>
        <mxCell id="AjuV_Ijz82pBbPcZ4gYu-52" value="FK" style="shape=partialRectangle;connectable=0;fillColor=none;top=0;left=0;bottom=0;right=0;fontStyle=1;overflow=hidden;html=1;whiteSpace=wrap;" vertex="1" parent="AjuV_Ijz82pBbPcZ4gYu-51">
          <mxGeometry width="60" height="30" as="geometry">
            <mxRectangle width="60" height="30" as="alternateBounds" />
          </mxGeometry>
        </mxCell>
        <mxCell id="AjuV_Ijz82pBbPcZ4gYu-53" value="IdArtista" style="shape=partialRectangle;connectable=0;fillColor=none;top=0;left=0;bottom=0;right=0;align=left;spacingLeft=6;fontStyle=5;overflow=hidden;html=1;whiteSpace=wrap;" vertex="1" parent="AjuV_Ijz82pBbPcZ4gYu-51">
          <mxGeometry x="60" width="120" height="30" as="geometry">
            <mxRectangle width="120" height="30" as="alternateBounds" />
          </mxGeometry>
        </mxCell>
        <mxCell id="AjuV_Ijz82pBbPcZ4gYu-54" value="" style="shape=tableRow;horizontal=0;startSize=0;swimlaneHead=0;swimlaneBody=0;fillColor=none;collapsible=0;dropTarget=0;points=[[0,0.5],[1,0.5]];portConstraint=eastwest;top=0;left=0;right=0;bottom=0;html=1;" vertex="1" parent="AjuV_Ijz82pBbPcZ4gYu-47">
          <mxGeometry y="90" width="180" height="30" as="geometry" />
        </mxCell>
        <mxCell id="AjuV_Ijz82pBbPcZ4gYu-55" value="" style="shape=partialRectangle;connectable=0;fillColor=none;top=0;left=0;bottom=0;right=0;editable=1;overflow=hidden;html=1;whiteSpace=wrap;" vertex="1" parent="AjuV_Ijz82pBbPcZ4gYu-54">
          <mxGeometry width="60" height="30" as="geometry">
            <mxRectangle width="60" height="30" as="alternateBounds" />
          </mxGeometry>
        </mxCell>
        <mxCell id="AjuV_Ijz82pBbPcZ4gYu-56" value="TempoAlbum" style="shape=partialRectangle;connectable=0;fillColor=none;top=0;left=0;bottom=0;right=0;align=left;spacingLeft=6;overflow=hidden;html=1;whiteSpace=wrap;" vertex="1" parent="AjuV_Ijz82pBbPcZ4gYu-54">
          <mxGeometry x="60" width="120" height="30" as="geometry">
            <mxRectangle width="120" height="30" as="alternateBounds" />
          </mxGeometry>
        </mxCell>
        <mxCell id="AjuV_Ijz82pBbPcZ4gYu-57" value="" style="shape=tableRow;horizontal=0;startSize=0;swimlaneHead=0;swimlaneBody=0;fillColor=none;collapsible=0;dropTarget=0;points=[[0,0.5],[1,0.5]];portConstraint=eastwest;top=0;left=0;right=0;bottom=0;html=1;" vertex="1" parent="AjuV_Ijz82pBbPcZ4gYu-47">
          <mxGeometry y="120" width="180" height="30" as="geometry" />
        </mxCell>
        <mxCell id="AjuV_Ijz82pBbPcZ4gYu-58" value="" style="shape=partialRectangle;connectable=0;fillColor=none;top=0;left=0;bottom=0;right=0;editable=1;overflow=hidden;html=1;whiteSpace=wrap;" vertex="1" parent="AjuV_Ijz82pBbPcZ4gYu-57">
          <mxGeometry width="60" height="30" as="geometry">
            <mxRectangle width="60" height="30" as="alternateBounds" />
          </mxGeometry>
        </mxCell>
        <mxCell id="AjuV_Ijz82pBbPcZ4gYu-59" value="Titulo" style="shape=partialRectangle;connectable=0;fillColor=none;top=0;left=0;bottom=0;right=0;align=left;spacingLeft=6;overflow=hidden;html=1;whiteSpace=wrap;" vertex="1" parent="AjuV_Ijz82pBbPcZ4gYu-57">
          <mxGeometry x="60" width="120" height="30" as="geometry">
            <mxRectangle width="120" height="30" as="alternateBounds" />
          </mxGeometry>
        </mxCell>
        <mxCell id="AjuV_Ijz82pBbPcZ4gYu-60" style="shape=tableRow;horizontal=0;startSize=0;swimlaneHead=0;swimlaneBody=0;fillColor=none;collapsible=0;dropTarget=0;points=[[0,0.5],[1,0.5]];portConstraint=eastwest;top=0;left=0;right=0;bottom=0;html=1;" vertex="1" parent="AjuV_Ijz82pBbPcZ4gYu-47">
          <mxGeometry y="150" width="180" height="30" as="geometry" />
        </mxCell>
        <mxCell id="AjuV_Ijz82pBbPcZ4gYu-61" style="shape=partialRectangle;connectable=0;fillColor=none;top=0;left=0;bottom=0;right=0;editable=1;overflow=hidden;html=1;whiteSpace=wrap;" vertex="1" parent="AjuV_Ijz82pBbPcZ4gYu-60">
          <mxGeometry width="60" height="30" as="geometry">
            <mxRectangle width="60" height="30" as="alternateBounds" />
          </mxGeometry>
        </mxCell>
        <mxCell id="AjuV_Ijz82pBbPcZ4gYu-62" value="DataLancamento" style="shape=partialRectangle;connectable=0;fillColor=none;top=0;left=0;bottom=0;right=0;align=left;spacingLeft=6;overflow=hidden;html=1;whiteSpace=wrap;" vertex="1" parent="AjuV_Ijz82pBbPcZ4gYu-60">
          <mxGeometry x="60" width="120" height="30" as="geometry">
            <mxRectangle width="120" height="30" as="alternateBounds" />
          </mxGeometry>
        </mxCell>
        <mxCell id="AjuV_Ijz82pBbPcZ4gYu-63" style="shape=tableRow;horizontal=0;startSize=0;swimlaneHead=0;swimlaneBody=0;fillColor=none;collapsible=0;dropTarget=0;points=[[0,0.5],[1,0.5]];portConstraint=eastwest;top=0;left=0;right=0;bottom=0;html=1;" vertex="1" parent="AjuV_Ijz82pBbPcZ4gYu-47">
          <mxGeometry y="180" width="180" height="30" as="geometry" />
        </mxCell>
        <mxCell id="AjuV_Ijz82pBbPcZ4gYu-64" style="shape=partialRectangle;connectable=0;fillColor=none;top=0;left=0;bottom=0;right=0;editable=1;overflow=hidden;html=1;whiteSpace=wrap;" vertex="1" parent="AjuV_Ijz82pBbPcZ4gYu-63">
          <mxGeometry width="60" height="30" as="geometry">
            <mxRectangle width="60" height="30" as="alternateBounds" />
          </mxGeometry>
        </mxCell>
        <mxCell id="AjuV_Ijz82pBbPcZ4gYu-65" value="Localizacao" style="shape=partialRectangle;connectable=0;fillColor=none;top=0;left=0;bottom=0;right=0;align=left;spacingLeft=6;overflow=hidden;html=1;whiteSpace=wrap;" vertex="1" parent="AjuV_Ijz82pBbPcZ4gYu-63">
          <mxGeometry x="60" width="120" height="30" as="geometry">
            <mxRectangle width="120" height="30" as="alternateBounds" />
          </mxGeometry>
        </mxCell>
        <mxCell id="AjuV_Ijz82pBbPcZ4gYu-66" style="shape=tableRow;horizontal=0;startSize=0;swimlaneHead=0;swimlaneBody=0;fillColor=none;collapsible=0;dropTarget=0;points=[[0,0.5],[1,0.5]];portConstraint=eastwest;top=0;left=0;right=0;bottom=0;html=1;" vertex="1" parent="AjuV_Ijz82pBbPcZ4gYu-47">
          <mxGeometry y="210" width="180" height="30" as="geometry" />
        </mxCell>
        <mxCell id="AjuV_Ijz82pBbPcZ4gYu-67" style="shape=partialRectangle;connectable=0;fillColor=none;top=0;left=0;bottom=0;right=0;editable=1;overflow=hidden;html=1;whiteSpace=wrap;" vertex="1" parent="AjuV_Ijz82pBbPcZ4gYu-66">
          <mxGeometry width="60" height="30" as="geometry">
            <mxRectangle width="60" height="30" as="alternateBounds" />
          </mxGeometry>
        </mxCell>
        <mxCell id="AjuV_Ijz82pBbPcZ4gYu-68" value="Ativo" style="shape=partialRectangle;connectable=0;fillColor=none;top=0;left=0;bottom=0;right=0;align=left;spacingLeft=6;overflow=hidden;html=1;whiteSpace=wrap;" vertex="1" parent="AjuV_Ijz82pBbPcZ4gYu-66">
          <mxGeometry x="60" width="120" height="30" as="geometry">
            <mxRectangle width="120" height="30" as="alternateBounds" />
          </mxGeometry>
        </mxCell>
        <mxCell id="AjuV_Ijz82pBbPcZ4gYu-75" value="Artista" style="shape=table;startSize=30;container=1;collapsible=1;childLayout=tableLayout;fixedRows=1;rowLines=0;fontStyle=1;align=center;resizeLast=1;html=1;fillColor=#e1d5e7;strokeColor=#9673a6;" vertex="1" parent="1">
          <mxGeometry x="870" y="1894" width="180" height="90" as="geometry" />
        </mxCell>
        <mxCell id="AjuV_Ijz82pBbPcZ4gYu-76" value="" style="shape=tableRow;horizontal=0;startSize=0;swimlaneHead=0;swimlaneBody=0;fillColor=none;collapsible=0;dropTarget=0;points=[[0,0.5],[1,0.5]];portConstraint=eastwest;top=0;left=0;right=0;bottom=1;" vertex="1" parent="AjuV_Ijz82pBbPcZ4gYu-75">
          <mxGeometry y="30" width="180" height="30" as="geometry" />
        </mxCell>
        <mxCell id="AjuV_Ijz82pBbPcZ4gYu-77" value="PK" style="shape=partialRectangle;connectable=0;fillColor=none;top=0;left=0;bottom=0;right=0;fontStyle=1;overflow=hidden;whiteSpace=wrap;html=1;" vertex="1" parent="AjuV_Ijz82pBbPcZ4gYu-76">
          <mxGeometry width="30" height="30" as="geometry">
            <mxRectangle width="30" height="30" as="alternateBounds" />
          </mxGeometry>
        </mxCell>
        <mxCell id="AjuV_Ijz82pBbPcZ4gYu-78" value="IdArtista" style="shape=partialRectangle;connectable=0;fillColor=none;top=0;left=0;bottom=0;right=0;align=left;spacingLeft=6;fontStyle=5;overflow=hidden;whiteSpace=wrap;html=1;" vertex="1" parent="AjuV_Ijz82pBbPcZ4gYu-76">
          <mxGeometry x="30" width="150" height="30" as="geometry">
            <mxRectangle width="150" height="30" as="alternateBounds" />
          </mxGeometry>
        </mxCell>
        <mxCell id="AjuV_Ijz82pBbPcZ4gYu-79" value="" style="shape=tableRow;horizontal=0;startSize=0;swimlaneHead=0;swimlaneBody=0;fillColor=none;collapsible=0;dropTarget=0;points=[[0,0.5],[1,0.5]];portConstraint=eastwest;top=0;left=0;right=0;bottom=0;" vertex="1" parent="AjuV_Ijz82pBbPcZ4gYu-75">
          <mxGeometry y="60" width="180" height="30" as="geometry" />
        </mxCell>
        <mxCell id="AjuV_Ijz82pBbPcZ4gYu-80" value="" style="shape=partialRectangle;connectable=0;fillColor=none;top=0;left=0;bottom=0;right=0;editable=1;overflow=hidden;whiteSpace=wrap;html=1;" vertex="1" parent="AjuV_Ijz82pBbPcZ4gYu-79">
          <mxGeometry width="30" height="30" as="geometry">
            <mxRectangle width="30" height="30" as="alternateBounds" />
          </mxGeometry>
        </mxCell>
        <mxCell id="AjuV_Ijz82pBbPcZ4gYu-81" value="Nome" style="shape=partialRectangle;connectable=0;fillColor=none;top=0;left=0;bottom=0;right=0;align=left;spacingLeft=6;overflow=hidden;whiteSpace=wrap;html=1;" vertex="1" parent="AjuV_Ijz82pBbPcZ4gYu-79">
          <mxGeometry x="30" width="150" height="30" as="geometry">
            <mxRectangle width="150" height="30" as="alternateBounds" />
          </mxGeometry>
        </mxCell>
        <mxCell id="AjuV_Ijz82pBbPcZ4gYu-88" value="" style="edgeStyle=entityRelationEdgeStyle;fontSize=12;html=1;endArrow=ERoneToMany;rounded=0;exitX=0;exitY=0.5;exitDx=0;exitDy=0;entryX=1;entryY=0.5;entryDx=0;entryDy=0;" edge="1" parent="1" source="AjuV_Ijz82pBbPcZ4gYu-76" target="AjuV_Ijz82pBbPcZ4gYu-51">
          <mxGeometry width="100" height="100" relative="1" as="geometry">
            <mxPoint x="740" y="1980" as="sourcePoint" />
            <mxPoint x="840" y="1880" as="targetPoint" />
          </mxGeometry>
        </mxCell>
        <mxCell id="AjuV_Ijz82pBbPcZ4gYu-89" value="Usuario" style="shape=table;startSize=30;container=1;collapsible=1;childLayout=tableLayout;fixedRows=1;rowLines=0;fontStyle=1;align=center;resizeLast=1;html=1;whiteSpace=wrap;fillColor=#e1d5e7;strokeColor=#9673a6;" vertex="1" parent="1">
          <mxGeometry x="1096" y="2180" width="180" height="180" as="geometry" />
        </mxCell>
        <mxCell id="AjuV_Ijz82pBbPcZ4gYu-90" value="" style="shape=tableRow;horizontal=0;startSize=0;swimlaneHead=0;swimlaneBody=0;fillColor=none;collapsible=0;dropTarget=0;points=[[0,0.5],[1,0.5]];portConstraint=eastwest;top=0;left=0;right=0;bottom=0;html=1;" vertex="1" parent="AjuV_Ijz82pBbPcZ4gYu-89">
          <mxGeometry y="30" width="180" height="30" as="geometry" />
        </mxCell>
        <mxCell id="AjuV_Ijz82pBbPcZ4gYu-91" value="PK" style="shape=partialRectangle;connectable=0;fillColor=none;top=0;left=0;bottom=0;right=0;fontStyle=1;overflow=hidden;html=1;whiteSpace=wrap;" vertex="1" parent="AjuV_Ijz82pBbPcZ4gYu-90">
          <mxGeometry width="60" height="30" as="geometry">
            <mxRectangle width="60" height="30" as="alternateBounds" />
          </mxGeometry>
        </mxCell>
        <mxCell id="AjuV_Ijz82pBbPcZ4gYu-92" value="IdUsuario" style="shape=partialRectangle;connectable=0;fillColor=none;top=0;left=0;bottom=0;right=0;align=left;spacingLeft=6;fontStyle=5;overflow=hidden;html=1;whiteSpace=wrap;" vertex="1" parent="AjuV_Ijz82pBbPcZ4gYu-90">
          <mxGeometry x="60" width="120" height="30" as="geometry">
            <mxRectangle width="120" height="30" as="alternateBounds" />
          </mxGeometry>
        </mxCell>
        <mxCell id="AjuV_Ijz82pBbPcZ4gYu-96" value="" style="shape=tableRow;horizontal=0;startSize=0;swimlaneHead=0;swimlaneBody=0;fillColor=none;collapsible=0;dropTarget=0;points=[[0,0.5],[1,0.5]];portConstraint=eastwest;top=0;left=0;right=0;bottom=0;html=1;" vertex="1" parent="AjuV_Ijz82pBbPcZ4gYu-89">
          <mxGeometry y="60" width="180" height="30" as="geometry" />
        </mxCell>
        <mxCell id="AjuV_Ijz82pBbPcZ4gYu-97" value="" style="shape=partialRectangle;connectable=0;fillColor=none;top=0;left=0;bottom=0;right=0;editable=1;overflow=hidden;html=1;whiteSpace=wrap;" vertex="1" parent="AjuV_Ijz82pBbPcZ4gYu-96">
          <mxGeometry width="60" height="30" as="geometry">
            <mxRectangle width="60" height="30" as="alternateBounds" />
          </mxGeometry>
        </mxCell>
        <mxCell id="AjuV_Ijz82pBbPcZ4gYu-98" value="Nome" style="shape=partialRectangle;connectable=0;fillColor=none;top=0;left=0;bottom=0;right=0;align=left;spacingLeft=6;overflow=hidden;html=1;whiteSpace=wrap;" vertex="1" parent="AjuV_Ijz82pBbPcZ4gYu-96">
          <mxGeometry x="60" width="120" height="30" as="geometry">
            <mxRectangle width="120" height="30" as="alternateBounds" />
          </mxGeometry>
        </mxCell>
        <mxCell id="AjuV_Ijz82pBbPcZ4gYu-99" value="" style="shape=tableRow;horizontal=0;startSize=0;swimlaneHead=0;swimlaneBody=0;fillColor=none;collapsible=0;dropTarget=0;points=[[0,0.5],[1,0.5]];portConstraint=eastwest;top=0;left=0;right=0;bottom=0;html=1;" vertex="1" parent="AjuV_Ijz82pBbPcZ4gYu-89">
          <mxGeometry y="90" width="180" height="30" as="geometry" />
        </mxCell>
        <mxCell id="AjuV_Ijz82pBbPcZ4gYu-100" value="" style="shape=partialRectangle;connectable=0;fillColor=none;top=0;left=0;bottom=0;right=0;editable=1;overflow=hidden;html=1;whiteSpace=wrap;" vertex="1" parent="AjuV_Ijz82pBbPcZ4gYu-99">
          <mxGeometry width="60" height="30" as="geometry">
            <mxRectangle width="60" height="30" as="alternateBounds" />
          </mxGeometry>
        </mxCell>
        <mxCell id="AjuV_Ijz82pBbPcZ4gYu-101" value="Email" style="shape=partialRectangle;connectable=0;fillColor=none;top=0;left=0;bottom=0;right=0;align=left;spacingLeft=6;overflow=hidden;html=1;whiteSpace=wrap;" vertex="1" parent="AjuV_Ijz82pBbPcZ4gYu-99">
          <mxGeometry x="60" width="120" height="30" as="geometry">
            <mxRectangle width="120" height="30" as="alternateBounds" />
          </mxGeometry>
        </mxCell>
        <mxCell id="AjuV_Ijz82pBbPcZ4gYu-119" style="shape=tableRow;horizontal=0;startSize=0;swimlaneHead=0;swimlaneBody=0;fillColor=none;collapsible=0;dropTarget=0;points=[[0,0.5],[1,0.5]];portConstraint=eastwest;top=0;left=0;right=0;bottom=0;html=1;" vertex="1" parent="AjuV_Ijz82pBbPcZ4gYu-89">
          <mxGeometry y="120" width="180" height="30" as="geometry" />
        </mxCell>
        <mxCell id="AjuV_Ijz82pBbPcZ4gYu-120" style="shape=partialRectangle;connectable=0;fillColor=none;top=0;left=0;bottom=0;right=0;editable=1;overflow=hidden;html=1;whiteSpace=wrap;" vertex="1" parent="AjuV_Ijz82pBbPcZ4gYu-119">
          <mxGeometry width="60" height="30" as="geometry">
            <mxRectangle width="60" height="30" as="alternateBounds" />
          </mxGeometry>
        </mxCell>
        <mxCell id="AjuV_Ijz82pBbPcZ4gYu-121" value="Senha" style="shape=partialRectangle;connectable=0;fillColor=none;top=0;left=0;bottom=0;right=0;align=left;spacingLeft=6;overflow=hidden;html=1;whiteSpace=wrap;" vertex="1" parent="AjuV_Ijz82pBbPcZ4gYu-119">
          <mxGeometry x="60" width="120" height="30" as="geometry">
            <mxRectangle width="120" height="30" as="alternateBounds" />
          </mxGeometry>
        </mxCell>
        <mxCell id="AjuV_Ijz82pBbPcZ4gYu-116" style="shape=tableRow;horizontal=0;startSize=0;swimlaneHead=0;swimlaneBody=0;fillColor=none;collapsible=0;dropTarget=0;points=[[0,0.5],[1,0.5]];portConstraint=eastwest;top=0;left=0;right=0;bottom=0;html=1;" vertex="1" parent="AjuV_Ijz82pBbPcZ4gYu-89">
          <mxGeometry y="150" width="180" height="30" as="geometry" />
        </mxCell>
        <mxCell id="AjuV_Ijz82pBbPcZ4gYu-117" style="shape=partialRectangle;connectable=0;fillColor=none;top=0;left=0;bottom=0;right=0;editable=1;overflow=hidden;html=1;whiteSpace=wrap;" vertex="1" parent="AjuV_Ijz82pBbPcZ4gYu-116">
          <mxGeometry width="60" height="30" as="geometry">
            <mxRectangle width="60" height="30" as="alternateBounds" />
          </mxGeometry>
        </mxCell>
        <mxCell id="AjuV_Ijz82pBbPcZ4gYu-118" value="Permissao" style="shape=partialRectangle;connectable=0;fillColor=none;top=0;left=0;bottom=0;right=0;align=left;spacingLeft=6;overflow=hidden;html=1;whiteSpace=wrap;" vertex="1" parent="AjuV_Ijz82pBbPcZ4gYu-116">
          <mxGeometry x="60" width="120" height="30" as="geometry">
            <mxRectangle width="120" height="30" as="alternateBounds" />
          </mxGeometry>
        </mxCell>
        <mxCell id="AjuV_Ijz82pBbPcZ4gYu-122" value="AlbumUsuario" style="shape=table;startSize=30;container=1;collapsible=1;childLayout=tableLayout;fixedRows=1;rowLines=0;fontStyle=1;align=center;resizeLast=1;html=1;whiteSpace=wrap;fillColor=#e1d5e7;strokeColor=#9673a6;" vertex="1" parent="1">
          <mxGeometry x="820" y="2180" width="180" height="126" as="geometry" />
        </mxCell>
        <mxCell id="AjuV_Ijz82pBbPcZ4gYu-138" style="shape=tableRow;horizontal=0;startSize=0;swimlaneHead=0;swimlaneBody=0;fillColor=none;collapsible=0;dropTarget=0;points=[[0,0.5],[1,0.5]];portConstraint=eastwest;top=0;left=0;right=0;bottom=0;html=1;" vertex="1" parent="AjuV_Ijz82pBbPcZ4gYu-122">
          <mxGeometry y="30" width="180" height="30" as="geometry" />
        </mxCell>
        <mxCell id="AjuV_Ijz82pBbPcZ4gYu-139" value="PK" style="shape=partialRectangle;connectable=0;fillColor=none;top=0;left=0;bottom=0;right=0;fontStyle=1;overflow=hidden;html=1;whiteSpace=wrap;" vertex="1" parent="AjuV_Ijz82pBbPcZ4gYu-138">
          <mxGeometry width="60" height="30" as="geometry">
            <mxRectangle width="60" height="30" as="alternateBounds" />
          </mxGeometry>
        </mxCell>
        <mxCell id="AjuV_Ijz82pBbPcZ4gYu-140" value="IdAlbumUsuario" style="shape=partialRectangle;connectable=0;fillColor=none;top=0;left=0;bottom=0;right=0;align=left;spacingLeft=6;fontStyle=5;overflow=hidden;html=1;whiteSpace=wrap;" vertex="1" parent="AjuV_Ijz82pBbPcZ4gYu-138">
          <mxGeometry x="60" width="120" height="30" as="geometry">
            <mxRectangle width="120" height="30" as="alternateBounds" />
          </mxGeometry>
        </mxCell>
        <mxCell id="AjuV_Ijz82pBbPcZ4gYu-135" style="shape=tableRow;horizontal=0;startSize=0;swimlaneHead=0;swimlaneBody=0;fillColor=none;collapsible=0;dropTarget=0;points=[[0,0.5],[1,0.5]];portConstraint=eastwest;top=0;left=0;right=0;bottom=0;html=1;" vertex="1" parent="AjuV_Ijz82pBbPcZ4gYu-122">
          <mxGeometry y="60" width="180" height="30" as="geometry" />
        </mxCell>
        <mxCell id="AjuV_Ijz82pBbPcZ4gYu-136" value="FK" style="shape=partialRectangle;connectable=0;fillColor=none;top=0;left=0;bottom=0;right=0;fontStyle=1;overflow=hidden;html=1;whiteSpace=wrap;" vertex="1" parent="AjuV_Ijz82pBbPcZ4gYu-135">
          <mxGeometry width="60" height="30" as="geometry">
            <mxRectangle width="60" height="30" as="alternateBounds" />
          </mxGeometry>
        </mxCell>
        <mxCell id="AjuV_Ijz82pBbPcZ4gYu-137" value="IdAlbum" style="shape=partialRectangle;connectable=0;fillColor=none;top=0;left=0;bottom=0;right=0;align=left;spacingLeft=6;fontStyle=5;overflow=hidden;html=1;whiteSpace=wrap;" vertex="1" parent="AjuV_Ijz82pBbPcZ4gYu-135">
          <mxGeometry x="60" width="120" height="30" as="geometry">
            <mxRectangle width="120" height="30" as="alternateBounds" />
          </mxGeometry>
        </mxCell>
        <mxCell id="AjuV_Ijz82pBbPcZ4gYu-123" value="" style="shape=tableRow;horizontal=0;startSize=0;swimlaneHead=0;swimlaneBody=0;fillColor=none;collapsible=0;dropTarget=0;points=[[0,0.5],[1,0.5]];portConstraint=eastwest;top=0;left=0;right=0;bottom=0;html=1;" vertex="1" parent="AjuV_Ijz82pBbPcZ4gYu-122">
          <mxGeometry y="90" width="180" height="36" as="geometry" />
        </mxCell>
        <mxCell id="AjuV_Ijz82pBbPcZ4gYu-124" value="FK" style="shape=partialRectangle;connectable=0;fillColor=none;top=0;left=0;bottom=0;right=0;fontStyle=1;overflow=hidden;html=1;whiteSpace=wrap;" vertex="1" parent="AjuV_Ijz82pBbPcZ4gYu-123">
          <mxGeometry width="60" height="36" as="geometry">
            <mxRectangle width="60" height="36" as="alternateBounds" />
          </mxGeometry>
        </mxCell>
        <mxCell id="AjuV_Ijz82pBbPcZ4gYu-125" value="IdUsuario" style="shape=partialRectangle;connectable=0;fillColor=none;top=0;left=0;bottom=0;right=0;align=left;spacingLeft=6;fontStyle=5;overflow=hidden;html=1;whiteSpace=wrap;" vertex="1" parent="AjuV_Ijz82pBbPcZ4gYu-123">
          <mxGeometry x="60" width="120" height="36" as="geometry">
            <mxRectangle width="120" height="36" as="alternateBounds" />
          </mxGeometry>
        </mxCell>
        <mxCell id="AjuV_Ijz82pBbPcZ4gYu-142" value="" style="edgeStyle=entityRelationEdgeStyle;fontSize=12;html=1;endArrow=ERoneToMany;rounded=0;exitX=0;exitY=0.5;exitDx=0;exitDy=0;entryX=1;entryY=0.5;entryDx=0;entryDy=0;" edge="1" parent="1" source="AjuV_Ijz82pBbPcZ4gYu-90" target="AjuV_Ijz82pBbPcZ4gYu-123">
          <mxGeometry width="100" height="100" relative="1" as="geometry">
            <mxPoint x="1050" y="1890" as="sourcePoint" />
            <mxPoint x="1150" y="1790" as="targetPoint" />
          </mxGeometry>
        </mxCell>
        <mxCell id="AjuV_Ijz82pBbPcZ4gYu-143" value="" style="edgeStyle=entityRelationEdgeStyle;fontSize=12;html=1;endArrow=ERoneToMany;rounded=0;exitX=1;exitY=0.5;exitDx=0;exitDy=0;entryX=0;entryY=0.5;entryDx=0;entryDy=0;" edge="1" parent="1" source="AjuV_Ijz82pBbPcZ4gYu-48" target="AjuV_Ijz82pBbPcZ4gYu-135">
          <mxGeometry width="100" height="100" relative="1" as="geometry">
            <mxPoint x="800" y="2180" as="sourcePoint" />
            <mxPoint x="900" y="2080" as="targetPoint" />
          </mxGeometry>
        </mxCell>
        <mxCell id="AjuV_Ijz82pBbPcZ4gYu-144" value="AlbumEstilo" style="shape=table;startSize=30;container=1;collapsible=1;childLayout=tableLayout;fixedRows=1;rowLines=0;fontStyle=1;align=center;resizeLast=1;html=1;whiteSpace=wrap;fillColor=#e1d5e7;strokeColor=#9673a6;" vertex="1" parent="1">
          <mxGeometry x="211" y="1760" width="180" height="126" as="geometry" />
        </mxCell>
        <mxCell id="AjuV_Ijz82pBbPcZ4gYu-145" style="shape=tableRow;horizontal=0;startSize=0;swimlaneHead=0;swimlaneBody=0;fillColor=none;collapsible=0;dropTarget=0;points=[[0,0.5],[1,0.5]];portConstraint=eastwest;top=0;left=0;right=0;bottom=0;html=1;" vertex="1" parent="AjuV_Ijz82pBbPcZ4gYu-144">
          <mxGeometry y="30" width="180" height="30" as="geometry" />
        </mxCell>
        <mxCell id="AjuV_Ijz82pBbPcZ4gYu-146" value="PK" style="shape=partialRectangle;connectable=0;fillColor=none;top=0;left=0;bottom=0;right=0;fontStyle=1;overflow=hidden;html=1;whiteSpace=wrap;" vertex="1" parent="AjuV_Ijz82pBbPcZ4gYu-145">
          <mxGeometry width="60" height="30" as="geometry">
            <mxRectangle width="60" height="30" as="alternateBounds" />
          </mxGeometry>
        </mxCell>
        <mxCell id="AjuV_Ijz82pBbPcZ4gYu-147" value="IdAlbumEstilo" style="shape=partialRectangle;connectable=0;fillColor=none;top=0;left=0;bottom=0;right=0;align=left;spacingLeft=6;fontStyle=5;overflow=hidden;html=1;whiteSpace=wrap;" vertex="1" parent="AjuV_Ijz82pBbPcZ4gYu-145">
          <mxGeometry x="60" width="120" height="30" as="geometry">
            <mxRectangle width="120" height="30" as="alternateBounds" />
          </mxGeometry>
        </mxCell>
        <mxCell id="AjuV_Ijz82pBbPcZ4gYu-148" style="shape=tableRow;horizontal=0;startSize=0;swimlaneHead=0;swimlaneBody=0;fillColor=none;collapsible=0;dropTarget=0;points=[[0,0.5],[1,0.5]];portConstraint=eastwest;top=0;left=0;right=0;bottom=0;html=1;" vertex="1" parent="AjuV_Ijz82pBbPcZ4gYu-144">
          <mxGeometry y="60" width="180" height="30" as="geometry" />
        </mxCell>
        <mxCell id="AjuV_Ijz82pBbPcZ4gYu-149" value="FK" style="shape=partialRectangle;connectable=0;fillColor=none;top=0;left=0;bottom=0;right=0;fontStyle=1;overflow=hidden;html=1;whiteSpace=wrap;" vertex="1" parent="AjuV_Ijz82pBbPcZ4gYu-148">
          <mxGeometry width="60" height="30" as="geometry">
            <mxRectangle width="60" height="30" as="alternateBounds" />
          </mxGeometry>
        </mxCell>
        <mxCell id="AjuV_Ijz82pBbPcZ4gYu-150" value="IdAlbum" style="shape=partialRectangle;connectable=0;fillColor=none;top=0;left=0;bottom=0;right=0;align=left;spacingLeft=6;fontStyle=5;overflow=hidden;html=1;whiteSpace=wrap;" vertex="1" parent="AjuV_Ijz82pBbPcZ4gYu-148">
          <mxGeometry x="60" width="120" height="30" as="geometry">
            <mxRectangle width="120" height="30" as="alternateBounds" />
          </mxGeometry>
        </mxCell>
        <mxCell id="AjuV_Ijz82pBbPcZ4gYu-151" value="" style="shape=tableRow;horizontal=0;startSize=0;swimlaneHead=0;swimlaneBody=0;fillColor=none;collapsible=0;dropTarget=0;points=[[0,0.5],[1,0.5]];portConstraint=eastwest;top=0;left=0;right=0;bottom=0;html=1;" vertex="1" parent="AjuV_Ijz82pBbPcZ4gYu-144">
          <mxGeometry y="90" width="180" height="36" as="geometry" />
        </mxCell>
        <mxCell id="AjuV_Ijz82pBbPcZ4gYu-152" value="FK" style="shape=partialRectangle;connectable=0;fillColor=none;top=0;left=0;bottom=0;right=0;fontStyle=1;overflow=hidden;html=1;whiteSpace=wrap;" vertex="1" parent="AjuV_Ijz82pBbPcZ4gYu-151">
          <mxGeometry width="60" height="36" as="geometry">
            <mxRectangle width="60" height="36" as="alternateBounds" />
          </mxGeometry>
        </mxCell>
        <mxCell id="AjuV_Ijz82pBbPcZ4gYu-153" value="IdEstilo" style="shape=partialRectangle;connectable=0;fillColor=none;top=0;left=0;bottom=0;right=0;align=left;spacingLeft=6;fontStyle=5;overflow=hidden;html=1;whiteSpace=wrap;" vertex="1" parent="AjuV_Ijz82pBbPcZ4gYu-151">
          <mxGeometry x="60" width="120" height="36" as="geometry">
            <mxRectangle width="120" height="36" as="alternateBounds" />
          </mxGeometry>
        </mxCell>
        <mxCell id="AjuV_Ijz82pBbPcZ4gYu-168" value="Estilo" style="shape=table;startSize=30;container=1;collapsible=1;childLayout=tableLayout;fixedRows=1;rowLines=0;fontStyle=1;align=center;resizeLast=1;html=1;whiteSpace=wrap;fillColor=#e1d5e7;strokeColor=#9673a6;" vertex="1" parent="1">
          <mxGeometry x="-76" y="1910" width="180" height="90" as="geometry" />
        </mxCell>
        <mxCell id="AjuV_Ijz82pBbPcZ4gYu-169" value="" style="shape=tableRow;horizontal=0;startSize=0;swimlaneHead=0;swimlaneBody=0;fillColor=none;collapsible=0;dropTarget=0;points=[[0,0.5],[1,0.5]];portConstraint=eastwest;top=0;left=0;right=0;bottom=0;html=1;" vertex="1" parent="AjuV_Ijz82pBbPcZ4gYu-168">
          <mxGeometry y="30" width="180" height="30" as="geometry" />
        </mxCell>
        <mxCell id="AjuV_Ijz82pBbPcZ4gYu-170" value="PK" style="shape=partialRectangle;connectable=0;fillColor=none;top=0;left=0;bottom=0;right=0;fontStyle=1;overflow=hidden;html=1;whiteSpace=wrap;" vertex="1" parent="AjuV_Ijz82pBbPcZ4gYu-169">
          <mxGeometry width="60" height="30" as="geometry">
            <mxRectangle width="60" height="30" as="alternateBounds" />
          </mxGeometry>
        </mxCell>
        <mxCell id="AjuV_Ijz82pBbPcZ4gYu-171" value="IdEstilo" style="shape=partialRectangle;connectable=0;fillColor=none;top=0;left=0;bottom=0;right=0;align=left;spacingLeft=6;fontStyle=5;overflow=hidden;html=1;whiteSpace=wrap;" vertex="1" parent="AjuV_Ijz82pBbPcZ4gYu-169">
          <mxGeometry x="60" width="120" height="30" as="geometry">
            <mxRectangle width="120" height="30" as="alternateBounds" />
          </mxGeometry>
        </mxCell>
        <mxCell id="AjuV_Ijz82pBbPcZ4gYu-172" value="" style="shape=tableRow;horizontal=0;startSize=0;swimlaneHead=0;swimlaneBody=0;fillColor=none;collapsible=0;dropTarget=0;points=[[0,0.5],[1,0.5]];portConstraint=eastwest;top=0;left=0;right=0;bottom=0;html=1;" vertex="1" parent="AjuV_Ijz82pBbPcZ4gYu-168">
          <mxGeometry y="60" width="180" height="30" as="geometry" />
        </mxCell>
        <mxCell id="AjuV_Ijz82pBbPcZ4gYu-173" value="" style="shape=partialRectangle;connectable=0;fillColor=none;top=0;left=0;bottom=0;right=0;editable=1;overflow=hidden;html=1;whiteSpace=wrap;" vertex="1" parent="AjuV_Ijz82pBbPcZ4gYu-172">
          <mxGeometry width="60" height="30" as="geometry">
            <mxRectangle width="60" height="30" as="alternateBounds" />
          </mxGeometry>
        </mxCell>
        <mxCell id="AjuV_Ijz82pBbPcZ4gYu-174" value="Nome" style="shape=partialRectangle;connectable=0;fillColor=none;top=0;left=0;bottom=0;right=0;align=left;spacingLeft=6;overflow=hidden;html=1;whiteSpace=wrap;" vertex="1" parent="AjuV_Ijz82pBbPcZ4gYu-172">
          <mxGeometry x="60" width="120" height="30" as="geometry">
            <mxRectangle width="120" height="30" as="alternateBounds" />
          </mxGeometry>
        </mxCell>
        <mxCell id="AjuV_Ijz82pBbPcZ4gYu-184" value="" style="edgeStyle=entityRelationEdgeStyle;fontSize=12;html=1;endArrow=ERoneToMany;rounded=0;exitX=1;exitY=0.5;exitDx=0;exitDy=0;entryX=0;entryY=0.5;entryDx=0;entryDy=0;" edge="1" parent="1" source="AjuV_Ijz82pBbPcZ4gYu-169" target="AjuV_Ijz82pBbPcZ4gYu-151">
          <mxGeometry width="100" height="100" relative="1" as="geometry">
            <mxPoint x="140" y="1940" as="sourcePoint" />
            <mxPoint x="240" y="1840" as="targetPoint" />
          </mxGeometry>
        </mxCell>
        <mxCell id="AjuV_Ijz82pBbPcZ4gYu-185" value="" style="edgeStyle=entityRelationEdgeStyle;fontSize=12;html=1;endArrow=ERoneToMany;rounded=0;exitX=0;exitY=0.5;exitDx=0;exitDy=0;entryX=1;entryY=0.5;entryDx=0;entryDy=0;" edge="1" parent="1" source="AjuV_Ijz82pBbPcZ4gYu-48" target="AjuV_Ijz82pBbPcZ4gYu-148">
          <mxGeometry width="100" height="100" relative="1" as="geometry">
            <mxPoint x="470" y="1980" as="sourcePoint" />
            <mxPoint x="570" y="1880" as="targetPoint" />
          </mxGeometry>
        </mxCell>
        <mxCell id="AjuV_Ijz82pBbPcZ4gYu-186" value="&lt;font style=&quot;font-size: 14px;&quot;&gt;&lt;font style=&quot;vertical-align: inherit;&quot;&gt;&lt;font style=&quot;vertical-align: inherit;&quot;&gt;&lt;font style=&quot;vertical-align: inherit; font-size: 21px;&quot;&gt;&lt;font style=&quot;vertical-align: inherit; font-size: 21px;&quot;&gt;&lt;font style=&quot;vertical-align: inherit; font-size: 21px;&quot;&gt;&lt;font style=&quot;vertical-align: inherit; font-size: 21px;&quot;&gt;&lt;font style=&quot;vertical-align: inherit;&quot;&gt;&lt;font style=&quot;vertical-align: inherit;&quot;&gt;CONCEITUAL&lt;/font&gt;&lt;/font&gt;&lt;/font&gt;&lt;/font&gt;&lt;/font&gt;&lt;/font&gt;&lt;/font&gt;&lt;/font&gt;&lt;/font&gt;" style="rounded=0;whiteSpace=wrap;html=1;labelBackgroundColor=none;fontSize=14;fillColor=#e1d5e7;strokeColor=#9673a6;gradientDirection=east;" vertex="1" parent="1">
          <mxGeometry x="250" y="585" width="320" height="85" as="geometry" />
        </mxCell>
        <mxCell id="AjuV_Ijz82pBbPcZ4gYu-187" value="&lt;font style=&quot;font-size: 14px;&quot;&gt;&lt;font style=&quot;vertical-align: inherit;&quot;&gt;&lt;font style=&quot;vertical-align: inherit;&quot;&gt;&lt;font style=&quot;vertical-align: inherit; font-size: 21px;&quot;&gt;&lt;font style=&quot;vertical-align: inherit; font-size: 21px;&quot;&gt;&lt;font style=&quot;vertical-align: inherit; font-size: 21px;&quot;&gt;&lt;font style=&quot;vertical-align: inherit; font-size: 21px;&quot;&gt;&lt;font style=&quot;vertical-align: inherit;&quot;&gt;&lt;font style=&quot;vertical-align: inherit;&quot;&gt;&lt;font style=&quot;vertical-align: inherit;&quot;&gt;&lt;font style=&quot;vertical-align: inherit;&quot;&gt;&lt;font style=&quot;vertical-align: inherit;&quot;&gt;&lt;font style=&quot;vertical-align: inherit;&quot;&gt;LÓGICO&lt;/font&gt;&lt;/font&gt;&lt;/font&gt;&lt;/font&gt;&lt;/font&gt;&lt;/font&gt;&lt;/font&gt;&lt;/font&gt;&lt;/font&gt;&lt;/font&gt;&lt;/font&gt;&lt;/font&gt;&lt;/font&gt;" style="rounded=0;whiteSpace=wrap;html=1;labelBackgroundColor=none;fontSize=14;fillColor=#e1d5e7;strokeColor=#9673a6;gradientDirection=east;" vertex="1" parent="1">
          <mxGeometry x="254" y="1580" width="320" height="85" as="geometry" />
        </mxCell>
      </root>
    </mxGraphModel>
  </diagram>
</mxfile>
